%TF.GenerationSoftware,Altium Limited,Altium Designer,23.6.0 (18)*%
G04 Layer_Physical_Order=1*
G04 Layer_Color=255*
%FSLAX43Y43*%
%MOMM*%
%TF.SameCoordinates,6C6526E1-C053-4265-BDC0-CB623CBAD704*%
%TF.FilePolarity,Positive*%
%TF.FileFunction,Copper,L1,Top,Signal*%
%TF.Part,Single*%
G01*
G75*
%TA.AperFunction,SMDPad,CuDef*%
%ADD10R,4.000X2.100*%
%ADD11R,2.100X4.000*%
G04:AMPARAMS|DCode=12|XSize=1.25mm|YSize=1.1mm|CornerRadius=0.275mm|HoleSize=0mm|Usage=FLASHONLY|Rotation=270.000|XOffset=0mm|YOffset=0mm|HoleType=Round|Shape=RoundedRectangle|*
%AMROUNDEDRECTD12*
21,1,1.250,0.550,0,0,270.0*
21,1,0.700,1.100,0,0,270.0*
1,1,0.550,-0.275,-0.350*
1,1,0.550,-0.275,0.350*
1,1,0.550,0.275,0.350*
1,1,0.550,0.275,-0.350*
%
%ADD12ROUNDEDRECTD12*%
%TA.AperFunction,Conductor*%
%ADD13C,0.300*%
%ADD14C,0.254*%
%TA.AperFunction,ComponentPad*%
G04:AMPARAMS|DCode=15|XSize=1.95mm|YSize=1.95mm|CornerRadius=0.488mm|HoleSize=0mm|Usage=FLASHONLY|Rotation=270.000|XOffset=0mm|YOffset=0mm|HoleType=Round|Shape=RoundedRectangle|*
%AMROUNDEDRECTD15*
21,1,1.950,0.975,0,0,270.0*
21,1,0.975,1.950,0,0,270.0*
1,1,0.975,-0.488,-0.488*
1,1,0.975,-0.488,0.488*
1,1,0.975,0.488,0.488*
1,1,0.975,0.488,-0.488*
%
%ADD15ROUNDEDRECTD15*%
%ADD16C,1.950*%
%ADD17C,0.850*%
%ADD18C,2.375*%
G04:AMPARAMS|DCode=19|XSize=1.95mm|YSize=1.95mm|CornerRadius=0.488mm|HoleSize=0mm|Usage=FLASHONLY|Rotation=0.000|XOffset=0mm|YOffset=0mm|HoleType=Round|Shape=RoundedRectangle|*
%AMROUNDEDRECTD19*
21,1,1.950,0.975,0,0,0.0*
21,1,0.975,1.950,0,0,0.0*
1,1,0.975,0.488,-0.488*
1,1,0.975,-0.488,-0.488*
1,1,0.975,-0.488,0.488*
1,1,0.975,0.488,0.488*
%
%ADD19ROUNDEDRECTD19*%
%ADD20C,1.600*%
G04:AMPARAMS|DCode=21|XSize=1.6mm|YSize=1.6mm|CornerRadius=0.4mm|HoleSize=0mm|Usage=FLASHONLY|Rotation=180.000|XOffset=0mm|YOffset=0mm|HoleType=Round|Shape=RoundedRectangle|*
%AMROUNDEDRECTD21*
21,1,1.600,0.800,0,0,180.0*
21,1,0.800,1.600,0,0,180.0*
1,1,0.800,-0.400,0.400*
1,1,0.800,0.400,0.400*
1,1,0.800,0.400,-0.400*
1,1,0.800,-0.400,-0.400*
%
%ADD21ROUNDEDRECTD21*%
%TA.AperFunction,ViaPad*%
%ADD22C,0.650*%
%ADD23C,0.700*%
G36*
X61745Y255D02*
X255D01*
Y14915D01*
X2000D01*
X2098Y14935D01*
X2180Y14990D01*
X2235Y15072D01*
X2255Y15170D01*
Y30830D01*
X2235Y30928D01*
X2180Y31010D01*
X2098Y31065D01*
X2000Y31085D01*
X255D01*
Y45745D01*
X61745D01*
Y255D01*
D02*
G37*
%LPC*%
G36*
X21175Y42484D02*
X21000D01*
Y41750D01*
X21659D01*
Y42000D01*
X21622Y42185D01*
X21517Y42342D01*
X21360Y42447D01*
X21175Y42484D01*
D02*
G37*
G36*
X20800D02*
X20625D01*
X20440Y42447D01*
X20283Y42342D01*
X20178Y42185D01*
X20141Y42000D01*
Y41750D01*
X20800D01*
Y42484D01*
D02*
G37*
G36*
X21659Y41550D02*
X21000D01*
Y40816D01*
X21175D01*
X21360Y40853D01*
X21517Y40958D01*
X21622Y41115D01*
X21659Y41300D01*
Y41550D01*
D02*
G37*
G36*
X20800D02*
X20141D01*
Y41300D01*
X20178Y41115D01*
X20283Y40958D01*
X20440Y40853D01*
X20625Y40816D01*
X20800D01*
Y41550D01*
D02*
G37*
G36*
X36297Y40625D02*
X36265D01*
Y39725D01*
X37165D01*
Y39757D01*
X37097Y40011D01*
X36965Y40239D01*
X36779Y40425D01*
X36551Y40557D01*
X36297Y40625D01*
D02*
G37*
G36*
X36065D02*
X36033D01*
X35779Y40557D01*
X35551Y40425D01*
X35365Y40239D01*
X35233Y40011D01*
X35165Y39757D01*
Y39725D01*
X36065D01*
Y40625D01*
D02*
G37*
G36*
X2463Y40481D02*
X2075D01*
Y39400D01*
X3156D01*
Y39787D01*
X3132Y39967D01*
X3063Y40134D01*
X2953Y40278D01*
X2809Y40388D01*
X2642Y40457D01*
X2463Y40481D01*
D02*
G37*
G36*
X1875D02*
X1487D01*
X1308Y40457D01*
X1141Y40388D01*
X997Y40278D01*
X887Y40134D01*
X818Y39967D01*
X794Y39787D01*
Y39400D01*
X1875D01*
Y40481D01*
D02*
G37*
G36*
X33050Y40251D02*
X32850D01*
X32666Y40175D01*
X32525Y40034D01*
X32449Y39850D01*
Y39650D01*
X32525Y39466D01*
X32589Y39402D01*
X32585Y39378D01*
X32474Y39331D01*
X32446Y39330D01*
X32275Y39401D01*
X32075D01*
X31891Y39325D01*
X31750Y39184D01*
X31674Y39000D01*
Y38800D01*
X31750Y38616D01*
X31891Y38475D01*
X32075Y38399D01*
X32154D01*
X32262Y38292D01*
Y24217D01*
X32283Y24109D01*
X32345Y24017D01*
X35466Y20895D01*
X35558Y20834D01*
X35667Y20812D01*
X36567D01*
X36687Y20692D01*
X36862Y20619D01*
X37052D01*
X37227Y20692D01*
X37361Y20826D01*
X37433Y21001D01*
Y21142D01*
X52884D01*
X52992Y21163D01*
X53084Y21225D01*
X53794Y21935D01*
X53856Y22027D01*
X53877Y22135D01*
Y22470D01*
X53998Y22590D01*
X54070Y22765D01*
Y22955D01*
X53998Y23130D01*
X53864Y23264D01*
X53689Y23336D01*
X53499D01*
X53324Y23264D01*
X53190Y23130D01*
X53118Y22955D01*
Y22765D01*
X53190Y22590D01*
X53311Y22470D01*
Y22253D01*
X53148Y22090D01*
X53022Y22143D01*
X52958Y22298D01*
X52824Y22432D01*
X52649Y22504D01*
X52460D01*
X52427Y22491D01*
X52355Y22598D01*
X55381Y25625D01*
X56125D01*
X56245Y25504D01*
X56420Y25432D01*
X56610D01*
X56785Y25504D01*
X56919Y25638D01*
X56991Y25813D01*
Y26003D01*
X56937Y26133D01*
X57003Y26260D01*
X57678D01*
X57679Y26256D01*
X57813Y26122D01*
X57988Y26050D01*
X58178D01*
X58353Y26122D01*
X58486Y26256D01*
X58559Y26431D01*
Y26621D01*
X58486Y26796D01*
X58353Y26929D01*
X58178Y27002D01*
X57988D01*
X57813Y26929D01*
X57710Y26826D01*
X55118D01*
X55010Y26805D01*
X54918Y26743D01*
X51699Y23524D01*
X37794D01*
X37665Y23654D01*
X37490Y23726D01*
X37300D01*
X37125Y23654D01*
X36991Y23520D01*
X36919Y23345D01*
Y23175D01*
X36863Y23117D01*
X36812Y23082D01*
X36798Y23088D01*
X36608D01*
X36433Y23016D01*
X36299Y22882D01*
X36227Y22707D01*
Y22517D01*
X36268Y22420D01*
X36183Y22293D01*
X36161D01*
X36052Y22271D01*
X35983Y22225D01*
X35945Y22241D01*
X35755D01*
X35718Y22226D01*
X33233Y24710D01*
Y39325D01*
X33234Y39325D01*
X33375Y39466D01*
X33451Y39650D01*
Y39850D01*
X33375Y40034D01*
X33234Y40175D01*
X33050Y40251D01*
D02*
G37*
G36*
X41370Y40576D02*
X41120D01*
X40878Y40511D01*
X40661Y40386D01*
X40484Y40209D01*
X40359Y39992D01*
X40294Y39750D01*
Y39500D01*
X40359Y39258D01*
X40484Y39041D01*
X40661Y38864D01*
X40878Y38739D01*
X41120Y38674D01*
X41370D01*
X41612Y38739D01*
X41829Y38864D01*
X42006Y39041D01*
X42131Y39258D01*
X42196Y39500D01*
Y39750D01*
X42131Y39992D01*
X42006Y40209D01*
X41829Y40386D01*
X41612Y40511D01*
X41370Y40576D01*
D02*
G37*
G36*
X38830D02*
X38580D01*
X38338Y40511D01*
X38121Y40386D01*
X37944Y40209D01*
X37819Y39992D01*
X37754Y39750D01*
Y39500D01*
X37819Y39258D01*
X37944Y39041D01*
X38121Y38864D01*
X38338Y38739D01*
X38580Y38674D01*
X38830D01*
X39072Y38739D01*
X39289Y38864D01*
X39466Y39041D01*
X39591Y39258D01*
X39656Y39500D01*
Y39750D01*
X39591Y39992D01*
X39466Y40209D01*
X39289Y40386D01*
X39072Y40511D01*
X38830Y40576D01*
D02*
G37*
G36*
X37165Y39525D02*
X36265D01*
Y38625D01*
X36297D01*
X36551Y38693D01*
X36779Y38825D01*
X36965Y39011D01*
X37097Y39239D01*
X37165Y39493D01*
Y39525D01*
D02*
G37*
G36*
X36065D02*
X35165D01*
Y39493D01*
X35233Y39239D01*
X35365Y39011D01*
X35551Y38825D01*
X35779Y38693D01*
X36033Y38625D01*
X36065D01*
Y39525D01*
D02*
G37*
G36*
X9743Y40426D02*
X9447D01*
X9160Y40349D01*
X8904Y40201D01*
X8694Y39991D01*
X8546Y39735D01*
X8469Y39448D01*
Y39152D01*
X8546Y38865D01*
X8694Y38609D01*
X8904Y38399D01*
X9160Y38251D01*
X9447Y38174D01*
X9743D01*
X10030Y38251D01*
X10286Y38399D01*
X10496Y38609D01*
X10644Y38865D01*
X10721Y39152D01*
Y39448D01*
X10644Y39735D01*
X10496Y39991D01*
X10286Y40201D01*
X10030Y40349D01*
X9743Y40426D01*
D02*
G37*
G36*
X7203D02*
X6907D01*
X6620Y40349D01*
X6364Y40201D01*
X6154Y39991D01*
X6006Y39735D01*
X5929Y39448D01*
Y39152D01*
X6006Y38865D01*
X6154Y38609D01*
X6364Y38399D01*
X6620Y38251D01*
X6907Y38174D01*
X7203D01*
X7490Y38251D01*
X7746Y38399D01*
X7956Y38609D01*
X8104Y38865D01*
X8181Y39152D01*
Y39448D01*
X8104Y39735D01*
X7956Y39991D01*
X7746Y40201D01*
X7490Y40349D01*
X7203Y40426D01*
D02*
G37*
G36*
X3156Y39200D02*
X2075D01*
Y38119D01*
X2463D01*
X2642Y38143D01*
X2809Y38212D01*
X2953Y38322D01*
X3063Y38466D01*
X3132Y38633D01*
X3156Y38812D01*
Y39200D01*
D02*
G37*
G36*
X1875D02*
X794D01*
Y38812D01*
X818Y38633D01*
X887Y38466D01*
X997Y38322D01*
X1141Y38212D01*
X1308Y38143D01*
X1487Y38119D01*
X1875D01*
Y39200D01*
D02*
G37*
G36*
X44185Y40587D02*
X43385D01*
X43170Y40544D01*
X42988Y40422D01*
X42866Y40240D01*
X42823Y40025D01*
Y39225D01*
X42866Y39010D01*
X42988Y38828D01*
X43170Y38706D01*
X43385Y38663D01*
X43478D01*
Y38215D01*
X43501Y38098D01*
X43568Y37998D01*
X44767Y36799D01*
Y30599D01*
X44671Y30503D01*
X44598Y30328D01*
Y30138D01*
X44671Y29963D01*
X44804Y29829D01*
X44979Y29757D01*
X45169D01*
X45344Y29829D01*
X45478Y29963D01*
X45550Y30138D01*
Y30328D01*
X45478Y30503D01*
X45381Y30599D01*
Y36926D01*
X45358Y37043D01*
X45291Y37143D01*
X44092Y38342D01*
Y38663D01*
X44185D01*
X44400Y38706D01*
X44582Y38828D01*
X44704Y39010D01*
X44747Y39225D01*
Y40025D01*
X44704Y40240D01*
X44582Y40422D01*
X44400Y40544D01*
X44185Y40587D01*
D02*
G37*
G36*
X4663Y40426D02*
X4367D01*
X4080Y40349D01*
X3824Y40201D01*
X3614Y39991D01*
X3466Y39735D01*
X3389Y39448D01*
Y39152D01*
X3466Y38865D01*
X3614Y38609D01*
X3824Y38399D01*
X4080Y38251D01*
X4208Y38217D01*
Y34285D01*
X4231Y34168D01*
X4298Y34068D01*
X10671Y27695D01*
X10771Y27628D01*
X10888Y27605D01*
X14672D01*
X14730Y27546D01*
X14905Y27474D01*
X15095D01*
X15270Y27546D01*
X15328Y27605D01*
X22484D01*
X22580Y27508D01*
X22755Y27436D01*
X22944D01*
X23119Y27508D01*
X23253Y27642D01*
X23326Y27817D01*
Y28007D01*
X23253Y28182D01*
X23119Y28316D01*
X22944Y28388D01*
X22755D01*
X22580Y28316D01*
X22484Y28219D01*
X15404D01*
X15404Y28220D01*
X15270Y28354D01*
X15095Y28426D01*
X14905D01*
X14730Y28354D01*
X14596Y28220D01*
X14596Y28219D01*
X11015D01*
X4822Y34412D01*
Y38217D01*
X4950Y38251D01*
X5206Y38399D01*
X5416Y38609D01*
X5564Y38865D01*
X5641Y39152D01*
Y39448D01*
X5564Y39735D01*
X5416Y39991D01*
X5206Y40201D01*
X4950Y40349D01*
X4663Y40426D01*
D02*
G37*
G36*
X16700Y41551D02*
X16500D01*
X16316Y41475D01*
X16175Y41334D01*
X16099Y41150D01*
Y40950D01*
X16175Y40766D01*
X16316Y40625D01*
X16500Y40549D01*
X16700D01*
X16700Y40549D01*
X26973Y30277D01*
Y23611D01*
X26960Y23603D01*
X26833Y23671D01*
Y29425D01*
X26812Y29533D01*
X26750Y29625D01*
X17233Y39143D01*
X17233Y39143D01*
Y39343D01*
X17157Y39527D01*
X17016Y39668D01*
X16832Y39744D01*
X16632D01*
X16448Y39668D01*
X16307Y39527D01*
X16231Y39343D01*
Y39143D01*
X16307Y38959D01*
X16448Y38818D01*
X16632Y38742D01*
X16832D01*
X16832Y38742D01*
X26267Y29308D01*
Y22640D01*
X26146Y22520D01*
X26074Y22345D01*
Y22155D01*
X26146Y21980D01*
X26280Y21846D01*
X26455Y21774D01*
X26645D01*
X26820Y21846D01*
X26954Y21980D01*
X27026Y22155D01*
Y22345D01*
X26954Y22520D01*
X26909Y22564D01*
X26916Y22600D01*
X26918Y22602D01*
X27059Y22667D01*
X27161Y22625D01*
X27351D01*
X27526Y22697D01*
X27660Y22831D01*
X27732Y23006D01*
Y23196D01*
X27660Y23371D01*
X27539Y23491D01*
Y30394D01*
X27522Y30482D01*
X27521Y30508D01*
X27583Y30634D01*
X27690Y30678D01*
X27824Y30812D01*
X27897Y30987D01*
Y31177D01*
X27824Y31352D01*
X27690Y31486D01*
X27515Y31558D01*
X27346D01*
X21183Y37720D01*
Y38517D01*
X21341Y38549D01*
X21482Y38643D01*
X21576Y38784D01*
X21609Y38950D01*
Y39650D01*
X21576Y39816D01*
X21482Y39957D01*
X21341Y40051D01*
X21175Y40084D01*
X20625D01*
X20459Y40051D01*
X20318Y39957D01*
X20224Y39816D01*
X20191Y39650D01*
Y38950D01*
X20224Y38784D01*
X20318Y38643D01*
X20459Y38549D01*
X20617Y38517D01*
Y37614D01*
X20591Y37592D01*
X20497Y37554D01*
X17101Y40950D01*
X17101Y40950D01*
Y41150D01*
X17025Y41334D01*
X16884Y41475D01*
X16700Y41551D01*
D02*
G37*
G36*
X29305Y24098D02*
X29115D01*
X28940Y24026D01*
X28806Y23892D01*
X28734Y23717D01*
Y23527D01*
X28806Y23352D01*
X28940Y23218D01*
X29115Y23146D01*
X29285D01*
X30132Y22300D01*
X30082Y22179D01*
X29989D01*
X29982Y22198D01*
X29848Y22332D01*
X29673Y22404D01*
X29484D01*
X29309Y22332D01*
X29175Y22198D01*
X29102Y22023D01*
Y21833D01*
X29175Y21658D01*
X29309Y21524D01*
X29484Y21452D01*
X29630D01*
X29666Y21414D01*
X29702Y21353D01*
X29707Y21335D01*
X29645Y21185D01*
Y20995D01*
X29717Y20820D01*
X29851Y20686D01*
X30026Y20614D01*
X30216D01*
X30391Y20686D01*
X30511Y20807D01*
X30747D01*
X35196Y16358D01*
X35288Y16296D01*
X35397Y16275D01*
X35805D01*
X35925Y16154D01*
X36100Y16082D01*
X36234D01*
X36287Y15955D01*
X36267Y15935D01*
X36091Y15630D01*
X36000Y15289D01*
Y14937D01*
X36091Y14596D01*
X36267Y14291D01*
X36516Y14042D01*
X36646Y13967D01*
X36652Y13838D01*
X36587Y13785D01*
X36457Y13819D01*
X36419Y13911D01*
X36285Y14045D01*
X36110Y14117D01*
X35921D01*
X35753Y14048D01*
X31225Y18575D01*
Y18745D01*
X31153Y18920D01*
X31019Y19054D01*
X30844Y19126D01*
X30654D01*
X30479Y19054D01*
X30345Y18920D01*
X30273Y18745D01*
Y18556D01*
X30345Y18381D01*
X30479Y18247D01*
X30654Y18174D01*
X30824D01*
X35472Y13526D01*
X35564Y13465D01*
X35574Y13463D01*
X35612Y13372D01*
X35746Y13238D01*
X35801Y13215D01*
X35776Y13088D01*
X27222D01*
X27151Y13159D01*
Y13296D01*
X27079Y13471D01*
X26945Y13605D01*
X26770Y13677D01*
X26580D01*
X26405Y13605D01*
X26271Y13471D01*
X26199Y13296D01*
Y13106D01*
X26271Y12931D01*
X26405Y12797D01*
X26580Y12725D01*
X26717D01*
X26878Y12564D01*
X26896Y12552D01*
X26858Y12425D01*
X25667D01*
X25536Y12557D01*
X25361Y12629D01*
X25171D01*
X24996Y12557D01*
X24862Y12423D01*
X24790Y12248D01*
Y12058D01*
X24862Y11883D01*
X24996Y11749D01*
X25171Y11677D01*
X25361D01*
X25536Y11749D01*
X25644Y11858D01*
X29267D01*
X29398Y11726D01*
X29573Y11654D01*
X29763D01*
X29938Y11726D01*
X30072Y11860D01*
X30144Y12035D01*
Y12225D01*
X30093Y12347D01*
X30163Y12474D01*
X35964D01*
X36062Y12347D01*
X36000Y12114D01*
Y11762D01*
X36091Y11421D01*
X36267Y11116D01*
X36516Y10867D01*
X36821Y10691D01*
X37162Y10599D01*
X37514D01*
X37855Y10691D01*
X38160Y10867D01*
X38409Y11116D01*
X38585Y11421D01*
X38676Y11762D01*
Y12114D01*
X38585Y12455D01*
X38409Y12760D01*
X38160Y13009D01*
X37855Y13185D01*
X37835Y13191D01*
X37852Y13318D01*
X39571D01*
Y10223D01*
X39444Y10198D01*
X39371Y10373D01*
X39202Y10542D01*
X38982Y10634D01*
X38742D01*
X38522Y10542D01*
X38353Y10373D01*
X38261Y10153D01*
Y9913D01*
X38353Y9693D01*
X38522Y9524D01*
X38742Y9432D01*
X38982D01*
X39043Y9391D01*
Y7751D01*
X38149D01*
Y3449D01*
X40551D01*
Y7751D01*
X39657D01*
Y9332D01*
X40095Y9770D01*
X40162Y9869D01*
X40289Y9905D01*
X40298Y9902D01*
X40384Y9693D01*
X40554Y9524D01*
X40774Y9432D01*
X41014D01*
X41234Y9524D01*
X41403Y9693D01*
X41495Y9913D01*
Y10153D01*
X41403Y10373D01*
X41234Y10542D01*
X41014Y10634D01*
X40774D01*
X40554Y10542D01*
X40384Y10373D01*
X40312Y10198D01*
X40185Y10223D01*
Y13318D01*
X41904D01*
X41921Y13191D01*
X41901Y13185D01*
X41596Y13009D01*
X41347Y12760D01*
X41171Y12455D01*
X41079Y12114D01*
Y11762D01*
X41171Y11421D01*
X41347Y11116D01*
X41596Y10867D01*
X41901Y10691D01*
X42242Y10599D01*
X42594D01*
X42935Y10691D01*
X43240Y10867D01*
X43489Y11116D01*
X43665Y11421D01*
X43757Y11762D01*
Y12114D01*
X43665Y12455D01*
X43489Y12760D01*
X43240Y13009D01*
X42935Y13185D01*
X42915Y13191D01*
X42932Y13318D01*
X43859D01*
X43880Y13296D01*
X44055Y13224D01*
X44245D01*
X44420Y13296D01*
X44554Y13430D01*
X44626Y13605D01*
Y13795D01*
X44554Y13970D01*
X44420Y14104D01*
X44245Y14176D01*
X44055D01*
X43880Y14104D01*
X43746Y13970D01*
X43731Y13931D01*
X43280D01*
X43256Y14058D01*
X43489Y14291D01*
X43665Y14596D01*
X43757Y14937D01*
Y15289D01*
X43665Y15630D01*
X43489Y15935D01*
X43240Y16184D01*
X42935Y16360D01*
X42594Y16451D01*
X42242D01*
X41901Y16360D01*
X41596Y16184D01*
X41347Y15935D01*
X41171Y15630D01*
X41079Y15289D01*
Y14937D01*
X41171Y14596D01*
X41347Y14291D01*
X41580Y14058D01*
X41556Y13931D01*
X38200D01*
X38176Y14058D01*
X38409Y14291D01*
X38585Y14596D01*
X38676Y14937D01*
Y15289D01*
X38585Y15630D01*
X38409Y15935D01*
X38160Y16184D01*
X37855Y16360D01*
X37514Y16451D01*
X37162D01*
X36821Y16360D01*
X36748Y16318D01*
X36647Y16407D01*
X36671Y16463D01*
Y16653D01*
X36599Y16828D01*
X36465Y16962D01*
X36290Y17034D01*
X36100D01*
X35925Y16962D01*
X35805Y16841D01*
X35514D01*
X34964Y17392D01*
X35016Y17519D01*
X45217D01*
X45244Y17492D01*
Y17424D01*
X45316Y17249D01*
X45413Y17153D01*
Y8059D01*
X42621D01*
Y5773D01*
X42621Y5657D01*
X42621Y5530D01*
Y3244D01*
X46923D01*
Y4162D01*
X49676D01*
X49784Y4183D01*
X49876Y4245D01*
X55189Y9557D01*
X55359D01*
X55534Y9629D01*
X55668Y9763D01*
X55740Y9938D01*
Y10128D01*
X55668Y10303D01*
X55534Y10437D01*
X55359Y10509D01*
X55169D01*
X54994Y10437D01*
X54860Y10303D01*
X54788Y10128D01*
Y9958D01*
X49559Y4728D01*
X46923D01*
Y5530D01*
X46923Y5646D01*
X46923Y5773D01*
Y8059D01*
X46027D01*
Y17153D01*
X46124Y17249D01*
X46196Y17424D01*
Y17614D01*
X46124Y17789D01*
X46010Y17903D01*
X46031Y17997D01*
X46049Y18030D01*
X46201D01*
X46205Y18018D01*
X46339Y17884D01*
X46514Y17812D01*
X46704D01*
X46879Y17884D01*
X47013Y18018D01*
X47085Y18193D01*
Y18383D01*
X47013Y18558D01*
X46879Y18692D01*
X46704Y18764D01*
X46514D01*
X46339Y18692D01*
X46244Y18596D01*
X35170D01*
X31287Y22480D01*
X31195Y22541D01*
X31086Y22563D01*
X30670D01*
X29686Y23547D01*
Y23717D01*
X29614Y23892D01*
X29480Y24026D01*
X29305Y24098D01*
D02*
G37*
G36*
X60816Y20897D02*
X60626D01*
X60451Y20825D01*
X60355Y20728D01*
X58886D01*
X58769Y20705D01*
X58669Y20638D01*
X55497Y17466D01*
X55361D01*
X55186Y17394D01*
X55052Y17260D01*
X55036Y17223D01*
X54956Y17207D01*
X54856Y17140D01*
X50383Y12667D01*
X50316Y12567D01*
X50293Y12450D01*
Y12199D01*
X50196Y12103D01*
X50124Y11928D01*
Y11738D01*
X50196Y11564D01*
X50330Y11430D01*
X50505Y11357D01*
X50695D01*
X50870Y11430D01*
X51004Y11564D01*
X51076Y11738D01*
Y11928D01*
X51004Y12103D01*
X50907Y12199D01*
Y12323D01*
X55178Y16594D01*
X55186Y16587D01*
X55361Y16514D01*
X55550D01*
X55725Y16587D01*
X55859Y16720D01*
X55931Y16895D01*
Y17032D01*
X59013Y20114D01*
X60355D01*
X60451Y20017D01*
X60626Y19945D01*
X60816D01*
X60991Y20017D01*
X61124Y20151D01*
X61197Y20326D01*
Y20516D01*
X61124Y20691D01*
X60991Y20825D01*
X60816Y20897D01*
D02*
G37*
G36*
X53031D02*
X52842D01*
X52667Y20825D01*
X52533Y20691D01*
X52461Y20516D01*
Y20326D01*
X52465Y20316D01*
X51683Y19533D01*
X37093D01*
X36973Y19654D01*
X36798Y19726D01*
X36608D01*
X36433Y19654D01*
X36299Y19520D01*
X36227Y19345D01*
Y19155D01*
X36299Y18980D01*
X36433Y18846D01*
X36608Y18774D01*
X36798D01*
X36973Y18846D01*
X37093Y18967D01*
X51800D01*
X51908Y18988D01*
X52000Y19050D01*
X52896Y19945D01*
X53031D01*
X53206Y20017D01*
X53340Y20151D01*
X53413Y20326D01*
Y20516D01*
X53340Y20691D01*
X53206Y20825D01*
X53031Y20897D01*
D02*
G37*
G36*
X6720Y26076D02*
X6530D01*
X6355Y26004D01*
X6221Y25870D01*
X6149Y25695D01*
Y25525D01*
X5625Y25000D01*
X5563Y24908D01*
X5542Y24800D01*
Y21386D01*
X5563Y21278D01*
X5625Y21186D01*
X10653Y16157D01*
X10745Y16096D01*
X10854Y16074D01*
X21999D01*
X22087Y15986D01*
X22262Y15913D01*
X22452D01*
X22627Y15986D01*
X22761Y16120D01*
X22821Y16266D01*
X22950Y16316D01*
X23232Y16034D01*
X23324Y15973D01*
X23432Y15951D01*
X24615D01*
X24626Y15924D01*
X24760Y15790D01*
X24935Y15717D01*
X25124D01*
X25299Y15790D01*
X25433Y15924D01*
X25506Y16099D01*
Y16288D01*
X25433Y16463D01*
X25299Y16597D01*
X25124Y16670D01*
X24935D01*
X24760Y16597D01*
X24681Y16518D01*
X23687D01*
X23662Y16645D01*
X23765Y16688D01*
X23898Y16822D01*
X23971Y16996D01*
Y17186D01*
X23898Y17361D01*
X23765Y17495D01*
X23590Y17567D01*
X23400D01*
X23329Y17538D01*
X23197Y17669D01*
X23106Y17730D01*
X22997Y17752D01*
X11040D01*
X10718Y18074D01*
X10766Y18192D01*
X26485D01*
X26605Y18071D01*
X26780Y17999D01*
X26970D01*
X27145Y18071D01*
X27279Y18205D01*
X27351Y18380D01*
Y18570D01*
X27279Y18745D01*
X27145Y18879D01*
X26970Y18951D01*
X26780D01*
X26605Y18879D01*
X26485Y18758D01*
X23058D01*
X22989Y18885D01*
X23040Y19008D01*
Y19198D01*
X22967Y19373D01*
X22847Y19493D01*
Y21352D01*
X22826Y21461D01*
X22764Y21553D01*
X20899Y23417D01*
X20807Y23479D01*
X20699Y23500D01*
X9263D01*
X9143Y23621D01*
X8968Y23693D01*
X8779D01*
X8604Y23621D01*
X8470Y23487D01*
X8398Y23312D01*
Y23122D01*
X8470Y22947D01*
X8604Y22813D01*
X8779Y22741D01*
X8968D01*
X9143Y22813D01*
X9263Y22934D01*
X20582D01*
X21437Y22078D01*
X21382Y21954D01*
X21261D01*
X20969Y22246D01*
X20877Y22307D01*
X20768Y22329D01*
X9433D01*
X9398Y22365D01*
X9223Y22437D01*
X9033D01*
X8858Y22365D01*
X8724Y22231D01*
X8652Y22056D01*
Y21866D01*
X8724Y21691D01*
X8858Y21557D01*
X9033Y21485D01*
X9223D01*
X9398Y21557D01*
X9532Y21691D01*
X9561Y21762D01*
X20651D01*
X20860Y21553D01*
Y21383D01*
X20932Y21208D01*
X21066Y21074D01*
X21241Y21002D01*
X21431D01*
X21606Y21074D01*
X21740Y21208D01*
X21812Y21383D01*
Y21524D01*
X21936Y21579D01*
X22280Y21235D01*
Y19493D01*
X22160Y19373D01*
X22088Y19198D01*
Y19008D01*
X22139Y18885D01*
X22069Y18758D01*
X10606D01*
X7863Y21502D01*
Y22197D01*
X7877Y22202D01*
X8011Y22336D01*
X8083Y22511D01*
Y22700D01*
X8011Y22875D01*
X7877Y23009D01*
X7702Y23082D01*
X7608D01*
X7511Y23088D01*
X7487Y23199D01*
Y23455D01*
X7607Y23575D01*
X7679Y23750D01*
Y23940D01*
X7607Y24115D01*
X7473Y24249D01*
X7426Y24268D01*
X7396Y24418D01*
X7459Y24480D01*
X7531Y24655D01*
Y24845D01*
X7459Y25020D01*
X7325Y25154D01*
X7150Y25226D01*
X7104D01*
X7072Y25270D01*
X7038Y25353D01*
X7101Y25505D01*
Y25695D01*
X7029Y25870D01*
X6895Y26004D01*
X6720Y26076D01*
D02*
G37*
G36*
X39998Y15714D02*
X39758D01*
X39538Y15623D01*
X39368Y15453D01*
X39277Y15233D01*
Y14993D01*
X39368Y14773D01*
X39538Y14604D01*
X39758Y14512D01*
X39998D01*
X40218Y14604D01*
X40388Y14773D01*
X40479Y14993D01*
Y15233D01*
X40388Y15453D01*
X40218Y15623D01*
X39998Y15714D01*
D02*
G37*
G36*
X37433Y9501D02*
X37243D01*
X37068Y9429D01*
X36941Y9301D01*
X33249D01*
X33142Y9408D01*
X32967Y9480D01*
X32778D01*
X32603Y9408D01*
X32469Y9274D01*
X32396Y9099D01*
Y8910D01*
X32469Y8735D01*
X32603Y8601D01*
X32778Y8528D01*
X32967D01*
X33142Y8601D01*
X33276Y8735D01*
X36955D01*
X37068Y8621D01*
X37243Y8549D01*
X37433D01*
X37608Y8621D01*
X37742Y8755D01*
X37814Y8930D01*
Y9120D01*
X37742Y9295D01*
X37608Y9429D01*
X37433Y9501D01*
D02*
G37*
G36*
X18725Y7425D02*
X16625D01*
Y6275D01*
X18725D01*
Y7425D01*
D02*
G37*
G36*
X16425D02*
X14325D01*
Y6275D01*
X16425D01*
Y7425D01*
D02*
G37*
G36*
X57338Y8229D02*
X56362D01*
X56113Y8179D01*
X55902Y8038D01*
X55761Y7827D01*
X55711Y7577D01*
Y6602D01*
X55761Y6353D01*
X55902Y6142D01*
X56113Y6001D01*
X56362Y5951D01*
X57338D01*
X57587Y6001D01*
X57798Y6142D01*
X57939Y6353D01*
X57989Y6602D01*
Y7577D01*
X57939Y7827D01*
X57798Y8038D01*
X57587Y8179D01*
X57338Y8229D01*
D02*
G37*
G36*
X18725Y6075D02*
X16625D01*
Y4925D01*
X18725D01*
Y6075D01*
D02*
G37*
G36*
X16425D02*
X14325D01*
Y4925D01*
X16425D01*
Y6075D01*
D02*
G37*
G36*
X57005Y5725D02*
X56950D01*
Y4650D01*
X58025D01*
Y4705D01*
X57945Y5004D01*
X57790Y5271D01*
X57571Y5490D01*
X57304Y5645D01*
X57005Y5725D01*
D02*
G37*
G36*
X56750D02*
X56695D01*
X56396Y5645D01*
X56129Y5490D01*
X55910Y5271D01*
X55755Y5004D01*
X55675Y4705D01*
Y4650D01*
X56750D01*
Y5725D01*
D02*
G37*
G36*
X56850Y4550D02*
D01*
D01*
D01*
D02*
G37*
G36*
X58025Y4450D02*
X56950D01*
Y3375D01*
X57005D01*
X57304Y3455D01*
X57571Y3610D01*
X57790Y3829D01*
X57945Y4096D01*
X58025Y4395D01*
Y4450D01*
D02*
G37*
G36*
X56750D02*
X55675D01*
Y4395D01*
X55755Y4096D01*
X55910Y3829D01*
X56129Y3610D01*
X56396Y3455D01*
X56695Y3375D01*
X56750D01*
Y4450D01*
D02*
G37*
%LPD*%
D10*
X44772Y4445D02*
D03*
Y6858D02*
D03*
X16525Y6175D02*
D03*
D11*
X39350Y5600D02*
D03*
D12*
X20900Y41650D02*
D03*
Y39300D02*
D03*
D13*
X55073Y16923D02*
X55388D01*
X50600Y11833D02*
Y12450D01*
X55073Y16923D01*
X55388D02*
X58886Y20421D01*
X14962Y27912D02*
X22850D01*
X58886Y20421D02*
X60721D01*
X10888Y27912D02*
X14962D01*
X15000Y27950D01*
X30909Y21851D02*
X34935Y17826D01*
X45651Y17519D02*
X45720D01*
X45344Y17826D02*
X45651Y17519D01*
X34935Y17826D02*
X45344D01*
X29655Y21851D02*
X30909D01*
X29578Y21928D02*
X29655Y21851D01*
X27095Y12781D02*
X36076D01*
X36919Y13625D01*
X26675Y13201D02*
X27095Y12781D01*
X39350Y5600D02*
Y9459D01*
X39878Y13625D02*
X44075D01*
X36919D02*
X39878D01*
X39350Y9459D02*
X39878Y9987D01*
Y13625D01*
X44075D02*
X44150Y13700D01*
X4515Y34285D02*
Y39300D01*
Y34285D02*
X10888Y27912D01*
X43785Y38215D02*
Y39625D01*
X45074Y30233D02*
Y36926D01*
X43785Y38215D02*
X45074Y36926D01*
X44772Y6858D02*
X44820D01*
X45720Y7758D01*
Y17519D01*
D14*
X35667Y21095D02*
X36974D01*
X32545Y24217D02*
X35667Y21095D01*
X32545Y24217D02*
Y38409D01*
X35615Y21928D02*
X35778Y21765D01*
X35850D01*
X35881Y21729D02*
X36161Y22009D01*
X52535D01*
X35615Y21928D02*
X35814D01*
X36735Y22580D02*
X51936D01*
X36703Y22612D02*
X36735Y22580D01*
X52884Y21425D02*
X53594Y22135D01*
X37304Y21425D02*
X52884D01*
X36974Y21095D02*
X37304Y21425D01*
X52535Y22009D02*
X52554Y22028D01*
X53594Y22135D02*
Y22860D01*
X51936Y22580D02*
X55264Y25908D01*
X37404Y23241D02*
X51816D01*
X37395Y23250D02*
X37404Y23241D01*
X44772Y4445D02*
X49676D01*
X55264Y10033D01*
X6952Y21439D02*
Y22838D01*
X10923Y17468D02*
X22997D01*
X6952Y21439D02*
X10923Y17468D01*
X23374Y17091D02*
X23495D01*
X22997Y17468D02*
X23374Y17091D01*
X6952Y22838D02*
X7203Y23090D01*
Y23845D01*
X22564Y19103D02*
Y21352D01*
X20699Y23217D02*
X22564Y21352D01*
X8874Y23217D02*
X20699D01*
X32950Y24593D02*
Y39750D01*
Y24593D02*
X35534Y22009D01*
X32175Y38779D02*
Y38900D01*
Y38779D02*
X32545Y38409D01*
X27256Y23101D02*
Y30394D01*
X16600Y41050D02*
X27256Y30394D01*
X20900Y37603D02*
X27421Y31082D01*
X20900Y37603D02*
Y39300D01*
X10854Y16358D02*
X22326D01*
X5825Y21386D02*
Y24800D01*
Y21386D02*
X10854Y16358D01*
X7580Y21384D02*
Y22578D01*
X10489Y18475D02*
X26875D01*
X10746Y17040D02*
X22627D01*
X6500Y21287D02*
X10746Y17040D01*
X7580Y21384D02*
X10489Y18475D01*
X6500Y21287D02*
Y24195D01*
X29210Y23622D02*
X30553Y22279D01*
X31086D02*
X35053Y18313D01*
X30553Y22279D02*
X31086D01*
X30121Y21090D02*
X30865D01*
X35397Y16558D02*
X36195D01*
X30865Y21090D02*
X35397Y16558D01*
X30749Y18650D02*
X35673Y13727D01*
X35930D02*
X36016Y13641D01*
X35673Y13727D02*
X35930D01*
X7580Y22578D02*
X7607Y22606D01*
X6500Y24195D02*
X7055Y24750D01*
X9128Y21961D02*
X9212Y22045D01*
X20768D01*
X25266Y12153D02*
X25277Y12142D01*
X29657D02*
X29668Y12130D01*
X25277Y12142D02*
X29657D01*
X20768Y22045D02*
X21336Y21478D01*
X32886Y9018D02*
X37331D01*
X32872Y9004D02*
X32886Y9018D01*
X5825Y24800D02*
X6625Y25600D01*
X37331Y9018D02*
X37338Y9025D01*
X52937Y20387D02*
Y20421D01*
X51800Y19250D02*
X52937Y20387D01*
X36703Y19250D02*
X51800D01*
X24989Y16235D02*
X25030Y16194D01*
X22627Y17040D02*
X23432Y16235D01*
X24989D01*
X22326Y16358D02*
X22357Y16389D01*
X55118Y26543D02*
X58066D01*
X58083Y26526D01*
X26550Y22250D02*
Y29425D01*
X16732Y39243D02*
X26550Y29425D01*
X35053Y18313D02*
X46584D01*
X46609Y18288D01*
X51816Y23241D02*
X55118Y26543D01*
X55264Y25908D02*
X56515D01*
D15*
X56850Y7090D02*
D03*
D16*
Y4550D02*
D03*
X9595Y39300D02*
D03*
X4515D02*
D03*
X7055D02*
D03*
D17*
X40894Y10033D02*
D03*
X38862D02*
D03*
X39878Y15113D02*
D03*
D18*
X37338D02*
D03*
Y11938D02*
D03*
X42418D02*
D03*
Y15113D02*
D03*
D19*
X1975Y39300D02*
D03*
D20*
X41245Y39625D02*
D03*
X38705D02*
D03*
X36165D02*
D03*
D21*
X43785D02*
D03*
D22*
X55455Y16990D02*
D03*
X35850Y21765D02*
D03*
X36703Y22612D02*
D03*
X52554Y22028D02*
D03*
X53594Y22860D02*
D03*
X37395Y23250D02*
D03*
X37338Y9025D02*
D03*
X7203Y23845D02*
D03*
X23495Y17091D02*
D03*
X8874Y23217D02*
D03*
X22564Y19103D02*
D03*
X36957Y21095D02*
D03*
X27421Y31082D02*
D03*
X15000Y27950D02*
D03*
X29578Y21928D02*
D03*
X30749Y18650D02*
D03*
X30121Y21090D02*
D03*
X7607Y22606D02*
D03*
X7055Y24750D02*
D03*
X9128Y21961D02*
D03*
X50600Y11833D02*
D03*
X25266Y12153D02*
D03*
X29668Y12130D02*
D03*
X26675Y13201D02*
D03*
X32872Y9004D02*
D03*
X36016Y13641D02*
D03*
X44150Y13700D02*
D03*
X22850Y27912D02*
D03*
X6625Y25600D02*
D03*
X60721Y20421D02*
D03*
X52937D02*
D03*
X22357Y16389D02*
D03*
X58083Y26526D02*
D03*
X25030Y16194D02*
D03*
X45074Y30233D02*
D03*
X36703Y19250D02*
D03*
X26875Y18475D02*
D03*
X21336Y21478D02*
D03*
X36195Y16558D02*
D03*
X26550Y22250D02*
D03*
X27256Y23101D02*
D03*
X29210Y23622D02*
D03*
X55264Y10033D02*
D03*
X56515Y25908D02*
D03*
X45720Y17519D02*
D03*
X46609Y18288D02*
D03*
D23*
X13574Y34813D02*
D03*
X31917Y34596D02*
D03*
X28727Y26944D02*
D03*
X18452Y19144D02*
D03*
X49603Y18257D02*
D03*
X22554Y14319D02*
D03*
X20402Y32394D02*
D03*
X28402Y32919D02*
D03*
X41172Y32713D02*
D03*
X34627Y32744D02*
D03*
X8614Y34254D02*
D03*
X4104Y24164D02*
D03*
X4177Y32494D02*
D03*
X22253Y9127D02*
D03*
X35377Y24119D02*
D03*
X35741Y27394D02*
D03*
X23360Y31627D02*
D03*
X21403Y28573D02*
D03*
X23305Y11825D02*
D03*
X28243Y9158D02*
D03*
X31743Y12130D02*
D03*
X19111Y25088D02*
D03*
X35234Y12087D02*
D03*
X57487Y13134D02*
D03*
X8687Y27134D02*
D03*
X24662Y24962D02*
D03*
X32950Y39750D02*
D03*
X32175Y38900D02*
D03*
X16732Y39243D02*
D03*
X16600Y41050D02*
D03*
%TF.MD5,bd38a3a0e3d838d36c7ab0771eaeb633*%
M02*
