%TF.GenerationSoftware,Altium Limited,Altium Designer,23.6.0 (18)*%
G04 Layer_Color=8388736*
%FSLAX43Y43*%
%MOMM*%
%TF.SameCoordinates,6C6526E1-C053-4265-BDC0-CB623CBAD704*%
%TF.FilePolarity,Negative*%
%TF.FileFunction,Soldermask,Top*%
%TF.Part,Single*%
G01*
G75*
%TA.AperFunction,SMDPad,CuDef*%
%ADD10R,4.000X2.100*%
%ADD11R,2.100X4.000*%
G04:AMPARAMS|DCode=12|XSize=1.25mm|YSize=1.1mm|CornerRadius=0.275mm|HoleSize=0mm|Usage=FLASHONLY|Rotation=270.000|XOffset=0mm|YOffset=0mm|HoleType=Round|Shape=RoundedRectangle|*
%AMROUNDEDRECTD12*
21,1,1.250,0.550,0,0,270.0*
21,1,0.700,1.100,0,0,270.0*
1,1,0.550,-0.275,-0.350*
1,1,0.550,-0.275,0.350*
1,1,0.550,0.275,0.350*
1,1,0.550,0.275,-0.350*
%
%ADD12ROUNDEDRECTD12*%
%TA.AperFunction,ComponentPad*%
G04:AMPARAMS|DCode=15|XSize=1.95mm|YSize=1.95mm|CornerRadius=0.488mm|HoleSize=0mm|Usage=FLASHONLY|Rotation=270.000|XOffset=0mm|YOffset=0mm|HoleType=Round|Shape=RoundedRectangle|*
%AMROUNDEDRECTD15*
21,1,1.950,0.975,0,0,270.0*
21,1,0.975,1.950,0,0,270.0*
1,1,0.975,-0.488,-0.488*
1,1,0.975,-0.488,0.488*
1,1,0.975,0.488,0.488*
1,1,0.975,0.488,-0.488*
%
%ADD15ROUNDEDRECTD15*%
%ADD16C,1.950*%
%ADD17C,0.850*%
%ADD18C,2.375*%
G04:AMPARAMS|DCode=19|XSize=1.95mm|YSize=1.95mm|CornerRadius=0.488mm|HoleSize=0mm|Usage=FLASHONLY|Rotation=0.000|XOffset=0mm|YOffset=0mm|HoleType=Round|Shape=RoundedRectangle|*
%AMROUNDEDRECTD19*
21,1,1.950,0.975,0,0,0.0*
21,1,0.975,1.950,0,0,0.0*
1,1,0.975,0.488,-0.488*
1,1,0.975,-0.488,-0.488*
1,1,0.975,-0.488,0.488*
1,1,0.975,0.488,0.488*
%
%ADD19ROUNDEDRECTD19*%
%ADD20C,1.600*%
G04:AMPARAMS|DCode=21|XSize=1.6mm|YSize=1.6mm|CornerRadius=0.4mm|HoleSize=0mm|Usage=FLASHONLY|Rotation=180.000|XOffset=0mm|YOffset=0mm|HoleType=Round|Shape=RoundedRectangle|*
%AMROUNDEDRECTD21*
21,1,1.600,0.800,0,0,180.0*
21,1,0.800,1.600,0,0,180.0*
1,1,0.800,-0.400,0.400*
1,1,0.800,0.400,0.400*
1,1,0.800,0.400,-0.400*
1,1,0.800,-0.400,-0.400*
%
%ADD21ROUNDEDRECTD21*%
D10*
X44772Y4445D02*
D03*
Y6858D02*
D03*
X16525Y6175D02*
D03*
D11*
X39350Y5600D02*
D03*
D12*
X20900Y41650D02*
D03*
Y39300D02*
D03*
D15*
X56850Y7090D02*
D03*
D16*
Y4550D02*
D03*
X9595Y39300D02*
D03*
X4515D02*
D03*
X7055D02*
D03*
D17*
X40894Y10033D02*
D03*
X38862D02*
D03*
X39878Y15113D02*
D03*
D18*
X37338D02*
D03*
Y11938D02*
D03*
X42418D02*
D03*
Y15113D02*
D03*
D19*
X1975Y39300D02*
D03*
D20*
X41245Y39625D02*
D03*
X38705D02*
D03*
X36165D02*
D03*
D21*
X43785D02*
D03*
%TF.MD5,9f7a52a0e735086404bea4853b3cfe4c*%
M02*
