%TF.GenerationSoftware,Altium Limited,Altium Designer,23.6.0 (18)*%
G04 Layer_Color=16711935*
%FSLAX43Y43*%
%MOMM*%
%TF.SameCoordinates,6C6526E1-C053-4265-BDC0-CB623CBAD704*%
%TF.FilePolarity,Negative*%
%TF.FileFunction,Soldermask,Bot*%
%TF.Part,Single*%
G01*
G75*
%TA.AperFunction,SMDPad,CuDef*%
%ADD10R,4.000X2.100*%
%ADD11R,2.100X4.000*%
%TA.AperFunction,ComponentPad*%
G04:AMPARAMS|DCode=15|XSize=1.95mm|YSize=1.95mm|CornerRadius=0.488mm|HoleSize=0mm|Usage=FLASHONLY|Rotation=270.000|XOffset=0mm|YOffset=0mm|HoleType=Round|Shape=RoundedRectangle|*
%AMROUNDEDRECTD15*
21,1,1.950,0.975,0,0,270.0*
21,1,0.975,1.950,0,0,270.0*
1,1,0.975,-0.488,-0.488*
1,1,0.975,-0.488,0.488*
1,1,0.975,0.488,0.488*
1,1,0.975,0.488,-0.488*
%
%ADD15ROUNDEDRECTD15*%
%ADD16C,1.950*%
%ADD17C,0.850*%
%ADD18C,2.375*%
G04:AMPARAMS|DCode=19|XSize=1.95mm|YSize=1.95mm|CornerRadius=0.488mm|HoleSize=0mm|Usage=FLASHONLY|Rotation=0.000|XOffset=0mm|YOffset=0mm|HoleType=Round|Shape=RoundedRectangle|*
%AMROUNDEDRECTD19*
21,1,1.950,0.975,0,0,0.0*
21,1,0.975,1.950,0,0,0.0*
1,1,0.975,0.488,-0.488*
1,1,0.975,-0.488,-0.488*
1,1,0.975,-0.488,0.488*
1,1,0.975,0.488,0.488*
%
%ADD19ROUNDEDRECTD19*%
%ADD20C,1.600*%
G04:AMPARAMS|DCode=21|XSize=1.6mm|YSize=1.6mm|CornerRadius=0.4mm|HoleSize=0mm|Usage=FLASHONLY|Rotation=180.000|XOffset=0mm|YOffset=0mm|HoleType=Round|Shape=RoundedRectangle|*
%AMROUNDEDRECTD21*
21,1,1.600,0.800,0,0,180.0*
21,1,0.800,1.600,0,0,180.0*
1,1,0.800,-0.400,0.400*
1,1,0.800,0.400,0.400*
1,1,0.800,0.400,-0.400*
1,1,0.800,-0.400,-0.400*
%
%ADD21ROUNDEDRECTD21*%
%TA.AperFunction,SMDPad,CuDef*%
G04:AMPARAMS|DCode=24|XSize=1.524mm|YSize=0.578mm|CornerRadius=0.289mm|HoleSize=0mm|Usage=FLASHONLY|Rotation=270.000|XOffset=0mm|YOffset=0mm|HoleType=Round|Shape=RoundedRectangle|*
%AMROUNDEDRECTD24*
21,1,1.524,0.000,0,0,270.0*
21,1,0.946,0.578,0,0,270.0*
1,1,0.578,0.000,-0.473*
1,1,0.578,0.000,0.473*
1,1,0.578,0.000,0.473*
1,1,0.578,0.000,-0.473*
%
%ADD24ROUNDEDRECTD24*%
%ADD25R,0.578X1.524*%
%ADD26R,2.300X1.500*%
%ADD27R,3.000X2.700*%
%ADD28R,1.200X0.300*%
G04:AMPARAMS|DCode=29|XSize=1.194mm|YSize=0.305mm|CornerRadius=0.076mm|HoleSize=0mm|Usage=FLASHONLY|Rotation=90.000|XOffset=0mm|YOffset=0mm|HoleType=Round|Shape=RoundedRectangle|*
%AMROUNDEDRECTD29*
21,1,1.194,0.152,0,0,90.0*
21,1,1.041,0.305,0,0,90.0*
1,1,0.152,0.076,0.521*
1,1,0.152,0.076,-0.521*
1,1,0.152,-0.076,-0.521*
1,1,0.152,-0.076,0.521*
%
%ADD29ROUNDEDRECTD29*%
G04:AMPARAMS|DCode=30|XSize=1.194mm|YSize=0.305mm|CornerRadius=0.076mm|HoleSize=0mm|Usage=FLASHONLY|Rotation=0.000|XOffset=0mm|YOffset=0mm|HoleType=Round|Shape=RoundedRectangle|*
%AMROUNDEDRECTD30*
21,1,1.194,0.152,0,0,0.0*
21,1,1.041,0.305,0,0,0.0*
1,1,0.152,0.521,-0.076*
1,1,0.152,-0.521,-0.076*
1,1,0.152,-0.521,0.076*
1,1,0.152,0.521,0.076*
%
%ADD30ROUNDEDRECTD30*%
%TA.AperFunction,ConnectorPad*%
%ADD31R,0.900X1.500*%
%TA.AperFunction,BGAPad,CuDef*%
%ADD32R,0.700X0.700*%
%TA.AperFunction,SMDPad,CuDef*%
%ADD33R,0.900X1.300*%
G04:AMPARAMS|DCode=34|XSize=0.4mm|YSize=0.65mm|CornerRadius=0.1mm|HoleSize=0mm|Usage=FLASHONLY|Rotation=0.000|XOffset=0mm|YOffset=0mm|HoleType=Round|Shape=RoundedRectangle|*
%AMROUNDEDRECTD34*
21,1,0.400,0.450,0,0,0.0*
21,1,0.200,0.650,0,0,0.0*
1,1,0.200,0.100,-0.225*
1,1,0.200,-0.100,-0.225*
1,1,0.200,-0.100,0.225*
1,1,0.200,0.100,0.225*
%
%ADD34ROUNDEDRECTD34*%
%TA.AperFunction,BGAPad,CuDef*%
%ADD35C,0.800*%
%TA.AperFunction,SMDPad,CuDef*%
%ADD36R,1.360X0.950*%
%ADD37R,5.600X2.100*%
%ADD38R,0.950X1.360*%
%ADD39R,3.700X1.200*%
G04:AMPARAMS|DCode=40|XSize=1mm|YSize=0.7mm|CornerRadius=0.14mm|HoleSize=0mm|Usage=FLASHONLY|Rotation=180.000|XOffset=0mm|YOffset=0mm|HoleType=Round|Shape=RoundedRectangle|*
%AMROUNDEDRECTD40*
21,1,1.000,0.420,0,0,180.0*
21,1,0.720,0.700,0,0,180.0*
1,1,0.280,-0.360,0.210*
1,1,0.280,0.360,0.210*
1,1,0.280,0.360,-0.210*
1,1,0.280,-0.360,-0.210*
%
%ADD40ROUNDEDRECTD40*%
%ADD41R,1.205X0.436*%
G04:AMPARAMS|DCode=42|XSize=1.205mm|YSize=0.436mm|CornerRadius=0.218mm|HoleSize=0mm|Usage=FLASHONLY|Rotation=180.000|XOffset=0mm|YOffset=0mm|HoleType=Round|Shape=RoundedRectangle|*
%AMROUNDEDRECTD42*
21,1,1.205,0.000,0,0,180.0*
21,1,0.769,0.436,0,0,180.0*
1,1,0.436,-0.385,0.000*
1,1,0.436,0.385,0.000*
1,1,0.436,0.385,0.000*
1,1,0.436,-0.385,0.000*
%
%ADD42ROUNDEDRECTD42*%
%ADD43R,1.300X0.900*%
%ADD44R,0.910X1.220*%
%ADD45R,0.559X0.648*%
G04:AMPARAMS|DCode=46|XSize=0.4mm|YSize=0.5mm|CornerRadius=0.1mm|HoleSize=0mm|Usage=FLASHONLY|Rotation=0.000|XOffset=0mm|YOffset=0mm|HoleType=Round|Shape=RoundedRectangle|*
%AMROUNDEDRECTD46*
21,1,0.400,0.300,0,0,0.0*
21,1,0.200,0.500,0,0,0.0*
1,1,0.200,0.100,-0.150*
1,1,0.200,-0.100,-0.150*
1,1,0.200,-0.100,0.150*
1,1,0.200,0.100,0.150*
%
%ADD46ROUNDEDRECTD46*%
G04:AMPARAMS|DCode=47|XSize=0.4mm|YSize=0.5mm|CornerRadius=0.1mm|HoleSize=0mm|Usage=FLASHONLY|Rotation=270.000|XOffset=0mm|YOffset=0mm|HoleType=Round|Shape=RoundedRectangle|*
%AMROUNDEDRECTD47*
21,1,0.400,0.300,0,0,270.0*
21,1,0.200,0.500,0,0,270.0*
1,1,0.200,-0.150,-0.100*
1,1,0.200,-0.150,0.100*
1,1,0.200,0.150,0.100*
1,1,0.200,0.150,-0.100*
%
%ADD47ROUNDEDRECTD47*%
%ADD48R,1.220X0.910*%
G04:AMPARAMS|DCode=49|XSize=1.295mm|YSize=3.607mm|CornerRadius=0.259mm|HoleSize=0mm|Usage=FLASHONLY|Rotation=90.000|XOffset=0mm|YOffset=0mm|HoleType=Round|Shape=RoundedRectangle|*
%AMROUNDEDRECTD49*
21,1,1.295,3.089,0,0,90.0*
21,1,0.777,3.607,0,0,90.0*
1,1,0.518,1.544,0.389*
1,1,0.518,1.544,-0.389*
1,1,0.518,-1.544,-0.389*
1,1,0.518,-1.544,0.389*
%
%ADD49ROUNDEDRECTD49*%
G36*
X41864Y21840D02*
X41864Y21340D01*
X42114Y21090D01*
X41014D01*
Y22090D01*
X42114D01*
X41864Y21840D01*
D02*
G37*
G36*
X43364Y21095D02*
X42746D01*
X42364Y21478D01*
Y21702D01*
X42757Y22095D01*
X43364D01*
Y21095D01*
D02*
G37*
G36*
X61338Y15790D02*
Y15183D01*
X60338D01*
Y15800D01*
X60721Y16183D01*
X60945D01*
X61338Y15790D01*
D02*
G37*
G36*
X61333Y16433D02*
X61083Y16683D01*
X60583Y16683D01*
X60333Y16433D01*
Y17533D01*
X61333D01*
Y16433D01*
D02*
G37*
D10*
X13500Y39243D02*
D03*
X29250Y39102D02*
D03*
X13500Y41656D02*
D03*
X13175Y4625D02*
D03*
X31378Y41656D02*
D03*
D11*
X1600Y9700D02*
D03*
X6800D02*
D03*
X4200D02*
D03*
X9500Y9739D02*
D03*
D15*
X56850Y7090D02*
D03*
D16*
Y4550D02*
D03*
X9595Y39300D02*
D03*
X4515D02*
D03*
X7055D02*
D03*
D17*
X40894Y10033D02*
D03*
X38862D02*
D03*
X39878Y15113D02*
D03*
D18*
X37338D02*
D03*
Y11938D02*
D03*
X42418D02*
D03*
Y15113D02*
D03*
D19*
X1975Y39300D02*
D03*
D20*
X41245Y39625D02*
D03*
X38705D02*
D03*
X36165D02*
D03*
D21*
X43785D02*
D03*
D24*
X49403Y13695D02*
D03*
X50353Y15515D02*
D03*
D25*
X48453D02*
D03*
D26*
X45006Y5334D02*
D03*
X38306D02*
D03*
X36774Y35260D02*
D03*
X43474D02*
D03*
X39068Y25453D02*
D03*
X45768D02*
D03*
D27*
X8700Y15320D02*
D03*
Y30680D02*
D03*
D28*
X10560Y18750D02*
D03*
Y19250D02*
D03*
Y20750D02*
D03*
Y21250D02*
D03*
Y22750D02*
D03*
Y23250D02*
D03*
Y24750D02*
D03*
Y25250D02*
D03*
Y25750D02*
D03*
Y26250D02*
D03*
Y28750D02*
D03*
Y28250D02*
D03*
Y27750D02*
D03*
Y27250D02*
D03*
Y26750D02*
D03*
Y24250D02*
D03*
Y23750D02*
D03*
Y22250D02*
D03*
Y21750D02*
D03*
Y20250D02*
D03*
Y19750D02*
D03*
Y18250D02*
D03*
Y17750D02*
D03*
Y17250D02*
D03*
D29*
X26250Y16750D02*
D03*
X31750D02*
D03*
X31250D02*
D03*
X30750D02*
D03*
X30250D02*
D03*
X29750D02*
D03*
X29250D02*
D03*
X28750D02*
D03*
X28250D02*
D03*
X27750D02*
D03*
X27250D02*
D03*
X26750D02*
D03*
X26250Y25250D02*
D03*
X26750D02*
D03*
X27250D02*
D03*
X27750D02*
D03*
X28250D02*
D03*
X28750D02*
D03*
X29250D02*
D03*
X29750D02*
D03*
X30250D02*
D03*
X30750D02*
D03*
X31250D02*
D03*
X31750D02*
D03*
D30*
X24750Y18750D02*
D03*
X33250Y21250D02*
D03*
Y20750D02*
D03*
X24750Y18250D02*
D03*
Y19250D02*
D03*
Y19750D02*
D03*
Y20250D02*
D03*
Y20750D02*
D03*
Y21250D02*
D03*
Y21750D02*
D03*
Y22250D02*
D03*
Y22750D02*
D03*
Y23250D02*
D03*
Y23750D02*
D03*
X33250D02*
D03*
Y23250D02*
D03*
Y22750D02*
D03*
Y22250D02*
D03*
Y21750D02*
D03*
Y20250D02*
D03*
Y19750D02*
D03*
Y19250D02*
D03*
Y18750D02*
D03*
Y18250D02*
D03*
D31*
X55100Y24450D02*
D03*
X53600D02*
D03*
X61100D02*
D03*
X59600D02*
D03*
X58100D02*
D03*
X56600D02*
D03*
X52100D02*
D03*
X50600D02*
D03*
X49100D02*
D03*
Y41950D02*
D03*
X50600D02*
D03*
X52100D02*
D03*
X53600D02*
D03*
X55100D02*
D03*
X56600D02*
D03*
X58100D02*
D03*
X59600D02*
D03*
X61100D02*
D03*
D32*
X54900Y34160D02*
D03*
Y35260D02*
D03*
Y33060D02*
D03*
X56000D02*
D03*
Y34160D02*
D03*
Y35260D02*
D03*
X53800D02*
D03*
Y34160D02*
D03*
Y33060D02*
D03*
D33*
X14002Y22284D02*
D03*
X16302D02*
D03*
X20550Y23301D02*
D03*
X22850D02*
D03*
X13990Y24112D02*
D03*
X16289D02*
D03*
X20567Y25137D02*
D03*
X22867D02*
D03*
X58591Y11825D02*
D03*
X56291D02*
D03*
X31340Y10795D02*
D03*
X29040D02*
D03*
X16289Y26012D02*
D03*
X13990D02*
D03*
X56971Y22309D02*
D03*
X59271D02*
D03*
X56971Y20421D02*
D03*
X59271D02*
D03*
X13990Y15999D02*
D03*
X16289D02*
D03*
X13990Y14099D02*
D03*
X16289D02*
D03*
X28450Y34950D02*
D03*
X26150D02*
D03*
X13963Y9890D02*
D03*
X16263D02*
D03*
X24375Y14350D02*
D03*
X26675D02*
D03*
X30381D02*
D03*
X28081D02*
D03*
X25266Y10795D02*
D03*
X27566D02*
D03*
X16316Y20525D02*
D03*
X14016D02*
D03*
X13990Y27912D02*
D03*
X16289D02*
D03*
X21717Y12153D02*
D03*
X19417D02*
D03*
X32759Y10795D02*
D03*
X35059D02*
D03*
X13976Y29750D02*
D03*
X16275D02*
D03*
X13953Y31627D02*
D03*
X16253D02*
D03*
D34*
X58591Y18721D02*
D03*
X58191Y17271D02*
D03*
X58991D02*
D03*
D35*
X39243Y11303D02*
D03*
X40513Y13843D02*
D03*
X39243D02*
D03*
X40513Y12573D02*
D03*
Y11303D02*
D03*
X39243Y12573D02*
D03*
D36*
X52578Y15226D02*
D03*
Y13476D02*
D03*
X18150Y36325D02*
D03*
Y38075D02*
D03*
X46581Y33260D02*
D03*
Y31510D02*
D03*
Y37352D02*
D03*
Y39102D02*
D03*
X27250Y28073D02*
D03*
Y29823D02*
D03*
X39624Y21625D02*
D03*
Y19875D02*
D03*
D37*
X23440Y5842D02*
D03*
X32940D02*
D03*
D38*
X46849Y28448D02*
D03*
X45099D02*
D03*
X12075Y34350D02*
D03*
X10325D02*
D03*
X46341Y19667D02*
D03*
X44591D02*
D03*
X46681Y15809D02*
D03*
X44931D02*
D03*
X54339Y17890D02*
D03*
X52589D02*
D03*
X49594Y19667D02*
D03*
X47844D02*
D03*
D39*
X21844Y37468D02*
D03*
Y34668D02*
D03*
D40*
X56392Y15809D02*
D03*
Y14859D02*
D03*
Y13909D02*
D03*
X58591D02*
D03*
Y14859D02*
D03*
Y15809D02*
D03*
D41*
X58685Y9868D02*
D03*
D42*
X56885D02*
D03*
D43*
X54591Y15657D02*
D03*
Y13357D02*
D03*
X38742Y29217D02*
D03*
Y31517D02*
D03*
X36703Y29217D02*
D03*
Y31517D02*
D03*
X32258Y30233D02*
D03*
Y27933D02*
D03*
X30317Y30233D02*
D03*
Y27933D02*
D03*
X34798Y14659D02*
D03*
Y16959D02*
D03*
X21336Y17519D02*
D03*
Y19819D02*
D03*
X45071Y9525D02*
D03*
Y11825D02*
D03*
X46884Y9528D02*
D03*
Y11828D02*
D03*
D44*
X13998Y18122D02*
D03*
X17268D02*
D03*
X13859Y12153D02*
D03*
X17129D02*
D03*
D45*
X16372Y36271D02*
D03*
X15127D02*
D03*
X15750Y34479D02*
D03*
D46*
X41464Y21590D02*
D03*
X42964D02*
D03*
D47*
X60833Y17083D02*
D03*
Y15583D02*
D03*
D48*
X18669Y10525D02*
D03*
Y7255D02*
D03*
D49*
X50600Y5510D02*
D03*
Y10006D02*
D03*
%TF.MD5,e9e271471566a7f5993a080912ba165a*%
M02*
