M48
;Layer_Color=9474304
;FILE_FORMAT=4:3
METRIC,LZ
;TYPE=PLATED
T1F00S00C0.300
T2F00S00C0.350
T3F00S00C1.100
T4F00S00C1.300
;TYPE=NON_PLATED
T5F00S00C0.900
T6F00S00C2.375
%
T01
X0007607Y0022606
X0007203Y0023845
X0007055Y002475
X0006625Y00256
X0008874Y0023217
X0009128Y0021961
X0021336Y0021478
X0022564Y0019103
X0022357Y0016389
X0023495Y0017091
X002503Y0016194
X0026875Y0018475
X002655Y002225
X0027256Y0023101
X0026675Y0013201
X0025266Y0012153
X0029668Y001213
X0032872Y0009004
X0037338Y0009025
X0036016Y0013641
X0036195Y0016558
X0036703Y001925
X0036957Y0021095
X0036703Y0022612
X0037395Y002325
X003585Y0021765
X0030121Y002109
X0029578Y0021928
X002921Y0023622
X0030749Y001865
X004572Y0017519
X0046609Y0018288
X004415Y00137
X00506Y0011833
X0055264Y0010033
X0055455Y001699
X0052937Y0020421
X0052554Y0022028
X0053594Y002286
X0056515Y0025908
X0058083Y0026526
X0060721Y0020421
X0045074Y0030233
X0027421Y0031082
X002285Y0027912
X0015Y002795
T02
X0004104Y0024164
X0008687Y0027134
X0019111Y0025088
X0024662Y0024962
X0018452Y0019144
X0022554Y0014319
X0023305Y0011825
X0022253Y0009127
X0028243Y0009158
X0031743Y001213
X0035234Y0012087
X0035377Y0024119
X0035741Y0027394
X0028727Y0026944
X0049603Y0018257
X0057487Y0013134
X0041172Y0032713
X0034627Y0032744
X0031917Y0034596
X0032175Y00389
X003295Y003975
X0028402Y0032919
X002336Y0031627
X0020402Y0032394
X0021403Y0028573
X0013574Y0034813
X0008614Y0034254
X0004177Y0032494
X0016732Y0039243
X00166Y004105
T03
X0036165Y0039625
X0038705
X0041245
X0043785
T04
X005685Y000455
Y000709
X0009595Y00393
X0007055
X0004515
X0001975
T05
X0038862Y0010033
X0040894
X0039878Y0015113
T06
X0037338Y0011938
Y0015113
X0042418
Y0011938
M30
