%TF.GenerationSoftware,Altium Limited,Altium Designer,23.6.0 (18)*%
G04 Layer_Color=128*
%FSLAX43Y43*%
%MOMM*%
%TF.SameCoordinates,6C6526E1-C053-4265-BDC0-CB623CBAD704*%
%TF.FilePolarity,Positive*%
%TF.FileFunction,Drillmap*%
%TF.Part,Single*%
G01*
G75*
%TA.AperFunction,NonConductor*%
%ADD55C,0.127*%
D55*
X56200Y7090D02*
X57500D01*
X56850Y6440D02*
Y7740D01*
X56200Y4550D02*
X57500D01*
X56850Y3900D02*
Y5200D01*
X40444Y10033D02*
X41344D01*
X40894Y9583D02*
Y10483D01*
X38412Y10033D02*
X39312D01*
X38862Y9583D02*
Y10483D01*
X39428Y15113D02*
X40328D01*
X39878Y14663D02*
Y15563D01*
X36151Y15113D02*
X38526D01*
X37338Y13925D02*
Y16301D01*
X36151Y11938D02*
X38526D01*
X37338Y10750D02*
Y13125D01*
X41230Y11938D02*
X43605D01*
X42418Y10750D02*
Y13125D01*
X41230Y15113D02*
X43605D01*
X42418Y13925D02*
Y16301D01*
X8945Y39300D02*
X10245D01*
X9595Y38650D02*
Y39950D01*
X1325Y39300D02*
X2625D01*
X1975Y38650D02*
Y39950D01*
X3865Y39300D02*
X5165D01*
X4515Y38650D02*
Y39950D01*
X6405Y39300D02*
X7705D01*
X7055Y38650D02*
Y39950D01*
X40695Y39625D02*
X41795D01*
X41245Y39075D02*
Y40175D01*
X43235Y39625D02*
X44335D01*
X43785Y39075D02*
Y40175D01*
X38155Y39625D02*
X39255D01*
X38705Y39075D02*
Y40175D01*
X35615Y39625D02*
X36715D01*
X36165Y39075D02*
Y40175D01*
X55305Y16990D02*
X55605D01*
X55455Y16840D02*
Y17140D01*
X13399Y34813D02*
X13749D01*
X13574Y34638D02*
Y34988D01*
X31742Y34596D02*
X32092D01*
X31917Y34421D02*
Y34771D01*
X28552Y26944D02*
X28902D01*
X28727Y26769D02*
Y27119D01*
X18277Y19144D02*
X18627D01*
X18452Y18969D02*
Y19319D01*
X49428Y18257D02*
X49778D01*
X49603Y18082D02*
Y18432D01*
X22379Y14319D02*
X22729D01*
X22554Y14144D02*
Y14494D01*
X20227Y32394D02*
X20577D01*
X20402Y32219D02*
Y32569D01*
X28227Y32919D02*
X28577D01*
X28402Y32744D02*
Y33094D01*
X40997Y32713D02*
X41347D01*
X41172Y32538D02*
Y32888D01*
X34452Y32744D02*
X34802D01*
X34627Y32569D02*
Y32919D01*
X8439Y34254D02*
X8789D01*
X8614Y34079D02*
Y34429D01*
X3929Y24164D02*
X4279D01*
X4104Y23989D02*
Y24339D01*
X4002Y32494D02*
X4352D01*
X4177Y32319D02*
Y32669D01*
X22078Y9127D02*
X22428D01*
X22253Y8952D02*
Y9302D01*
X35202Y24119D02*
X35552D01*
X35377Y23944D02*
Y24294D01*
X35566Y27394D02*
X35916D01*
X35741Y27219D02*
Y27569D01*
X23185Y31627D02*
X23535D01*
X23360Y31452D02*
Y31802D01*
X21228Y28573D02*
X21578D01*
X21403Y28398D02*
Y28748D01*
X23130Y11825D02*
X23480D01*
X23305Y11650D02*
Y12000D01*
X28068Y9158D02*
X28418D01*
X28243Y8983D02*
Y9333D01*
X31568Y12130D02*
X31918D01*
X31743Y11955D02*
Y12305D01*
X18936Y25088D02*
X19286D01*
X19111Y24913D02*
Y25263D01*
X35059Y12087D02*
X35409D01*
X35234Y11912D02*
Y12262D01*
X57312Y13134D02*
X57662D01*
X57487Y12959D02*
Y13309D01*
X8512Y27134D02*
X8862D01*
X8687Y26959D02*
Y27309D01*
X24487Y24962D02*
X24837D01*
X24662Y24787D02*
Y25137D01*
X35700Y21765D02*
X36000D01*
X35850Y21615D02*
Y21915D01*
X36553Y22612D02*
X36853D01*
X36703Y22462D02*
Y22762D01*
X52404Y22028D02*
X52704D01*
X52554Y21878D02*
Y22178D01*
X53444Y22860D02*
X53744D01*
X53594Y22710D02*
Y23010D01*
X37245Y23250D02*
X37545D01*
X37395Y23100D02*
Y23400D01*
X37188Y9025D02*
X37488D01*
X37338Y8875D02*
Y9175D01*
X7053Y23845D02*
X7353D01*
X7203Y23695D02*
Y23995D01*
X23345Y17091D02*
X23645D01*
X23495Y16941D02*
Y17241D01*
X8724Y23217D02*
X9024D01*
X8874Y23067D02*
Y23367D01*
X22414Y19103D02*
X22714D01*
X22564Y18953D02*
Y19253D01*
X32775Y39750D02*
X33125D01*
X32950Y39575D02*
Y39925D01*
X32000Y38900D02*
X32350D01*
X32175Y38725D02*
Y39075D01*
X36807Y21095D02*
X37107D01*
X36957Y20945D02*
Y21245D01*
X16557Y39243D02*
X16907D01*
X16732Y39068D02*
Y39418D01*
X16425Y41050D02*
X16775D01*
X16600Y40875D02*
Y41225D01*
X27271Y31082D02*
X27571D01*
X27421Y30932D02*
Y31232D01*
X14850Y27950D02*
X15150D01*
X15000Y27800D02*
Y28100D01*
X29428Y21928D02*
X29728D01*
X29578Y21778D02*
Y22078D01*
X30599Y18650D02*
X30899D01*
X30749Y18500D02*
Y18800D01*
X29971Y21090D02*
X30271D01*
X30121Y20940D02*
Y21240D01*
X7457Y22606D02*
X7757D01*
X7607Y22456D02*
Y22756D01*
X6905Y24750D02*
X7205D01*
X7055Y24600D02*
Y24900D01*
X8978Y21961D02*
X9278D01*
X9128Y21811D02*
Y22111D01*
X50450Y11833D02*
X50750D01*
X50600Y11683D02*
Y11983D01*
X25116Y12153D02*
X25416D01*
X25266Y12003D02*
Y12303D01*
X29518Y12130D02*
X29818D01*
X29668Y11980D02*
Y12280D01*
X26525Y13201D02*
X26825D01*
X26675Y13051D02*
Y13351D01*
X32722Y9004D02*
X33022D01*
X32872Y8854D02*
Y9154D01*
X35866Y13641D02*
X36166D01*
X36016Y13491D02*
Y13791D01*
X44000Y13700D02*
X44300D01*
X44150Y13550D02*
Y13850D01*
X22700Y27912D02*
X23000D01*
X22850Y27762D02*
Y28062D01*
X6475Y25600D02*
X6775D01*
X6625Y25450D02*
Y25750D01*
X60571Y20421D02*
X60871D01*
X60721Y20271D02*
Y20571D01*
X52787Y20421D02*
X53087D01*
X52937Y20271D02*
Y20571D01*
X22207Y16389D02*
X22507D01*
X22357Y16239D02*
Y16539D01*
X57933Y26526D02*
X58233D01*
X58083Y26376D02*
Y26676D01*
X24880Y16194D02*
X25180D01*
X25030Y16044D02*
Y16344D01*
X44924Y30233D02*
X45224D01*
X45074Y30083D02*
Y30383D01*
X36553Y19250D02*
X36853D01*
X36703Y19100D02*
Y19400D01*
X26725Y18475D02*
X27025D01*
X26875Y18325D02*
Y18625D01*
X21186Y21478D02*
X21486D01*
X21336Y21328D02*
Y21628D01*
X36045Y16558D02*
X36345D01*
X36195Y16408D02*
Y16708D01*
X26400Y22250D02*
X26700D01*
X26550Y22100D02*
Y22400D01*
X27106Y23101D02*
X27406D01*
X27256Y22951D02*
Y23251D01*
X29060Y23622D02*
X29360D01*
X29210Y23472D02*
Y23772D01*
X55114Y10033D02*
X55414D01*
X55264Y9883D02*
Y10183D01*
X56365Y25908D02*
X56665D01*
X56515Y25758D02*
Y26058D01*
X45570Y17519D02*
X45870D01*
X45720Y17369D02*
Y17669D01*
X46459Y18288D02*
X46759D01*
X46609Y18138D02*
Y18438D01*
%TF.MD5,185a5fa3bbbc13792c7f7628f8ec26a5*%
M02*
