%TF.GenerationSoftware,Altium Limited,Altium Designer,23.6.0 (18)*%
G04 Layer_Color=0*
%FSLAX43Y43*%
%MOMM*%
%TF.SameCoordinates,6C6526E1-C053-4265-BDC0-CB623CBAD704*%
%TF.FilePolarity,Positive*%
%TF.FileFunction,Plated,1,2,PTH,Drill*%
%TF.Part,Single*%
G01*
G75*
%TA.AperFunction,ComponentDrill*%
%ADD59C,1.300*%
%ADD60C,1.300*%
%ADD61C,1.100*%
%TA.AperFunction,ViaDrill,NotFilled*%
%ADD62C,0.300*%
%ADD63C,0.350*%
D59*
X56850Y7090D02*
D03*
Y4550D02*
D03*
D60*
X9595Y39300D02*
D03*
X1975D02*
D03*
X4515D02*
D03*
X7055D02*
D03*
D61*
X41245Y39625D02*
D03*
X43785D02*
D03*
X38705D02*
D03*
X36165D02*
D03*
D62*
X55455Y16990D02*
D03*
X35850Y21765D02*
D03*
X36703Y22612D02*
D03*
X52554Y22028D02*
D03*
X53594Y22860D02*
D03*
X37395Y23250D02*
D03*
X37338Y9025D02*
D03*
X7203Y23845D02*
D03*
X23495Y17091D02*
D03*
X8874Y23217D02*
D03*
X22564Y19103D02*
D03*
X36957Y21095D02*
D03*
X27421Y31082D02*
D03*
X15000Y27950D02*
D03*
X29578Y21928D02*
D03*
X30749Y18650D02*
D03*
X30121Y21090D02*
D03*
X7607Y22606D02*
D03*
X7055Y24750D02*
D03*
X9128Y21961D02*
D03*
X50600Y11833D02*
D03*
X25266Y12153D02*
D03*
X29668Y12130D02*
D03*
X26675Y13201D02*
D03*
X32872Y9004D02*
D03*
X36016Y13641D02*
D03*
X44150Y13700D02*
D03*
X22850Y27912D02*
D03*
X6625Y25600D02*
D03*
X60721Y20421D02*
D03*
X52937D02*
D03*
X22357Y16389D02*
D03*
X58083Y26526D02*
D03*
X25030Y16194D02*
D03*
X45074Y30233D02*
D03*
X36703Y19250D02*
D03*
X26875Y18475D02*
D03*
X21336Y21478D02*
D03*
X36195Y16558D02*
D03*
X26550Y22250D02*
D03*
X27256Y23101D02*
D03*
X29210Y23622D02*
D03*
X55264Y10033D02*
D03*
X56515Y25908D02*
D03*
X45720Y17519D02*
D03*
X46609Y18288D02*
D03*
D63*
X13574Y34813D02*
D03*
X31917Y34596D02*
D03*
X28727Y26944D02*
D03*
X18452Y19144D02*
D03*
X49603Y18257D02*
D03*
X22554Y14319D02*
D03*
X20402Y32394D02*
D03*
X28402Y32919D02*
D03*
X41172Y32713D02*
D03*
X34627Y32744D02*
D03*
X8614Y34254D02*
D03*
X4104Y24164D02*
D03*
X4177Y32494D02*
D03*
X22253Y9127D02*
D03*
X35377Y24119D02*
D03*
X35741Y27394D02*
D03*
X23360Y31627D02*
D03*
X21403Y28573D02*
D03*
X23305Y11825D02*
D03*
X28243Y9158D02*
D03*
X31743Y12130D02*
D03*
X19111Y25088D02*
D03*
X35234Y12087D02*
D03*
X57487Y13134D02*
D03*
X8687Y27134D02*
D03*
X24662Y24962D02*
D03*
X32950Y39750D02*
D03*
X32175Y38900D02*
D03*
X16732Y39243D02*
D03*
X16600Y41050D02*
D03*
%TF.MD5,b57852c53d319aa1174f435a6d816e5b*%
M02*
