%TF.GenerationSoftware,Altium Limited,Altium Designer,23.6.0 (18)*%
G04 Layer_Physical_Order=2*
G04 Layer_Color=16711680*
%FSLAX43Y43*%
%MOMM*%
%TF.SameCoordinates,6C6526E1-C053-4265-BDC0-CB623CBAD704*%
%TF.FilePolarity,Positive*%
%TF.FileFunction,Copper,L2,Bot,Signal*%
%TF.Part,Single*%
G01*
G75*
%TA.AperFunction,SMDPad,CuDef*%
%ADD10R,4.000X2.100*%
%ADD11R,2.100X4.000*%
%TA.AperFunction,Conductor*%
%ADD13C,0.300*%
%ADD14C,0.254*%
%TA.AperFunction,ComponentPad*%
G04:AMPARAMS|DCode=15|XSize=1.95mm|YSize=1.95mm|CornerRadius=0.488mm|HoleSize=0mm|Usage=FLASHONLY|Rotation=270.000|XOffset=0mm|YOffset=0mm|HoleType=Round|Shape=RoundedRectangle|*
%AMROUNDEDRECTD15*
21,1,1.950,0.975,0,0,270.0*
21,1,0.975,1.950,0,0,270.0*
1,1,0.975,-0.488,-0.488*
1,1,0.975,-0.488,0.488*
1,1,0.975,0.488,0.488*
1,1,0.975,0.488,-0.488*
%
%ADD15ROUNDEDRECTD15*%
%ADD16C,1.950*%
%ADD17C,0.850*%
%ADD18C,2.375*%
G04:AMPARAMS|DCode=19|XSize=1.95mm|YSize=1.95mm|CornerRadius=0.488mm|HoleSize=0mm|Usage=FLASHONLY|Rotation=0.000|XOffset=0mm|YOffset=0mm|HoleType=Round|Shape=RoundedRectangle|*
%AMROUNDEDRECTD19*
21,1,1.950,0.975,0,0,0.0*
21,1,0.975,1.950,0,0,0.0*
1,1,0.975,0.488,-0.488*
1,1,0.975,-0.488,-0.488*
1,1,0.975,-0.488,0.488*
1,1,0.975,0.488,0.488*
%
%ADD19ROUNDEDRECTD19*%
%ADD20C,1.600*%
G04:AMPARAMS|DCode=21|XSize=1.6mm|YSize=1.6mm|CornerRadius=0.4mm|HoleSize=0mm|Usage=FLASHONLY|Rotation=180.000|XOffset=0mm|YOffset=0mm|HoleType=Round|Shape=RoundedRectangle|*
%AMROUNDEDRECTD21*
21,1,1.600,0.800,0,0,180.0*
21,1,0.800,1.600,0,0,180.0*
1,1,0.800,-0.400,0.400*
1,1,0.800,0.400,0.400*
1,1,0.800,0.400,-0.400*
1,1,0.800,-0.400,-0.400*
%
%ADD21ROUNDEDRECTD21*%
%TA.AperFunction,ViaPad*%
%ADD22C,0.650*%
%ADD23C,0.700*%
%TA.AperFunction,SMDPad,CuDef*%
G04:AMPARAMS|DCode=24|XSize=1.524mm|YSize=0.578mm|CornerRadius=0.289mm|HoleSize=0mm|Usage=FLASHONLY|Rotation=270.000|XOffset=0mm|YOffset=0mm|HoleType=Round|Shape=RoundedRectangle|*
%AMROUNDEDRECTD24*
21,1,1.524,0.000,0,0,270.0*
21,1,0.946,0.578,0,0,270.0*
1,1,0.578,0.000,-0.473*
1,1,0.578,0.000,0.473*
1,1,0.578,0.000,0.473*
1,1,0.578,0.000,-0.473*
%
%ADD24ROUNDEDRECTD24*%
%ADD25R,0.578X1.524*%
%ADD26R,2.300X1.500*%
%ADD27R,3.000X2.700*%
%ADD28R,1.200X0.300*%
G04:AMPARAMS|DCode=29|XSize=1.194mm|YSize=0.305mm|CornerRadius=0.076mm|HoleSize=0mm|Usage=FLASHONLY|Rotation=90.000|XOffset=0mm|YOffset=0mm|HoleType=Round|Shape=RoundedRectangle|*
%AMROUNDEDRECTD29*
21,1,1.194,0.152,0,0,90.0*
21,1,1.041,0.305,0,0,90.0*
1,1,0.152,0.076,0.521*
1,1,0.152,0.076,-0.521*
1,1,0.152,-0.076,-0.521*
1,1,0.152,-0.076,0.521*
%
%ADD29ROUNDEDRECTD29*%
G04:AMPARAMS|DCode=30|XSize=1.194mm|YSize=0.305mm|CornerRadius=0.076mm|HoleSize=0mm|Usage=FLASHONLY|Rotation=0.000|XOffset=0mm|YOffset=0mm|HoleType=Round|Shape=RoundedRectangle|*
%AMROUNDEDRECTD30*
21,1,1.194,0.152,0,0,0.0*
21,1,1.041,0.305,0,0,0.0*
1,1,0.152,0.521,-0.076*
1,1,0.152,-0.521,-0.076*
1,1,0.152,-0.521,0.076*
1,1,0.152,0.521,0.076*
%
%ADD30ROUNDEDRECTD30*%
%TA.AperFunction,ConnectorPad*%
%ADD31R,0.900X1.500*%
%TA.AperFunction,BGAPad,CuDef*%
%ADD32R,0.700X0.700*%
%TA.AperFunction,SMDPad,CuDef*%
%ADD33R,0.900X1.300*%
G04:AMPARAMS|DCode=34|XSize=0.4mm|YSize=0.65mm|CornerRadius=0.1mm|HoleSize=0mm|Usage=FLASHONLY|Rotation=0.000|XOffset=0mm|YOffset=0mm|HoleType=Round|Shape=RoundedRectangle|*
%AMROUNDEDRECTD34*
21,1,0.400,0.450,0,0,0.0*
21,1,0.200,0.650,0,0,0.0*
1,1,0.200,0.100,-0.225*
1,1,0.200,-0.100,-0.225*
1,1,0.200,-0.100,0.225*
1,1,0.200,0.100,0.225*
%
%ADD34ROUNDEDRECTD34*%
%TA.AperFunction,BGAPad,CuDef*%
%ADD35C,0.800*%
%TA.AperFunction,SMDPad,CuDef*%
%ADD36R,1.360X0.950*%
%ADD37R,5.600X2.100*%
%ADD38R,0.950X1.360*%
%ADD39R,3.700X1.200*%
G04:AMPARAMS|DCode=40|XSize=1mm|YSize=0.7mm|CornerRadius=0.14mm|HoleSize=0mm|Usage=FLASHONLY|Rotation=180.000|XOffset=0mm|YOffset=0mm|HoleType=Round|Shape=RoundedRectangle|*
%AMROUNDEDRECTD40*
21,1,1.000,0.420,0,0,180.0*
21,1,0.720,0.700,0,0,180.0*
1,1,0.280,-0.360,0.210*
1,1,0.280,0.360,0.210*
1,1,0.280,0.360,-0.210*
1,1,0.280,-0.360,-0.210*
%
%ADD40ROUNDEDRECTD40*%
%ADD41R,1.205X0.436*%
G04:AMPARAMS|DCode=42|XSize=1.205mm|YSize=0.436mm|CornerRadius=0.218mm|HoleSize=0mm|Usage=FLASHONLY|Rotation=180.000|XOffset=0mm|YOffset=0mm|HoleType=Round|Shape=RoundedRectangle|*
%AMROUNDEDRECTD42*
21,1,1.205,0.000,0,0,180.0*
21,1,0.769,0.436,0,0,180.0*
1,1,0.436,-0.385,0.000*
1,1,0.436,0.385,0.000*
1,1,0.436,0.385,0.000*
1,1,0.436,-0.385,0.000*
%
%ADD42ROUNDEDRECTD42*%
%ADD43R,1.300X0.900*%
%ADD44R,0.910X1.220*%
%ADD45R,0.559X0.648*%
G04:AMPARAMS|DCode=46|XSize=0.4mm|YSize=0.5mm|CornerRadius=0.1mm|HoleSize=0mm|Usage=FLASHONLY|Rotation=0.000|XOffset=0mm|YOffset=0mm|HoleType=Round|Shape=RoundedRectangle|*
%AMROUNDEDRECTD46*
21,1,0.400,0.300,0,0,0.0*
21,1,0.200,0.500,0,0,0.0*
1,1,0.200,0.100,-0.150*
1,1,0.200,-0.100,-0.150*
1,1,0.200,-0.100,0.150*
1,1,0.200,0.100,0.150*
%
%ADD46ROUNDEDRECTD46*%
G04:AMPARAMS|DCode=47|XSize=0.4mm|YSize=0.5mm|CornerRadius=0.1mm|HoleSize=0mm|Usage=FLASHONLY|Rotation=270.000|XOffset=0mm|YOffset=0mm|HoleType=Round|Shape=RoundedRectangle|*
%AMROUNDEDRECTD47*
21,1,0.400,0.300,0,0,270.0*
21,1,0.200,0.500,0,0,270.0*
1,1,0.200,-0.150,-0.100*
1,1,0.200,-0.150,0.100*
1,1,0.200,0.150,0.100*
1,1,0.200,0.150,-0.100*
%
%ADD47ROUNDEDRECTD47*%
%ADD48R,1.220X0.910*%
G04:AMPARAMS|DCode=49|XSize=1.295mm|YSize=3.607mm|CornerRadius=0.259mm|HoleSize=0mm|Usage=FLASHONLY|Rotation=90.000|XOffset=0mm|YOffset=0mm|HoleType=Round|Shape=RoundedRectangle|*
%AMROUNDEDRECTD49*
21,1,1.295,3.089,0,0,90.0*
21,1,0.777,3.607,0,0,90.0*
1,1,0.518,1.544,0.389*
1,1,0.518,1.544,-0.389*
1,1,0.518,-1.544,-0.389*
1,1,0.518,-1.544,0.389*
%
%ADD49ROUNDEDRECTD49*%
%TA.AperFunction,Conductor*%
%ADD50C,0.350*%
G36*
X31972Y28534D02*
X31457D01*
Y28240D01*
X31118D01*
Y28534D01*
X29516D01*
Y27332D01*
X30160D01*
Y27209D01*
X30183Y27091D01*
X30250Y26992D01*
X31079Y26163D01*
X31074Y26111D01*
X31050Y26033D01*
X30932Y25974D01*
X30915Y25985D01*
X30826Y26002D01*
X30674D01*
X30585Y25985D01*
X30500Y25940D01*
X30415Y25985D01*
X30326Y26002D01*
X30174D01*
X30085Y25985D01*
X30000Y25940D01*
X29915Y25985D01*
X29826Y26002D01*
X29674D01*
X29585Y25985D01*
X29500Y25940D01*
X29415Y25985D01*
X29326Y26002D01*
X29174D01*
X29085Y25985D01*
X29000Y25940D01*
X28915Y25985D01*
X28826Y26002D01*
X28674D01*
X28585Y25985D01*
X28500Y25940D01*
X28415Y25985D01*
X28326Y26002D01*
X28174D01*
X28085Y25985D01*
X28000Y25940D01*
X27915Y25985D01*
X27826Y26002D01*
X27674D01*
X27660Y26000D01*
X27533Y26091D01*
Y27447D01*
X28081D01*
Y28699D01*
X28207Y28703D01*
X31972D01*
Y28534D01*
D02*
G37*
G36*
X33802Y28231D02*
X33902Y28164D01*
X34019Y28141D01*
X44473D01*
Y27617D01*
X44818D01*
Y27402D01*
X42747Y25331D01*
X42680Y25231D01*
X42657Y25114D01*
Y22217D01*
X42642Y22211D01*
X42322Y21891D01*
X42230Y21974D01*
X42277Y22088D01*
X42277Y22090D01*
X42230Y22206D01*
X42228Y22206D01*
X42114Y22253D01*
X41014D01*
X40898Y22206D01*
X40851Y22090D01*
Y21908D01*
X40455D01*
Y22251D01*
X38793D01*
Y21850D01*
X38712D01*
X38603Y21829D01*
X38511Y21767D01*
X37300Y20556D01*
X37249Y20563D01*
X37229Y20676D01*
X37229Y20695D01*
X37361Y20826D01*
X37433Y21001D01*
Y21190D01*
X37361Y21365D01*
X37227Y21499D01*
X37052Y21571D01*
X36862D01*
X36687Y21499D01*
X36567Y21379D01*
X36303D01*
X36258Y21506D01*
X36326Y21670D01*
Y21860D01*
X36254Y22035D01*
X36120Y22169D01*
X36117Y22170D01*
X36143Y22297D01*
X36345D01*
X36433Y22209D01*
X36608Y22136D01*
X36798D01*
X36973Y22209D01*
X37107Y22343D01*
X37179Y22517D01*
Y22687D01*
X37235Y22745D01*
X37286Y22780D01*
X37300Y22774D01*
X37490D01*
X37665Y22846D01*
X37799Y22980D01*
X37871Y23155D01*
Y23345D01*
X37799Y23520D01*
X37665Y23654D01*
X37490Y23726D01*
X37300D01*
X37125Y23654D01*
X37005Y23533D01*
X35596D01*
X35487Y23512D01*
X35395Y23450D01*
X34978Y23033D01*
X34091D01*
X34000Y23160D01*
X34002Y23174D01*
Y23326D01*
X33985Y23415D01*
X33940Y23500D01*
X33985Y23585D01*
X34002Y23674D01*
Y23826D01*
X33985Y23915D01*
X33935Y23990D01*
X33859Y24040D01*
X33771Y24058D01*
X32729D01*
X32641Y24040D01*
X32631Y24033D01*
X31878D01*
X31770Y24012D01*
X31678Y23950D01*
X31151Y23424D01*
X31033Y23472D01*
Y24350D01*
X31150Y24442D01*
Y25250D01*
X31350D01*
Y24452D01*
X31434Y24469D01*
X31525Y24530D01*
X31537Y24548D01*
X31585Y24515D01*
X31674Y24498D01*
X31826D01*
X31915Y24515D01*
X31990Y24566D01*
X32040Y24641D01*
X32058Y24729D01*
Y25771D01*
X32055Y25788D01*
Y25928D01*
X32031Y26046D01*
X31965Y26145D01*
X30895Y27215D01*
X30944Y27332D01*
X31118D01*
Y27626D01*
X31457D01*
Y27332D01*
X33059D01*
Y28534D01*
X32586D01*
Y28703D01*
X33330D01*
X33802Y28231D01*
D02*
G37*
G36*
X26419Y28699D02*
Y27447D01*
X26967D01*
Y26091D01*
X26840Y26000D01*
X26826Y26002D01*
X26674D01*
X26585Y25985D01*
X26500Y25940D01*
X26415Y25985D01*
X26326Y26002D01*
X26174D01*
X26085Y25985D01*
X26010Y25934D01*
X25960Y25859D01*
X25942Y25771D01*
Y24729D01*
X25960Y24641D01*
X26010Y24566D01*
X26085Y24515D01*
X26174Y24498D01*
X26326D01*
X26415Y24515D01*
X26500Y24560D01*
X26585Y24515D01*
X26674Y24498D01*
X26826D01*
X26915Y24515D01*
X27000Y24560D01*
X27085Y24515D01*
X27174Y24498D01*
X27326D01*
X27415Y24515D01*
X27500Y24560D01*
X27585Y24515D01*
X27674Y24498D01*
X27826D01*
X27915Y24515D01*
X28000Y24560D01*
X28085Y24515D01*
X28174Y24498D01*
X28326D01*
X28415Y24515D01*
X28500Y24560D01*
X28585Y24515D01*
X28674Y24498D01*
X28826D01*
X28947Y24395D01*
Y24028D01*
X28940Y24026D01*
X28806Y23892D01*
X28734Y23717D01*
Y23527D01*
X28806Y23352D01*
X28940Y23218D01*
X29115Y23146D01*
X29305D01*
X29480Y23218D01*
X29614Y23352D01*
X29686Y23527D01*
Y23717D01*
X29614Y23892D01*
X29513Y23992D01*
Y24422D01*
X29640Y24504D01*
X29674Y24498D01*
X29826D01*
X29915Y24515D01*
X30000Y24560D01*
X30085Y24515D01*
X30174Y24498D01*
X30326D01*
X30340Y24500D01*
X30467Y24409D01*
Y23312D01*
X30006Y22852D01*
X29944Y22760D01*
X29923Y22651D01*
Y22423D01*
X29796Y22353D01*
X29673Y22404D01*
X29484D01*
X29309Y22332D01*
X29175Y22198D01*
X29102Y22023D01*
Y21886D01*
X27273Y20057D01*
X25607D01*
X25502Y20174D01*
Y20326D01*
X25485Y20415D01*
X25440Y20500D01*
X25485Y20585D01*
X25502Y20674D01*
Y20826D01*
X25485Y20915D01*
X25440Y21000D01*
X25485Y21085D01*
X25502Y21174D01*
Y21326D01*
X25485Y21415D01*
X25440Y21500D01*
X25485Y21585D01*
X25502Y21674D01*
Y21826D01*
X25500Y21840D01*
X25591Y21967D01*
X26160D01*
X26280Y21846D01*
X26455Y21774D01*
X26645D01*
X26820Y21846D01*
X26954Y21980D01*
X27026Y22155D01*
Y22345D01*
X26954Y22520D01*
X26820Y22654D01*
X26786Y22667D01*
X26804Y22797D01*
X26877Y22806D01*
X26986Y22697D01*
X27161Y22625D01*
X27351D01*
X27526Y22697D01*
X27660Y22831D01*
X27732Y23006D01*
Y23196D01*
X27660Y23371D01*
X27526Y23505D01*
X27351Y23577D01*
X27161D01*
X26986Y23505D01*
X26866Y23384D01*
X26353D01*
X26245Y23363D01*
X26153Y23301D01*
X25885Y23033D01*
X25650D01*
X25558Y23150D01*
X24750D01*
Y23350D01*
X25548D01*
X25531Y23434D01*
X25470Y23525D01*
X25452Y23537D01*
X25485Y23585D01*
X25502Y23674D01*
Y23826D01*
X25485Y23915D01*
X25434Y23990D01*
X25359Y24040D01*
X25271Y24058D01*
X24229D01*
X24212Y24055D01*
X23886D01*
X23769Y24031D01*
X23669Y23965D01*
X23568Y23864D01*
X23451Y23912D01*
Y24102D01*
X23157D01*
Y24336D01*
X23468D01*
Y25938D01*
X23157D01*
Y27546D01*
X23253Y27642D01*
X23326Y27817D01*
Y28007D01*
X23253Y28182D01*
X23157Y28278D01*
Y28703D01*
X26293D01*
X26419Y28699D01*
D02*
G37*
G36*
X61745Y42960D02*
X61701Y42851D01*
X61618Y42851D01*
X60499D01*
Y41049D01*
X61701Y41049D01*
X61745Y40940D01*
Y25460D01*
X61701Y25351D01*
X61618Y25351D01*
X60499D01*
Y23549D01*
X60643D01*
X60696Y23422D01*
X59999Y22725D01*
X59872Y22778D01*
Y23110D01*
X59127D01*
X59078Y23227D01*
X59400Y23549D01*
X60201D01*
Y25351D01*
X59883D01*
Y25897D01*
X59862Y26005D01*
X59800Y26097D01*
X54187Y31710D01*
X54095Y31772D01*
X53987Y31793D01*
X47412D01*
Y32136D01*
X45750D01*
Y31793D01*
X39543D01*
Y32118D01*
X39025D01*
Y32270D01*
X39004Y32378D01*
X38942Y32470D01*
X37181Y34232D01*
X37233Y34359D01*
X38075D01*
Y36161D01*
X35473D01*
Y34359D01*
X36568D01*
Y34160D01*
X36590Y34052D01*
X36651Y33960D01*
X38366Y32245D01*
X38313Y32118D01*
X37941D01*
Y31793D01*
X37504D01*
Y32118D01*
X35902D01*
Y30916D01*
X37504D01*
Y31227D01*
X37941D01*
Y30916D01*
X39543D01*
Y31227D01*
X45750D01*
Y30884D01*
X47412D01*
Y31227D01*
X53870D01*
X57977Y27119D01*
X57936Y26980D01*
X57813Y26929D01*
X57679Y26796D01*
X57607Y26621D01*
Y26431D01*
X57679Y26256D01*
X57799Y26136D01*
Y25351D01*
X57499D01*
Y23549D01*
X57384Y23520D01*
X57316D01*
X57201Y23549D01*
X57201Y23647D01*
Y25351D01*
X56798D01*
Y25518D01*
X56919Y25638D01*
X56991Y25813D01*
Y26003D01*
X56919Y26178D01*
X56785Y26312D01*
X56610Y26384D01*
X56420D01*
X56245Y26312D01*
X56111Y26178D01*
X56039Y26003D01*
Y25813D01*
X56111Y25638D01*
X56232Y25518D01*
Y25351D01*
X55999D01*
Y23647D01*
X55999Y23549D01*
X55884Y23520D01*
X55816D01*
X55745Y23538D01*
X55701Y23640D01*
Y25351D01*
X54499D01*
Y23549D01*
X54694D01*
X54746Y23422D01*
X54197Y22873D01*
X54070Y22925D01*
Y22955D01*
X53998Y23130D01*
X53877Y23250D01*
Y23549D01*
X54201D01*
Y25351D01*
X52999D01*
Y23549D01*
X53311D01*
Y23250D01*
X53190Y23130D01*
X53118Y22955D01*
Y22765D01*
X53190Y22590D01*
X53324Y22456D01*
X53413Y22420D01*
X53388Y22293D01*
X52960D01*
X52958Y22298D01*
X52824Y22432D01*
X52649Y22504D01*
X52460D01*
X52285Y22432D01*
X52151Y22298D01*
X52078Y22123D01*
Y21933D01*
X52151Y21758D01*
X52285Y21624D01*
X52460Y21552D01*
X52649D01*
X52824Y21624D01*
X52925Y21726D01*
X53661D01*
X53714Y21599D01*
X53012Y20897D01*
X52842D01*
X52667Y20825D01*
X52533Y20691D01*
X52461Y20516D01*
Y20326D01*
X52533Y20151D01*
X52607Y20077D01*
X52555Y19950D01*
X50220D01*
Y20498D01*
X48968D01*
Y18836D01*
X50220D01*
Y19383D01*
X55842D01*
X56705Y18520D01*
X56797Y18459D01*
X56906Y18437D01*
X58247D01*
X58255Y18398D01*
X58300Y18330D01*
X58284Y18266D01*
X58250Y18203D01*
X56542D01*
X55696Y19048D01*
X55604Y19110D01*
X55496Y19131D01*
X53249D01*
X53140Y19110D01*
X53048Y19048D01*
X52736Y18736D01*
X52726Y18721D01*
X51963D01*
Y17059D01*
X52295D01*
Y15852D01*
X51747D01*
Y14600D01*
X53409D01*
Y15852D01*
X52861D01*
Y17059D01*
X53215D01*
Y18211D01*
X53220Y18238D01*
Y18419D01*
X53366Y18565D01*
X53713D01*
Y17059D01*
X54862D01*
X54965Y17059D01*
X54979Y16938D01*
Y16895D01*
X55052Y16720D01*
X55186Y16587D01*
X55361Y16514D01*
X55550D01*
X55725Y16587D01*
X55754Y16616D01*
X56900D01*
X57747Y15769D01*
X57847Y15703D01*
X57934Y15685D01*
Y15599D01*
X57957Y15485D01*
X58021Y15389D01*
Y15279D01*
X57957Y15183D01*
X57934Y15069D01*
Y14649D01*
X57957Y14535D01*
X58021Y14439D01*
Y14329D01*
X57957Y14233D01*
X57934Y14119D01*
Y13699D01*
X57957Y13585D01*
X58021Y13489D01*
X58117Y13425D01*
X58231Y13402D01*
X58308D01*
Y12626D01*
X57990D01*
Y11118D01*
X56941D01*
Y11725D01*
X56291D01*
X55641D01*
Y10975D01*
X55641D01*
X55689Y10859D01*
X55339Y10509D01*
X55169D01*
X54994Y10437D01*
X54992Y10434D01*
X54874Y10482D01*
Y12756D01*
X55392D01*
Y13958D01*
X55116D01*
X55067Y14075D01*
X55567Y14576D01*
X55750D01*
X55758Y14535D01*
X55822Y14439D01*
X55762Y14327D01*
X55712Y14252D01*
X55685Y14119D01*
Y14009D01*
X56392D01*
X57099D01*
Y14119D01*
X57072Y14252D01*
X57022Y14327D01*
X56962Y14439D01*
X57026Y14535D01*
X57049Y14649D01*
Y15069D01*
X57026Y15183D01*
X56962Y15279D01*
Y15389D01*
X57026Y15485D01*
X57049Y15599D01*
Y16019D01*
X57026Y16133D01*
X56962Y16229D01*
X56866Y16293D01*
X56752Y16316D01*
X56032D01*
X55918Y16293D01*
X55822Y16229D01*
X55758Y16133D01*
X55750Y16092D01*
X55392D01*
Y16258D01*
X53790D01*
Y15056D01*
X55080D01*
X55129Y14939D01*
X54390Y14200D01*
X54329Y14108D01*
X54307Y14000D01*
Y13958D01*
X53790D01*
Y12756D01*
X54307D01*
Y7266D01*
X52934Y5893D01*
X52562D01*
Y5899D01*
X52531Y6059D01*
X52493Y6115D01*
X52468Y6242D01*
X52516Y6358D01*
Y9158D01*
X52468Y9274D01*
X52493Y9401D01*
X52531Y9457D01*
X52562Y9617D01*
Y10395D01*
X52531Y10555D01*
X52440Y10690D01*
X52304Y10781D01*
X52144Y10813D01*
X50907D01*
Y11467D01*
X51004Y11564D01*
X51076Y11738D01*
Y11928D01*
X51004Y12103D01*
X50870Y12237D01*
X50695Y12309D01*
X50505D01*
X50330Y12237D01*
X50234Y12140D01*
X47685D01*
Y12429D01*
X46083D01*
Y12135D01*
X45872D01*
Y12426D01*
X45376D01*
Y12781D01*
X45353Y12898D01*
X45286Y12998D01*
X44626Y13658D01*
Y13795D01*
X44554Y13970D01*
X44457Y14066D01*
Y14929D01*
X44831D01*
Y15809D01*
Y16689D01*
X44256D01*
Y16364D01*
X44139Y16315D01*
X43028Y17426D01*
X42928Y17493D01*
X42811Y17516D01*
X42282D01*
Y19543D01*
X43272Y20533D01*
X43339Y20633D01*
X43362Y20750D01*
Y20932D01*
X43364D01*
X43480Y20980D01*
X43527Y21095D01*
Y22095D01*
X43480Y22211D01*
X43364Y22259D01*
X43271D01*
Y24987D01*
X44350Y26066D01*
X44467Y26017D01*
Y24552D01*
X47069D01*
Y25194D01*
X48450D01*
Y24550D01*
X49100D01*
X49750D01*
Y24927D01*
X49867Y24976D01*
X49999Y24844D01*
Y23549D01*
X51201D01*
Y25049D01*
X51318Y25098D01*
X51499Y24917D01*
Y23549D01*
X52701D01*
Y25351D01*
X51867D01*
X48569Y28648D01*
X48477Y28710D01*
X48369Y28731D01*
X47475D01*
Y29279D01*
X46223D01*
Y27617D01*
X47475D01*
Y28165D01*
X48252D01*
X50948Y25468D01*
X50899Y25351D01*
X50360D01*
X49993Y25718D01*
X49894Y25785D01*
X49776Y25808D01*
X47069D01*
Y26354D01*
X44804D01*
X44755Y26471D01*
X45342Y27058D01*
X45409Y27158D01*
X45432Y27275D01*
X45432Y27275D01*
Y27617D01*
X45725D01*
Y29279D01*
X45381D01*
Y29867D01*
X45478Y29963D01*
X45550Y30138D01*
Y30328D01*
X45478Y30503D01*
X45344Y30637D01*
X45169Y30709D01*
X44979D01*
X44804Y30637D01*
X44671Y30503D01*
X44598Y30328D01*
Y30138D01*
X44671Y29963D01*
X44767Y29867D01*
Y29279D01*
X44473D01*
Y28755D01*
X39592D01*
Y29117D01*
X38742D01*
X37892D01*
Y28755D01*
X37553D01*
Y29117D01*
X36703D01*
X35853D01*
Y28755D01*
X34146D01*
X33674Y29227D01*
X33575Y29293D01*
X33457Y29317D01*
X28081D01*
Y30449D01*
X27539D01*
Y30616D01*
X27690Y30678D01*
X27824Y30812D01*
X27897Y30987D01*
Y31177D01*
X27824Y31352D01*
X27690Y31486D01*
X27515Y31558D01*
X27326D01*
X27151Y31486D01*
X27017Y31352D01*
X26945Y31177D01*
Y30987D01*
X26987Y30885D01*
X26973Y30810D01*
Y30449D01*
X26419D01*
Y29317D01*
X23157D01*
Y29981D01*
X26367Y33191D01*
X26434Y33290D01*
X26457Y33408D01*
Y34149D01*
X26751D01*
Y35751D01*
X26457D01*
Y36518D01*
X26434Y36636D01*
X26367Y36736D01*
X25417Y37685D01*
X25318Y37752D01*
X25200Y37775D01*
X23845D01*
Y38219D01*
X19843D01*
Y36717D01*
X23845D01*
Y37161D01*
X25073D01*
X25843Y36391D01*
Y35751D01*
X25549D01*
Y34149D01*
X25843D01*
Y33535D01*
X22633Y30325D01*
X22566Y30225D01*
X22543Y30108D01*
Y29010D01*
Y28278D01*
X22446Y28182D01*
X22374Y28007D01*
Y27817D01*
X22446Y27642D01*
X22543Y27546D01*
Y25938D01*
X22266D01*
Y24336D01*
X22543D01*
Y24102D01*
X22249D01*
Y22500D01*
X23451D01*
Y22997D01*
X23557Y23018D01*
X23657Y23084D01*
X23821Y23248D01*
X23948Y23196D01*
Y23174D01*
X23969Y23066D01*
X24030Y22975D01*
X24048Y22963D01*
X24015Y22915D01*
X23998Y22826D01*
Y22674D01*
X24015Y22585D01*
X24060Y22500D01*
X24015Y22415D01*
X23998Y22326D01*
Y22174D01*
X24015Y22085D01*
X24060Y22000D01*
X24015Y21915D01*
X23998Y21826D01*
Y21674D01*
X24015Y21585D01*
X24060Y21500D01*
X24015Y21415D01*
X23998Y21326D01*
Y21174D01*
X24015Y21085D01*
X24060Y21000D01*
X24015Y20915D01*
X23998Y20826D01*
Y20674D01*
X24000Y20660D01*
X23909Y20533D01*
X22681D01*
X21812Y21403D01*
Y21573D01*
X21740Y21747D01*
X21606Y21881D01*
X21431Y21954D01*
X21241D01*
X21066Y21881D01*
X20932Y21747D01*
X20860Y21573D01*
Y21383D01*
X20932Y21208D01*
X21066Y21074D01*
X21241Y21002D01*
X21411D01*
X21876Y20537D01*
X21827Y20420D01*
X20535D01*
Y19218D01*
X22074D01*
X22088Y19198D01*
Y19008D01*
X22160Y18833D01*
X22294Y18699D01*
X22469Y18627D01*
X22503D01*
X22563Y18563D01*
X22611Y18450D01*
X22288Y18127D01*
X22186Y18169D01*
Y18169D01*
X21436D01*
Y17519D01*
Y16869D01*
X21984D01*
X22037Y16742D01*
X21954Y16659D01*
X21881Y16484D01*
Y16295D01*
X21954Y16120D01*
X22087Y15986D01*
X22262Y15913D01*
X22452D01*
X22627Y15986D01*
X22761Y16120D01*
X22833Y16295D01*
Y16484D01*
X22761Y16659D01*
X22641Y16779D01*
Y17678D01*
X22929Y17967D01*
X24131D01*
X24141Y17960D01*
X24229Y17942D01*
X25271D01*
X25359Y17960D01*
X25434Y18010D01*
X25485Y18085D01*
X25502Y18174D01*
Y18326D01*
X25485Y18415D01*
X25440Y18500D01*
X25485Y18585D01*
X25502Y18674D01*
Y18826D01*
X25607Y18943D01*
X25973D01*
X26399Y18517D01*
Y18380D01*
X26471Y18205D01*
X26605Y18071D01*
X26780Y17999D01*
X26970D01*
X27145Y18071D01*
X27279Y18205D01*
X27351Y18380D01*
Y18570D01*
X27279Y18745D01*
X27145Y18879D01*
X26970Y18951D01*
X26833D01*
X26458Y19326D01*
X26507Y19443D01*
X27400D01*
X27518Y19466D01*
X27617Y19533D01*
X29513Y21429D01*
X29634Y21428D01*
X29701Y21320D01*
X29645Y21185D01*
Y20995D01*
X29717Y20820D01*
X29851Y20686D01*
X30026Y20614D01*
X30216D01*
X30339Y20665D01*
X30466Y20595D01*
Y19040D01*
X30345Y18920D01*
X30273Y18745D01*
Y18556D01*
X30345Y18381D01*
X30479Y18247D01*
X30654Y18174D01*
X30844D01*
X31019Y18247D01*
X31153Y18381D01*
X31225Y18556D01*
Y18745D01*
X31153Y18920D01*
X31032Y19040D01*
Y22504D01*
X31995Y23467D01*
X32409D01*
X32500Y23340D01*
X32498Y23326D01*
Y23174D01*
X32515Y23085D01*
X32560Y23000D01*
X32515Y22915D01*
X32498Y22826D01*
Y22674D01*
X32515Y22585D01*
X32560Y22500D01*
X32515Y22415D01*
X32498Y22326D01*
Y22174D01*
X32515Y22085D01*
X32560Y22000D01*
X32515Y21915D01*
X32498Y21826D01*
Y21674D01*
X32515Y21585D01*
X32560Y21500D01*
X32515Y21415D01*
X32498Y21326D01*
Y21174D01*
X32515Y21085D01*
X32560Y21000D01*
X32515Y20915D01*
X32498Y20826D01*
Y20674D01*
X32515Y20585D01*
X32560Y20500D01*
X32515Y20415D01*
X32498Y20326D01*
Y20174D01*
X32515Y20085D01*
X32560Y20000D01*
X32515Y19915D01*
X32498Y19826D01*
Y19674D01*
X32515Y19585D01*
X32560Y19500D01*
X32515Y19415D01*
X32498Y19326D01*
Y19174D01*
X32515Y19085D01*
X32548Y19037D01*
X32530Y19025D01*
X32469Y18934D01*
X32452Y18850D01*
X33250D01*
X34048D01*
X34031Y18934D01*
X33970Y19025D01*
X33952Y19037D01*
X33985Y19085D01*
X34002Y19174D01*
Y19326D01*
X34000Y19340D01*
X34091Y19467D01*
X36086D01*
X36227Y19325D01*
Y19155D01*
X36299Y18980D01*
X36433Y18846D01*
X36608Y18774D01*
X36798D01*
X36973Y18846D01*
X37107Y18980D01*
X37179Y19155D01*
Y19345D01*
X37107Y19520D01*
X36973Y19654D01*
X36798Y19726D01*
X36628D01*
X36514Y19840D01*
X36567Y19967D01*
X37395D01*
X37503Y19988D01*
X37595Y20050D01*
X38676Y21130D01*
X38793Y21081D01*
Y20999D01*
X40455D01*
Y21342D01*
X40851D01*
Y21090D01*
X40898Y20974D01*
X41014Y20927D01*
X42114D01*
X42228Y20974D01*
X42230Y20974D01*
X42277Y21090D01*
X42277Y21092D01*
X42230Y21206D01*
X42322Y21289D01*
X42631Y20980D01*
X42660Y20968D01*
X42689Y20818D01*
X41758Y19887D01*
X41691Y19787D01*
X41668Y19670D01*
Y17516D01*
X35599D01*
Y17560D01*
X35105D01*
Y17742D01*
X35082Y17859D01*
X35015Y17959D01*
X34507Y18467D01*
X34407Y18534D01*
X34290Y18557D01*
X34159D01*
X34074Y18650D01*
X33250D01*
X32426D01*
X32341Y18557D01*
X32054D01*
X31936Y18534D01*
X31837Y18467D01*
X31533Y18163D01*
X31466Y18064D01*
X31443Y17946D01*
Y17607D01*
X31326Y17502D01*
X31174D01*
X31085Y17485D01*
X31000Y17440D01*
X30915Y17485D01*
X30826Y17502D01*
X30674D01*
X30585Y17485D01*
X30500Y17440D01*
X30415Y17485D01*
X30326Y17502D01*
X30174D01*
X30085Y17485D01*
X30000Y17440D01*
X29915Y17485D01*
X29826Y17502D01*
X29674D01*
X29585Y17485D01*
X29500Y17440D01*
X29415Y17485D01*
X29326Y17502D01*
X29174D01*
X29085Y17485D01*
X29000Y17440D01*
X28915Y17485D01*
X28826Y17502D01*
X28674D01*
X28585Y17485D01*
X28537Y17452D01*
X28525Y17470D01*
X28434Y17531D01*
X28350Y17548D01*
Y16750D01*
X28150D01*
Y17548D01*
X28066Y17531D01*
X27975Y17470D01*
X27963Y17452D01*
X27915Y17485D01*
X27826Y17502D01*
X27674D01*
X27585Y17485D01*
X27500Y17440D01*
X27415Y17485D01*
X27326Y17502D01*
X27174D01*
X27085Y17485D01*
X27000Y17440D01*
X26915Y17485D01*
X26826Y17502D01*
X26674D01*
X26585Y17485D01*
X26500Y17440D01*
X26415Y17485D01*
X26326Y17502D01*
X26174D01*
X26085Y17485D01*
X26010Y17434D01*
X25960Y17359D01*
X25942Y17271D01*
Y17033D01*
X25775D01*
X25517Y17292D01*
X25425Y17353D01*
X25316Y17375D01*
X23885D01*
X23765Y17495D01*
X23590Y17567D01*
X23400D01*
X23225Y17495D01*
X23091Y17361D01*
X23019Y17186D01*
Y16996D01*
X23091Y16822D01*
X23225Y16688D01*
X23400Y16615D01*
X23590D01*
X23765Y16688D01*
X23885Y16808D01*
X25137D01*
X25148Y16787D01*
X25148Y16786D01*
X25069Y16670D01*
X24935D01*
X24760Y16597D01*
X24626Y16463D01*
X24554Y16288D01*
Y16099D01*
X24626Y15924D01*
X24760Y15790D01*
X24935Y15717D01*
X25124D01*
X25299Y15790D01*
X25379Y15870D01*
X25416D01*
X25730Y15556D01*
X25822Y15495D01*
X25931Y15473D01*
X26487D01*
X26596Y15495D01*
X26687Y15556D01*
X26948Y15817D01*
X27009Y15909D01*
X27010Y15913D01*
X27082Y16011D01*
X27152Y16002D01*
X27174Y15998D01*
X27326D01*
X27443Y15893D01*
Y15809D01*
X27466Y15692D01*
X27533Y15592D01*
X27774Y15351D01*
Y15151D01*
X27480D01*
Y14676D01*
X27276D01*
Y15151D01*
X26074D01*
Y13549D01*
X26184D01*
X26251Y13422D01*
X26199Y13296D01*
Y13106D01*
X26271Y12931D01*
X26405Y12797D01*
X26580Y12725D01*
X26770D01*
X26945Y12797D01*
X27079Y12931D01*
X27151Y13106D01*
Y13296D01*
X27099Y13422D01*
X27166Y13549D01*
X27276D01*
Y14062D01*
X27480D01*
Y13549D01*
X28682D01*
X28757Y13453D01*
Y11596D01*
X28439D01*
Y9994D01*
X29227D01*
X30396Y8825D01*
X30488Y8763D01*
X30597Y8742D01*
X32466D01*
X32469Y8735D01*
X32603Y8601D01*
X32778Y8528D01*
X32967D01*
X33142Y8601D01*
X33190Y8648D01*
X33317Y8596D01*
Y7043D01*
X29989D01*
Y4641D01*
X35891D01*
Y7043D01*
X33883D01*
Y9165D01*
X33862Y9273D01*
X33800Y9365D01*
X33289Y9877D01*
X33338Y9994D01*
X33360D01*
Y11596D01*
X33223D01*
Y13669D01*
X33202Y13777D01*
X33140Y13869D01*
X31489Y15520D01*
X31397Y15582D01*
X31289Y15603D01*
X30546D01*
X30279Y15871D01*
X30321Y15985D01*
X30331Y15999D01*
X30415Y16015D01*
X30500Y16060D01*
X30585Y16015D01*
X30674Y15998D01*
X30826D01*
X30915Y16015D01*
X31000Y16060D01*
X31085Y16015D01*
X31174Y15998D01*
X31326D01*
X31415Y16015D01*
X31500Y16060D01*
X31585Y16015D01*
X31674Y15998D01*
X31826D01*
X31915Y16015D01*
X31990Y16066D01*
X32040Y16141D01*
X32058Y16229D01*
Y17271D01*
X32057Y17275D01*
Y17819D01*
X32181Y17943D01*
X32725D01*
X32729Y17942D01*
X33771D01*
X33775Y17943D01*
X34163D01*
X34419Y17687D01*
X34366Y17560D01*
X33997D01*
Y16358D01*
X35599D01*
Y16446D01*
X35719Y16463D01*
X35791Y16288D01*
X35925Y16154D01*
X36100Y16082D01*
X36234D01*
X36287Y15955D01*
X36267Y15935D01*
X36091Y15630D01*
X36000Y15289D01*
Y14937D01*
X36091Y14596D01*
X36267Y14291D01*
X36516Y14042D01*
X36590Y13999D01*
X36556Y13872D01*
X36435D01*
X36419Y13911D01*
X36285Y14045D01*
X36110Y14117D01*
X35921D01*
X35775Y14057D01*
X35683Y14097D01*
X35648Y14126D01*
Y14559D01*
X34898D01*
Y14009D01*
X35531D01*
X35560Y13974D01*
X35600Y13882D01*
X35540Y13736D01*
Y13547D01*
X35612Y13372D01*
X35746Y13238D01*
X35921Y13165D01*
X36110D01*
X36285Y13238D01*
X36353Y13306D01*
X36580D01*
X36665Y13220D01*
X36652Y13087D01*
X36516Y13009D01*
X36267Y12760D01*
X36091Y12455D01*
X36000Y12114D01*
Y11762D01*
X36091Y11421D01*
X36267Y11116D01*
X36516Y10867D01*
X36821Y10691D01*
X37162Y10599D01*
X37514D01*
X37855Y10691D01*
X38160Y10867D01*
X38409Y11116D01*
X38565Y11386D01*
X38692Y11352D01*
Y11193D01*
X38776Y10991D01*
X38931Y10836D01*
X39133Y10752D01*
X39353D01*
X39555Y10836D01*
X39710Y10991D01*
X39794Y11193D01*
X39913Y11184D01*
X40004Y10963D01*
X40173Y10794D01*
X40394Y10703D01*
X40413D01*
Y11303D01*
X40613D01*
Y10703D01*
X40632D01*
X40658Y10586D01*
X40554Y10542D01*
X40384Y10373D01*
X40293Y10153D01*
Y9913D01*
X40384Y9693D01*
X40554Y9524D01*
X40774Y9432D01*
X40766Y9308D01*
X38990D01*
X38982Y9432D01*
X39202Y9524D01*
X39371Y9693D01*
X39463Y9913D01*
Y10153D01*
X39371Y10373D01*
X39202Y10542D01*
X38982Y10634D01*
X38742D01*
X38522Y10542D01*
X38353Y10373D01*
X38261Y10153D01*
Y9913D01*
X38353Y9693D01*
X38522Y9524D01*
X38742Y9432D01*
X38734Y9308D01*
X37728D01*
X37608Y9429D01*
X37433Y9501D01*
X37243D01*
X37068Y9429D01*
X36934Y9295D01*
X36862Y9120D01*
Y8930D01*
X36934Y8755D01*
X37055Y8635D01*
Y7860D01*
X37076Y7751D01*
X37138Y7659D01*
X38023Y6774D01*
Y6235D01*
X37005D01*
Y4433D01*
X39607D01*
Y6235D01*
X38589D01*
Y6892D01*
X38568Y7000D01*
X38506Y7092D01*
X37621Y7977D01*
Y8635D01*
X37728Y8742D01*
X42380D01*
X42488Y8763D01*
X42580Y8825D01*
X44084Y10328D01*
X44145Y10420D01*
X44167Y10528D01*
Y11166D01*
X44270Y11224D01*
X44294Y11224D01*
X45872D01*
Y11521D01*
X46083D01*
Y11227D01*
X47685D01*
Y11526D01*
X50234D01*
X50293Y11467D01*
Y10813D01*
X49056D01*
X48896Y10781D01*
X48760Y10690D01*
X48669Y10555D01*
X48638Y10395D01*
Y9617D01*
X48669Y9457D01*
X48707Y9401D01*
X48732Y9274D01*
X48684Y9158D01*
Y6358D01*
X48732Y6242D01*
X48707Y6115D01*
X48669Y6059D01*
X48638Y5899D01*
Y5121D01*
X48669Y4961D01*
X48760Y4826D01*
X48896Y4735D01*
X49056Y4703D01*
X52144D01*
X52304Y4735D01*
X52440Y4826D01*
X52531Y4961D01*
X52562Y5121D01*
Y5326D01*
X53051D01*
X53159Y5347D01*
X53251Y5409D01*
X54791Y6949D01*
X54853Y7041D01*
X54874Y7149D01*
Y9584D01*
X54992Y9632D01*
X54994Y9629D01*
X55169Y9557D01*
X55359D01*
X55534Y9629D01*
X55668Y9763D01*
X55740Y9938D01*
Y10108D01*
X56183Y10551D01*
X58308D01*
Y10237D01*
X57932D01*
Y9499D01*
X59280D01*
Y9353D01*
X58768Y8841D01*
X57217D01*
Y9492D01*
X57269D01*
X57413Y9520D01*
X57535Y9602D01*
X57617Y9724D01*
X57645Y9868D01*
X57617Y10012D01*
X57535Y10134D01*
X57413Y10215D01*
X57269Y10244D01*
X56500D01*
X56356Y10215D01*
X56234Y10134D01*
X56152Y10012D01*
X56124Y9868D01*
X56152Y9724D01*
X56234Y9602D01*
X56356Y9520D01*
X56500Y9492D01*
X56552D01*
Y8229D01*
X56362D01*
X56113Y8179D01*
X55902Y8038D01*
X55761Y7827D01*
X55711Y7577D01*
Y6602D01*
X55761Y6353D01*
X55902Y6142D01*
X56113Y6001D01*
X56362Y5951D01*
X57338D01*
X57587Y6001D01*
X57798Y6142D01*
X57939Y6353D01*
X57989Y6602D01*
Y7577D01*
X57939Y7827D01*
X57798Y8038D01*
X57772Y8055D01*
X57809Y8177D01*
X58906D01*
X59033Y8202D01*
X59141Y8274D01*
X59847Y8980D01*
X59919Y9088D01*
X59944Y9215D01*
Y9504D01*
X59946Y9515D01*
Y10221D01*
X59944Y10232D01*
Y15276D01*
X60175D01*
Y15183D01*
X60223Y15067D01*
X60338Y15020D01*
X61338D01*
X61454Y15067D01*
X61502Y15183D01*
Y15790D01*
X61454Y15905D01*
X61134Y16225D01*
X61217Y16317D01*
X61331Y16270D01*
X61333Y16270D01*
X61449Y16317D01*
X61449Y16319D01*
X61496Y16433D01*
Y17533D01*
X61449Y17649D01*
X61333Y17696D01*
X61116D01*
Y17991D01*
X61095Y18099D01*
X61033Y18191D01*
X60339Y18886D01*
X60247Y18947D01*
X60139Y18969D01*
X58942D01*
X58927Y19044D01*
X58872Y19127D01*
X58789Y19182D01*
X58691Y19202D01*
X58491D01*
X58393Y19182D01*
X58310Y19127D01*
X58255Y19044D01*
X58247Y19004D01*
X57023D01*
X56574Y19454D01*
X56622Y19571D01*
X56871D01*
Y20321D01*
X56321D01*
Y19872D01*
X56204Y19824D01*
X56160Y19867D01*
X56068Y19929D01*
X55960Y19950D01*
X53319D01*
X53266Y20077D01*
X53340Y20151D01*
X53413Y20326D01*
Y20496D01*
X54500Y21584D01*
X54500Y21584D01*
X55870Y22954D01*
X56321D01*
Y22409D01*
X56971D01*
X57621D01*
Y22954D01*
X58670D01*
Y21508D01*
X58964D01*
Y21222D01*
X58670D01*
Y19620D01*
X59872D01*
Y20114D01*
X60355D01*
X60451Y20017D01*
X60626Y19945D01*
X60816D01*
X60991Y20017D01*
X61124Y20151D01*
X61197Y20326D01*
Y20516D01*
X61124Y20691D01*
X60991Y20825D01*
X60816Y20897D01*
X60626D01*
X60451Y20825D01*
X60355Y20728D01*
X59872D01*
Y21222D01*
X59578D01*
Y21508D01*
X59872D01*
Y22002D01*
X60017D01*
X60134Y22025D01*
X60234Y22092D01*
X61317Y23175D01*
X61384Y23275D01*
X61407Y23392D01*
Y23459D01*
X61497Y23549D01*
X61701Y23549D01*
X61745Y23440D01*
Y255D01*
X255D01*
Y14915D01*
X2000D01*
X2098Y14935D01*
X2180Y14990D01*
X2235Y15072D01*
X2255Y15170D01*
Y30830D01*
X2235Y30928D01*
X2180Y31010D01*
X2098Y31065D01*
X2000Y31085D01*
X255D01*
Y45745D01*
X61745D01*
Y42960D01*
D02*
G37*
G36*
X43364Y21095D02*
X42746D01*
X42364Y21478D01*
Y21702D01*
X42757Y22095D01*
X43364D01*
Y21095D01*
D02*
G37*
G36*
X41864Y21840D02*
X41864Y21340D01*
X42114Y21090D01*
X41014D01*
Y22090D01*
X42114D01*
X41864Y21840D01*
D02*
G37*
G36*
X61333Y16433D02*
X61083Y16683D01*
X60583Y16683D01*
X60333Y16433D01*
Y17533D01*
X61333D01*
Y16433D01*
D02*
G37*
G36*
X43275Y16310D02*
X43197Y16209D01*
X42935Y16360D01*
X42594Y16451D01*
X42242D01*
X41901Y16360D01*
X41596Y16184D01*
X41347Y15935D01*
X41171Y15630D01*
X41079Y15289D01*
Y14937D01*
X41171Y14596D01*
X41347Y14291D01*
X41582Y14056D01*
X41584Y14026D01*
X41579Y14000D01*
X41548Y13923D01*
X41479Y13909D01*
X41387Y13848D01*
X41151Y13612D01*
X41044Y13684D01*
X41064Y13733D01*
Y13953D01*
X40980Y14155D01*
X40924Y14211D01*
X40936Y14269D01*
Y16902D01*
X42683D01*
X43275Y16310D01*
D02*
G37*
G36*
X60550Y17874D02*
Y17696D01*
X60333D01*
X60217Y17649D01*
X60170Y17533D01*
Y16433D01*
X60217Y16317D01*
X60333Y16270D01*
X60449Y16317D01*
X60532Y16225D01*
X60223Y15916D01*
X60212Y15890D01*
X59944D01*
Y16326D01*
X59919Y16453D01*
X59847Y16561D01*
X59642Y16766D01*
X59534Y16838D01*
X59422Y16860D01*
X59394Y16886D01*
X59336Y16990D01*
X59347Y17046D01*
Y17496D01*
X59327Y17594D01*
X59272Y17677D01*
X59189Y17732D01*
X59091Y17752D01*
X59036D01*
X58675Y18113D01*
X58679Y18176D01*
X58711Y18244D01*
X58789Y18259D01*
X58872Y18315D01*
X58927Y18398D01*
X58928Y18402D01*
X60021D01*
X60550Y17874D01*
D02*
G37*
G36*
X40322Y15685D02*
X40195Y15632D01*
X39998Y15714D01*
X39758D01*
X39538Y15623D01*
X39477Y15562D01*
X39350Y15574D01*
X38149Y16775D01*
X38150Y16792D01*
X38190Y16902D01*
X40322D01*
Y15685D01*
D02*
G37*
G36*
X61338Y15790D02*
Y15183D01*
X60338D01*
Y15800D01*
X60721Y16183D01*
X60945D01*
X61338Y15790D01*
D02*
G37*
G36*
X39758Y14512D02*
X39998D01*
X40195Y14594D01*
X40322Y14541D01*
Y14360D01*
X40201Y14310D01*
X40046Y14155D01*
X39962Y13953D01*
Y13733D01*
X40046Y13531D01*
X40201Y13376D01*
X40403Y13292D01*
X40623D01*
X40672Y13312D01*
X40744Y13205D01*
X40651Y13112D01*
X40623Y13124D01*
X40403D01*
X40201Y13040D01*
X40046Y12885D01*
X39962Y12683D01*
Y12463D01*
X40046Y12261D01*
X40201Y12106D01*
X40403Y12022D01*
X40394Y11903D01*
X40173Y11812D01*
X40004Y11643D01*
X39913Y11422D01*
X39794Y11413D01*
X39710Y11615D01*
X39555Y11770D01*
X39353Y11854D01*
X39133D01*
X38931Y11770D01*
X38776Y11615D01*
X38755Y11566D01*
X38635Y11607D01*
X38676Y11762D01*
Y12114D01*
X38635Y12269D01*
X38755Y12310D01*
X38776Y12261D01*
X38931Y12106D01*
X39133Y12022D01*
X39353D01*
X39555Y12106D01*
X39710Y12261D01*
X39794Y12463D01*
Y12683D01*
X39710Y12885D01*
X39555Y13040D01*
X39353Y13124D01*
X39133D01*
X39105Y13112D01*
X39012Y13205D01*
X39084Y13312D01*
X39133Y13292D01*
X39353D01*
X39555Y13376D01*
X39710Y13531D01*
X39794Y13733D01*
Y13953D01*
X39710Y14155D01*
X39555Y14310D01*
X39433Y14361D01*
Y14542D01*
X39560Y14594D01*
X39758Y14512D01*
D02*
G37*
G36*
X41347Y11116D02*
X41596Y10867D01*
X41901Y10691D01*
X42242Y10599D01*
X42594D01*
X42935Y10691D01*
X43240Y10867D01*
X43473Y11100D01*
X43600Y11077D01*
Y10646D01*
X42263Y9308D01*
X41022D01*
X41014Y9432D01*
X41234Y9524D01*
X41403Y9693D01*
X41495Y9913D01*
Y10153D01*
X41403Y10373D01*
X41234Y10542D01*
X41014Y10634D01*
X40774D01*
X40749Y10751D01*
X40853Y10794D01*
X41022Y10963D01*
X41113Y11184D01*
Y11267D01*
X41240Y11301D01*
X41347Y11116D01*
D02*
G37*
G36*
X32657Y13552D02*
Y11596D01*
X32158D01*
Y9994D01*
X32569D01*
Y9913D01*
X32590Y9804D01*
X32652Y9712D01*
X32766Y9598D01*
X32726Y9459D01*
X32603Y9408D01*
X32503Y9308D01*
X30714D01*
X29646Y10376D01*
Y10472D01*
X29641Y10499D01*
Y11556D01*
X29641Y11596D01*
X29744Y11654D01*
X29763D01*
X29938Y11726D01*
X30072Y11860D01*
X30144Y12035D01*
Y12225D01*
X30072Y12400D01*
X29938Y12534D01*
X29936Y12534D01*
Y13500D01*
X30281D01*
Y14350D01*
X30381D01*
Y14450D01*
X31031D01*
Y15037D01*
X31172D01*
X32657Y13552D01*
D02*
G37*
%LPC*%
G36*
X40418Y26403D02*
X39168D01*
Y25553D01*
X40418D01*
Y26403D01*
D02*
G37*
G36*
X38968D02*
X37718D01*
Y25553D01*
X38968D01*
Y26403D01*
D02*
G37*
G36*
X40418Y25353D02*
X39168D01*
Y24503D01*
X40418D01*
Y25353D01*
D02*
G37*
G36*
X38968D02*
X37718D01*
Y24503D01*
X38968D01*
Y25353D01*
D02*
G37*
G36*
X58701Y42851D02*
X57499D01*
Y41525D01*
X57318Y41344D01*
X57201Y41393D01*
Y42851D01*
X55999D01*
Y41049D01*
X56857D01*
X56906Y40932D01*
X55360Y39385D01*
X47412D01*
Y39728D01*
X45750D01*
Y38476D01*
X47412D01*
Y38819D01*
X55477D01*
X55585Y38840D01*
X55677Y38902D01*
X57825Y41049D01*
X58701D01*
Y42851D01*
D02*
G37*
G36*
X52701D02*
X51499D01*
Y41654D01*
X51494Y41627D01*
Y41394D01*
X51318Y41219D01*
X51201Y41268D01*
Y42851D01*
X49999D01*
Y41450D01*
X49818Y41269D01*
X49701Y41318D01*
Y42851D01*
X48499D01*
Y41108D01*
X46458D01*
X46258Y41308D01*
X46166Y41370D01*
X46058Y41391D01*
X39849D01*
X39740Y41370D01*
X39648Y41308D01*
X38898Y40558D01*
X38830Y40576D01*
X38580D01*
X38338Y40511D01*
X38121Y40386D01*
X37944Y40209D01*
X37819Y39992D01*
X37754Y39750D01*
Y39500D01*
X37819Y39258D01*
X37944Y39041D01*
X38121Y38864D01*
X38338Y38739D01*
X38580Y38674D01*
X38830D01*
X39072Y38739D01*
X39289Y38864D01*
X39466Y39041D01*
X39591Y39258D01*
X39656Y39500D01*
Y39750D01*
X39591Y39992D01*
X39466Y40209D01*
X39408Y40267D01*
X39966Y40825D01*
X41878D01*
X41926Y40707D01*
X41687Y40468D01*
X41612Y40511D01*
X41370Y40576D01*
X41120D01*
X40878Y40511D01*
X40661Y40386D01*
X40484Y40209D01*
X40359Y39992D01*
X40294Y39750D01*
Y39500D01*
X40359Y39258D01*
X40484Y39041D01*
X40661Y38864D01*
X40878Y38739D01*
X41120Y38674D01*
X41370D01*
X41612Y38739D01*
X41829Y38864D01*
X42006Y39041D01*
X42131Y39258D01*
X42196Y39500D01*
Y39750D01*
X42131Y39992D01*
X42088Y40067D01*
X42440Y40420D01*
X42851D01*
X42911Y40308D01*
X42866Y40240D01*
X42823Y40025D01*
Y39225D01*
X42866Y39010D01*
X42988Y38828D01*
X43170Y38706D01*
X43385Y38663D01*
X43478D01*
Y38498D01*
X43501Y38381D01*
X43568Y38281D01*
X44714Y37135D01*
X44814Y37068D01*
X44931Y37045D01*
X45750D01*
Y36726D01*
X46274D01*
Y33886D01*
X45750D01*
Y32634D01*
X47412D01*
Y33886D01*
X46888D01*
Y36726D01*
X47412D01*
Y37978D01*
X45750D01*
Y37659D01*
X45058D01*
X44181Y38536D01*
X44182Y38572D01*
X44225Y38671D01*
X44400Y38706D01*
X44582Y38828D01*
X44704Y39010D01*
X44747Y39225D01*
Y40025D01*
X44704Y40240D01*
X44659Y40308D01*
X44719Y40420D01*
X45603D01*
X45803Y40220D01*
X45895Y40158D01*
X46003Y40137D01*
X50920D01*
X51028Y40158D01*
X51120Y40220D01*
X51950Y41049D01*
X52701D01*
Y42851D01*
D02*
G37*
G36*
X60201D02*
X58999D01*
Y41049D01*
X60201D01*
Y42851D01*
D02*
G37*
G36*
X55701D02*
X54499D01*
Y41049D01*
X55701D01*
Y42851D01*
D02*
G37*
G36*
X54201D02*
X52999D01*
Y41049D01*
X54201D01*
Y42851D01*
D02*
G37*
G36*
X15651Y42857D02*
X11349D01*
Y41939D01*
X9411D01*
X9303Y41918D01*
X9211Y41856D01*
X7625Y40271D01*
X7490Y40349D01*
X7203Y40426D01*
X6907D01*
X6620Y40349D01*
X6364Y40201D01*
X6154Y39991D01*
X6006Y39735D01*
X5929Y39448D01*
Y39152D01*
X6006Y38865D01*
X6154Y38609D01*
X6364Y38399D01*
X6620Y38251D01*
X6907Y38174D01*
X7203D01*
X7490Y38251D01*
X7746Y38399D01*
X7956Y38609D01*
X8104Y38865D01*
X8181Y39152D01*
Y39448D01*
X8104Y39735D01*
X8026Y39870D01*
X9528Y41373D01*
X11349D01*
Y40571D01*
X11349Y40455D01*
X11349Y40328D01*
Y39583D01*
X10685D01*
X10644Y39735D01*
X10496Y39991D01*
X10286Y40201D01*
X10030Y40349D01*
X9743Y40426D01*
X9447D01*
X9160Y40349D01*
X8904Y40201D01*
X8694Y39991D01*
X8546Y39735D01*
X8469Y39448D01*
Y39152D01*
X8546Y38865D01*
X8694Y38609D01*
X8904Y38399D01*
X9160Y38251D01*
X9447Y38174D01*
X9743D01*
X10030Y38251D01*
X10286Y38399D01*
X10496Y38609D01*
X10644Y38865D01*
X10685Y39017D01*
X11349D01*
Y38042D01*
X15651D01*
Y38960D01*
X16307D01*
X16307Y38959D01*
X16448Y38818D01*
X16632Y38742D01*
X16832D01*
X17016Y38818D01*
X17157Y38959D01*
X17233Y39143D01*
Y39343D01*
X17157Y39527D01*
X17016Y39668D01*
X16832Y39744D01*
X16632D01*
X16448Y39668D01*
X16307Y39527D01*
X16307Y39526D01*
X15651D01*
Y40328D01*
X15651Y40444D01*
X15651Y40571D01*
Y41373D01*
X15877D01*
X16099Y41150D01*
X16099Y41150D01*
Y40950D01*
X16175Y40766D01*
X16316Y40625D01*
X16500Y40549D01*
X16700D01*
X16884Y40625D01*
X17025Y40766D01*
X17101Y40950D01*
Y41150D01*
X17025Y41334D01*
X16884Y41475D01*
X16700Y41551D01*
X16500D01*
X16500Y41551D01*
X16194Y41856D01*
X16102Y41918D01*
X15994Y41939D01*
X15651D01*
Y42857D01*
D02*
G37*
G36*
X36297Y40625D02*
X36265D01*
Y39725D01*
X37165D01*
Y39757D01*
X37097Y40011D01*
X36965Y40239D01*
X36779Y40425D01*
X36551Y40557D01*
X36297Y40625D01*
D02*
G37*
G36*
X36065D02*
X36033D01*
X35779Y40557D01*
X35551Y40425D01*
X35365Y40239D01*
X35233Y40011D01*
X35165Y39757D01*
Y39725D01*
X36065D01*
Y40625D01*
D02*
G37*
G36*
X2463Y40481D02*
X2075D01*
Y39400D01*
X3156D01*
Y39787D01*
X3132Y39967D01*
X3063Y40134D01*
X2953Y40278D01*
X2809Y40388D01*
X2642Y40457D01*
X2463Y40481D01*
D02*
G37*
G36*
X1875D02*
X1487D01*
X1308Y40457D01*
X1141Y40388D01*
X997Y40278D01*
X887Y40134D01*
X818Y39967D01*
X794Y39787D01*
Y39400D01*
X1875D01*
Y40481D01*
D02*
G37*
G36*
X33529Y42857D02*
X29227D01*
Y40455D01*
X32667D01*
Y40175D01*
X32666Y40175D01*
X32525Y40034D01*
X32449Y39850D01*
Y39650D01*
X32525Y39466D01*
X32666Y39325D01*
X32850Y39249D01*
X33050D01*
X33234Y39325D01*
X33375Y39466D01*
X33451Y39650D01*
Y39850D01*
X33375Y40034D01*
X33234Y40175D01*
X33233Y40175D01*
Y40455D01*
X33529D01*
Y42857D01*
D02*
G37*
G36*
X37165Y39525D02*
X36265D01*
Y38625D01*
X36297D01*
X36551Y38693D01*
X36779Y38825D01*
X36965Y39011D01*
X37097Y39239D01*
X37165Y39493D01*
Y39525D01*
D02*
G37*
G36*
X36065D02*
X35165D01*
Y39493D01*
X35233Y39239D01*
X35365Y39011D01*
X35551Y38825D01*
X35779Y38693D01*
X36033Y38625D01*
X36065D01*
Y39525D01*
D02*
G37*
G36*
X31401Y40303D02*
X27099D01*
Y37901D01*
X31401D01*
Y38617D01*
X31750D01*
X31750Y38616D01*
X31891Y38475D01*
X32075Y38399D01*
X32275D01*
X32459Y38475D01*
X32600Y38616D01*
X32676Y38800D01*
Y39000D01*
X32600Y39184D01*
X32459Y39325D01*
X32275Y39401D01*
X32075D01*
X31891Y39325D01*
X31750Y39184D01*
X31750Y39183D01*
X31401D01*
Y40303D01*
D02*
G37*
G36*
X19030Y38750D02*
X18250D01*
Y38175D01*
X19030D01*
Y38750D01*
D02*
G37*
G36*
X18050D02*
X17270D01*
Y38175D01*
X18050D01*
Y38750D01*
D02*
G37*
G36*
X4663Y40426D02*
X4367D01*
X4080Y40349D01*
X3824Y40201D01*
X3614Y39991D01*
X3466Y39735D01*
X3389Y39448D01*
Y39152D01*
X3466Y38865D01*
X3614Y38609D01*
X3824Y38399D01*
X4080Y38251D01*
X4367Y38174D01*
X4663D01*
X4950Y38251D01*
X5206Y38399D01*
X5416Y38609D01*
X5564Y38865D01*
X5641Y39152D01*
Y39448D01*
X5564Y39735D01*
X5416Y39991D01*
X5206Y40201D01*
X4950Y40349D01*
X4663Y40426D01*
D02*
G37*
G36*
X3156Y39200D02*
X2075D01*
Y38119D01*
X2463D01*
X2642Y38143D01*
X2809Y38212D01*
X2953Y38322D01*
X3063Y38466D01*
X3132Y38633D01*
X3156Y38812D01*
Y39200D01*
D02*
G37*
G36*
X1875D02*
X794D01*
Y38812D01*
X818Y38633D01*
X887Y38466D01*
X997Y38322D01*
X1141Y38212D01*
X1308Y38143D01*
X1487Y38119D01*
X1875D01*
Y39200D01*
D02*
G37*
G36*
X19030Y37975D02*
X18250D01*
Y37400D01*
X19030D01*
Y37975D01*
D02*
G37*
G36*
X18050D02*
X17270D01*
Y37400D01*
X18050D01*
Y37975D01*
D02*
G37*
G36*
X18981Y36951D02*
X17319D01*
Y36554D01*
X16803D01*
Y36745D01*
X15942D01*
Y36241D01*
X15675Y35974D01*
X15558Y36023D01*
Y36745D01*
X14697D01*
Y36554D01*
X13790D01*
X13682Y36532D01*
X13590Y36471D01*
X12300Y35181D01*
X11449D01*
Y33519D01*
X11763D01*
Y29066D01*
X11428Y28731D01*
X11311Y28779D01*
Y29051D01*
X9809D01*
Y28449D01*
Y27449D01*
Y26449D01*
Y25600D01*
X9760D01*
Y25350D01*
X10560D01*
Y25150D01*
X9760D01*
Y25033D01*
X9314D01*
X8547Y25800D01*
X8455Y25862D01*
X8346Y25883D01*
X7015D01*
X6895Y26004D01*
X6720Y26076D01*
X6530D01*
X6355Y26004D01*
X6221Y25870D01*
X6149Y25695D01*
Y25505D01*
X6221Y25330D01*
X6355Y25196D01*
X6530Y25124D01*
X6576D01*
X6608Y25080D01*
X6642Y24997D01*
X6579Y24845D01*
Y24655D01*
X6651Y24480D01*
X6785Y24346D01*
X6832Y24327D01*
X6862Y24177D01*
X6800Y24115D01*
X6783Y24075D01*
X6766D01*
X6658Y24053D01*
X6566Y23992D01*
X3977Y21403D01*
X3915Y21311D01*
X3894Y21202D01*
Y16045D01*
X1425Y13575D01*
X1363Y13483D01*
X1342Y13375D01*
Y11851D01*
X399D01*
Y7549D01*
X2801D01*
Y11851D01*
X1908D01*
Y13258D01*
X4378Y15727D01*
X4439Y15819D01*
X4461Y15927D01*
Y21085D01*
X6788Y23412D01*
X6797Y23407D01*
X6814Y23246D01*
X5089Y21520D01*
X5028Y21428D01*
X5006Y21320D01*
Y13770D01*
X3800Y12564D01*
X3738Y12472D01*
X3717Y12363D01*
Y11851D01*
X2999D01*
Y7549D01*
X5401D01*
Y11851D01*
X4283D01*
Y12246D01*
X5490Y13452D01*
X5551Y13544D01*
X5573Y13653D01*
Y21202D01*
X6924Y22553D01*
X7061Y22511D01*
X7070Y22469D01*
X6872Y22271D01*
X6872Y22271D01*
X5850Y21249D01*
X5788Y21157D01*
X5767Y21048D01*
Y11851D01*
X5599D01*
Y7549D01*
X8001D01*
Y11549D01*
X8118Y11598D01*
X8294Y11423D01*
Y10662D01*
X8299Y10635D01*
Y7588D01*
X10701D01*
Y11890D01*
X8628D01*
X6758Y13760D01*
Y20296D01*
X8140Y21678D01*
X8738D01*
X8858Y21557D01*
X9033Y21485D01*
X9223D01*
X9398Y21557D01*
X9509Y21668D01*
X9610D01*
X9682Y21683D01*
X9809Y21605D01*
Y21100D01*
X9760D01*
Y20850D01*
X10560D01*
Y20650D01*
X9760D01*
Y20400D01*
X9809D01*
Y19949D01*
Y18949D01*
Y17949D01*
Y16949D01*
X10277D01*
Y16821D01*
X7049D01*
Y13819D01*
X10277D01*
Y12690D01*
X10298Y12582D01*
X10360Y12490D01*
X13080Y9769D01*
X13172Y9708D01*
X13281Y9686D01*
X13362D01*
Y9089D01*
X14564D01*
Y10691D01*
X13362D01*
Y10455D01*
X13245Y10407D01*
X10843Y12808D01*
Y16949D01*
X11311D01*
Y17273D01*
X11428Y17321D01*
X12443Y16307D01*
Y15562D01*
X12464Y15454D01*
X12526Y15362D01*
X13389Y14499D01*
Y13298D01*
X13576D01*
Y12914D01*
X13253D01*
Y11392D01*
X14465D01*
Y12914D01*
X14142D01*
Y13298D01*
X14590D01*
Y14900D01*
X13789D01*
X13609Y15081D01*
X13657Y15198D01*
X14590D01*
Y16800D01*
X13714D01*
X12063Y18450D01*
X12014Y18483D01*
X11985Y18610D01*
X11989Y18638D01*
X13298Y19947D01*
X13415Y19899D01*
Y19724D01*
X13706D01*
Y18883D01*
X13392D01*
Y17361D01*
X14604D01*
Y18883D01*
X14273D01*
Y19724D01*
X14617D01*
Y21326D01*
X13415D01*
Y20765D01*
X13397Y20756D01*
X13270Y20837D01*
Y21614D01*
X13274Y21616D01*
X13401Y21549D01*
Y21483D01*
X14603D01*
Y23085D01*
X13729D01*
X13681Y23202D01*
X13789Y23311D01*
X14590D01*
Y24913D01*
X13389D01*
Y23712D01*
X12529Y22852D01*
X12411Y22901D01*
Y24911D01*
X13229Y25729D01*
X13389D01*
Y25211D01*
X14590D01*
Y26813D01*
X13690D01*
X13642Y26930D01*
X13823Y27111D01*
X14590D01*
Y27507D01*
X14717Y27559D01*
X14730Y27546D01*
X14905Y27474D01*
X15095D01*
X15270Y27546D01*
X15404Y27680D01*
X15476Y27855D01*
Y28045D01*
X15404Y28220D01*
X15270Y28354D01*
X15095Y28426D01*
X14905D01*
X14730Y28354D01*
X14717Y28341D01*
X14590Y28393D01*
Y28713D01*
X13719D01*
X13666Y28840D01*
X13775Y28949D01*
X14576D01*
Y30551D01*
X13644D01*
X13596Y30668D01*
X13753Y30826D01*
X14554D01*
Y32428D01*
X13352D01*
Y31226D01*
X12852Y30726D01*
X12735Y30775D01*
Y32232D01*
X15202Y34699D01*
X15319Y34651D01*
Y34005D01*
X15518D01*
Y33923D01*
X15540Y33815D01*
X15601Y33723D01*
X16730Y32594D01*
X16682Y32477D01*
X16353D01*
Y31627D01*
Y30777D01*
X16859D01*
X16930Y30668D01*
X16894Y30600D01*
X16375D01*
Y29750D01*
Y28900D01*
X16792D01*
X16847Y28806D01*
X16823Y28762D01*
X16389D01*
Y27912D01*
Y27062D01*
X16908Y27062D01*
X16964Y26962D01*
X16908Y26862D01*
X16858Y26862D01*
X16389D01*
Y26012D01*
Y25162D01*
X16908Y25162D01*
X16964Y25062D01*
X16908Y24962D01*
X16858Y24962D01*
X16389D01*
Y24112D01*
Y23262D01*
X16791D01*
X16838Y23178D01*
X16812Y23134D01*
X16402D01*
Y22284D01*
X16302D01*
Y22184D01*
X15652D01*
Y21496D01*
X15652Y21434D01*
X15666Y21313D01*
Y20625D01*
X16316D01*
Y20525D01*
X16416D01*
Y19675D01*
X16966Y19675D01*
X16985Y19556D01*
Y18883D01*
X16663D01*
Y17361D01*
X16985D01*
Y16957D01*
X16940Y16849D01*
X16858Y16849D01*
X16389D01*
Y16099D01*
X16940D01*
Y16565D01*
X17066Y16603D01*
X17068Y16601D01*
X21116Y12553D01*
Y11352D01*
X22318D01*
Y12954D01*
X21517D01*
X17552Y16919D01*
Y17361D01*
X17875D01*
Y18883D01*
X17552D01*
Y32457D01*
X17530Y32565D01*
X17469Y32657D01*
X16230Y33896D01*
X16181Y34005D01*
X16181D01*
X16181Y34005D01*
Y34196D01*
X19843D01*
Y33917D01*
X23845D01*
Y35419D01*
X19843D01*
Y34763D01*
X16181D01*
Y34954D01*
X15623D01*
X15575Y35072D01*
X16298Y35796D01*
X16803D01*
Y35987D01*
X17319D01*
Y35699D01*
X18981D01*
Y36951D01*
D02*
G37*
G36*
X44824Y36210D02*
X43574D01*
Y35360D01*
X44824D01*
Y36210D01*
D02*
G37*
G36*
X56100Y35810D02*
Y35360D01*
X56550D01*
Y35810D01*
X56100D01*
D02*
G37*
G36*
X43374Y36210D02*
X42124D01*
Y35360D01*
X43374D01*
Y36210D01*
D02*
G37*
G36*
X53700Y35810D02*
X53250D01*
Y35360D01*
X53700D01*
Y35810D01*
D02*
G37*
G36*
X55450Y35810D02*
X55323Y35810D01*
X55000D01*
Y35260D01*
X54800D01*
Y35810D01*
X53900D01*
Y35260D01*
X53800D01*
Y35160D01*
X53250D01*
Y34837D01*
X53250Y34710D01*
X53250D01*
Y34710D01*
X53250D01*
Y34260D01*
X53800D01*
Y34060D01*
X53250D01*
Y33737D01*
X53250Y33610D01*
X53250D01*
Y33610D01*
X53250D01*
Y33160D01*
X53800D01*
Y33060D01*
X53900D01*
Y32510D01*
X54800D01*
Y33060D01*
X55000D01*
Y32510D01*
X55323D01*
X55450Y32510D01*
X55577Y32510D01*
X55900D01*
Y33060D01*
X56000D01*
Y33160D01*
X56550D01*
Y33483D01*
X56550Y33610D01*
X56550Y33737D01*
Y34060D01*
X56000D01*
Y34260D01*
X56550D01*
Y34583D01*
X56550Y34710D01*
X56550Y34837D01*
Y35160D01*
X56000D01*
Y35260D01*
X55900D01*
Y35810D01*
X55450D01*
D02*
G37*
G36*
X29100Y35800D02*
X28550D01*
Y35050D01*
X29100D01*
Y35800D01*
D02*
G37*
G36*
X28350D02*
X27800D01*
Y35050D01*
X28350D01*
Y35800D01*
D02*
G37*
G36*
X11000Y35230D02*
X10425D01*
Y34450D01*
X11000D01*
Y35230D01*
D02*
G37*
G36*
X10225D02*
X9650D01*
Y34450D01*
X10225D01*
Y35230D01*
D02*
G37*
G36*
X44824Y35160D02*
X43574D01*
Y34310D01*
X44824D01*
Y35160D01*
D02*
G37*
G36*
X43374D02*
X42124D01*
Y34310D01*
X43374D01*
Y35160D01*
D02*
G37*
G36*
X29100Y34850D02*
X28550D01*
Y34100D01*
X29100D01*
Y34850D01*
D02*
G37*
G36*
X28350D02*
X27800D01*
Y34100D01*
X28350D01*
Y34850D01*
D02*
G37*
G36*
X11000Y34250D02*
X10425D01*
Y33470D01*
X11000D01*
Y34250D01*
D02*
G37*
G36*
X10225D02*
X9650D01*
Y33470D01*
X10225D01*
Y34250D01*
D02*
G37*
G36*
X56550Y32960D02*
X56100D01*
Y32510D01*
X56550D01*
Y32960D01*
D02*
G37*
G36*
X53700Y32960D02*
X53250D01*
Y32510D01*
X53700D01*
Y32960D01*
D02*
G37*
G36*
X16153Y32477D02*
X15603D01*
Y31727D01*
X16153D01*
Y32477D01*
D02*
G37*
G36*
Y31527D02*
X15603D01*
Y30777D01*
X16153D01*
Y31527D01*
D02*
G37*
G36*
X31167Y30883D02*
X30417D01*
Y30333D01*
X31167D01*
Y30883D01*
D02*
G37*
G36*
X30217D02*
X29467D01*
Y30333D01*
X30217D01*
Y30883D01*
D02*
G37*
G36*
X33108D02*
X32358D01*
Y30333D01*
X33108D01*
Y30883D01*
D02*
G37*
G36*
X32158D02*
X31408D01*
Y30333D01*
X32158D01*
Y30883D01*
D02*
G37*
G36*
X16175Y30600D02*
X15625D01*
Y29850D01*
X16175D01*
Y30600D01*
D02*
G37*
G36*
X33108Y30133D02*
X32358D01*
Y29583D01*
X33108D01*
Y30133D01*
D02*
G37*
G36*
X32158D02*
X31408D01*
Y29583D01*
X32158D01*
Y30133D01*
D02*
G37*
G36*
X31167Y30133D02*
X30417D01*
Y29583D01*
X31167D01*
Y30133D01*
D02*
G37*
G36*
X30217D02*
X29467D01*
Y29583D01*
X30217D01*
Y30133D01*
D02*
G37*
G36*
X37553Y29867D02*
X36803D01*
Y29317D01*
X37553D01*
Y29867D01*
D02*
G37*
G36*
X36603D02*
X35853D01*
Y29317D01*
X36603D01*
Y29867D01*
D02*
G37*
G36*
X39592D02*
X38842D01*
Y29317D01*
X39592D01*
Y29867D01*
D02*
G37*
G36*
X38642D02*
X37892D01*
Y29317D01*
X38642D01*
Y29867D01*
D02*
G37*
G36*
X10351Y32181D02*
X7049D01*
Y29179D01*
X10351D01*
Y32181D01*
D02*
G37*
G36*
X16175Y29650D02*
X15625D01*
Y28900D01*
X16175D01*
Y29650D01*
D02*
G37*
G36*
X16189Y28762D02*
X15639D01*
Y28012D01*
X16189D01*
Y28762D01*
D02*
G37*
G36*
Y27812D02*
X15639D01*
Y27062D01*
X16189D01*
Y27812D01*
D02*
G37*
G36*
Y26862D02*
X15639D01*
Y26112D01*
X16189D01*
Y26862D01*
D02*
G37*
G36*
X21217Y25987D02*
X20667D01*
Y25237D01*
X21217D01*
Y25987D01*
D02*
G37*
G36*
X20467D02*
X19917D01*
Y25237D01*
X20467D01*
Y25987D01*
D02*
G37*
G36*
X16189Y25912D02*
X15639D01*
Y25162D01*
X16189D01*
Y25912D01*
D02*
G37*
G36*
X21217Y25037D02*
X20667D01*
Y24287D01*
X21217D01*
Y25037D01*
D02*
G37*
G36*
X20467D02*
X19917D01*
Y24287D01*
X20467D01*
Y25037D01*
D02*
G37*
G36*
X16189Y24962D02*
X15639D01*
Y24212D01*
X16189D01*
Y24962D01*
D02*
G37*
G36*
X49750Y24350D02*
X49200D01*
Y23500D01*
X49750D01*
Y24350D01*
D02*
G37*
G36*
X49000D02*
X48450D01*
Y23500D01*
X49000D01*
Y24350D01*
D02*
G37*
G36*
X21200Y24151D02*
X20650D01*
Y23401D01*
X21200D01*
Y24151D01*
D02*
G37*
G36*
X20450D02*
X19900D01*
Y23401D01*
X20450D01*
Y24151D01*
D02*
G37*
G36*
X16189Y24012D02*
X15639D01*
Y23262D01*
X16189D01*
Y24012D01*
D02*
G37*
G36*
X21200Y23201D02*
X20650D01*
Y22451D01*
X21200D01*
Y23201D01*
D02*
G37*
G36*
X20450D02*
X19900D01*
Y22451D01*
X20450D01*
Y23201D01*
D02*
G37*
G36*
X16202Y23134D02*
X15652D01*
Y22384D01*
X16202D01*
Y23134D01*
D02*
G37*
G36*
X57621Y22209D02*
X57071D01*
Y21459D01*
X57621D01*
Y22209D01*
D02*
G37*
G36*
X56871D02*
X56321D01*
Y21459D01*
X56871D01*
Y22209D01*
D02*
G37*
G36*
X57621Y21271D02*
X57071D01*
Y20521D01*
X57621D01*
Y21271D01*
D02*
G37*
G36*
X56871D02*
X56321D01*
Y20521D01*
X56871D01*
Y21271D01*
D02*
G37*
G36*
X40504Y20550D02*
X39724D01*
Y19975D01*
X40504D01*
Y20550D01*
D02*
G37*
G36*
X39524D02*
X38744D01*
Y19975D01*
X39524D01*
Y20550D01*
D02*
G37*
G36*
X48470Y20498D02*
X47218D01*
Y19974D01*
X46967D01*
Y20498D01*
X45715D01*
Y18836D01*
X45715Y18836D01*
X45715D01*
X45672Y18724D01*
X45503Y18555D01*
X45436Y18455D01*
X45413Y18338D01*
Y17885D01*
X45316Y17789D01*
X45244Y17614D01*
Y17424D01*
X45316Y17249D01*
X45450Y17115D01*
X45625Y17043D01*
X45815D01*
X45990Y17115D01*
X46124Y17249D01*
X46196Y17424D01*
Y17614D01*
X46124Y17789D01*
X46027Y17885D01*
Y18118D01*
X46154Y18143D01*
X46205Y18018D01*
X46326Y17898D01*
Y16640D01*
X46055D01*
Y14978D01*
X47307D01*
Y15306D01*
X47424Y15355D01*
X47464Y15315D01*
X47556Y15253D01*
X47665Y15232D01*
X48013D01*
Y14602D01*
X48893D01*
Y16428D01*
X48013D01*
Y15799D01*
X47782D01*
X47571Y16009D01*
X47479Y16071D01*
X47371Y16092D01*
X47307D01*
Y16640D01*
X46892D01*
Y17898D01*
X47013Y18018D01*
X47085Y18193D01*
Y18383D01*
X47013Y18558D01*
X46879Y18692D01*
X46837Y18709D01*
X46862Y18836D01*
X46967D01*
Y19360D01*
X47218D01*
Y18836D01*
X48470D01*
Y20498D01*
D02*
G37*
G36*
X45266Y20547D02*
X44691D01*
Y19767D01*
X45266D01*
Y20547D01*
D02*
G37*
G36*
X44491D02*
X43916D01*
Y19767D01*
X44491D01*
Y20547D01*
D02*
G37*
G36*
X16216Y20425D02*
X15666D01*
Y19675D01*
X16216D01*
Y20425D01*
D02*
G37*
G36*
X57621Y20321D02*
X57071D01*
Y19571D01*
X57621D01*
Y20321D01*
D02*
G37*
G36*
X40504Y19775D02*
X39724D01*
Y19200D01*
X40504D01*
Y19775D01*
D02*
G37*
G36*
X39524D02*
X38744D01*
Y19200D01*
X39524D01*
Y19775D01*
D02*
G37*
G36*
X45266Y19567D02*
X44691D01*
Y18787D01*
X45266D01*
Y19567D01*
D02*
G37*
G36*
X44491D02*
X43916D01*
Y18787D01*
X44491D01*
Y19567D01*
D02*
G37*
G36*
X21236Y18169D02*
X20486D01*
Y17619D01*
X21236D01*
Y18169D01*
D02*
G37*
G36*
Y17419D02*
X20486D01*
Y16869D01*
X21236D01*
Y17419D01*
D02*
G37*
G36*
X16189Y16849D02*
X15639D01*
Y16099D01*
X16189D01*
Y16849D01*
D02*
G37*
G36*
X45606Y16689D02*
X45031D01*
Y15909D01*
X45606D01*
Y16689D01*
D02*
G37*
G36*
X50453Y16467D02*
Y15615D01*
X50852D01*
Y15988D01*
X50814Y16179D01*
X50706Y16341D01*
X50544Y16449D01*
X50453Y16467D01*
D02*
G37*
G36*
X50253Y16467D02*
X50162Y16449D01*
X50000Y16341D01*
X49892Y16179D01*
X49854Y15988D01*
Y15615D01*
X50253D01*
Y16467D01*
D02*
G37*
G36*
X16940Y15899D02*
X16389D01*
Y15149D01*
X16940D01*
Y15899D01*
D02*
G37*
G36*
X16189D02*
X15639D01*
Y15149D01*
X16189D01*
Y15899D01*
D02*
G37*
G36*
X45606Y15709D02*
X45031D01*
Y14929D01*
X45606D01*
Y15709D01*
D02*
G37*
G36*
X35648Y15309D02*
X34898D01*
Y14759D01*
X35648D01*
Y15309D01*
D02*
G37*
G36*
X34698D02*
X33948D01*
Y14759D01*
X34698D01*
Y15309D01*
D02*
G37*
G36*
X50852Y15415D02*
X50453D01*
Y14563D01*
X50544Y14581D01*
X50706Y14690D01*
X50814Y14851D01*
X50852Y15042D01*
Y15415D01*
D02*
G37*
G36*
X50253D02*
X49854D01*
Y15042D01*
X49892Y14851D01*
X50000Y14690D01*
X50162Y14581D01*
X50253Y14563D01*
Y15415D01*
D02*
G37*
G36*
X25025Y15200D02*
X24475D01*
Y14450D01*
X25025D01*
Y15200D01*
D02*
G37*
G36*
X24275D02*
X23725D01*
Y14450D01*
X24275D01*
Y15200D01*
D02*
G37*
G36*
X16940Y14949D02*
X16389D01*
Y14199D01*
X16940D01*
Y14949D01*
D02*
G37*
G36*
X16189D02*
X15639D01*
Y14199D01*
X16189D01*
Y14949D01*
D02*
G37*
G36*
X34698Y14559D02*
X33948D01*
Y14009D01*
X34698D01*
Y14559D01*
D02*
G37*
G36*
X25025Y14250D02*
X24475D01*
Y13500D01*
X25025D01*
Y14250D01*
D02*
G37*
G36*
X24275D02*
X23725D01*
Y13500D01*
X24275D01*
Y14250D01*
D02*
G37*
G36*
X57099Y13809D02*
X56492D01*
Y13352D01*
X56752D01*
X56885Y13379D01*
X56997Y13454D01*
X57072Y13566D01*
X57099Y13699D01*
Y13809D01*
D02*
G37*
G36*
X56292D02*
X55685D01*
Y13699D01*
X55712Y13566D01*
X55787Y13454D01*
X55899Y13379D01*
X56032Y13352D01*
X56292D01*
Y13809D01*
D02*
G37*
G36*
X16940Y13999D02*
X16389D01*
Y13249D01*
X16940D01*
Y13999D01*
D02*
G37*
G36*
X16189D02*
X15639D01*
Y13249D01*
X16189D01*
Y13999D01*
D02*
G37*
G36*
X49403Y14617D02*
X49231Y14582D01*
X49086Y14485D01*
X48989Y14340D01*
X48954Y14168D01*
Y13222D01*
X48989Y13050D01*
X49086Y12904D01*
X49231Y12807D01*
X49403Y12773D01*
X49575Y12807D01*
X49720Y12904D01*
X49817Y13050D01*
X49846Y13193D01*
X51747D01*
Y12850D01*
X53409D01*
Y14102D01*
X51747D01*
Y13759D01*
X49852D01*
Y14168D01*
X49817Y14340D01*
X49720Y14485D01*
X49575Y14582D01*
X49403Y14617D01*
D02*
G37*
G36*
X20018Y12954D02*
X18816D01*
Y12436D01*
X17735D01*
Y12914D01*
X16523D01*
Y11392D01*
X17735D01*
Y11870D01*
X18816D01*
Y11352D01*
X19108D01*
X19123Y11225D01*
X19029Y11131D01*
X17908D01*
Y9919D01*
X19430D01*
Y10730D01*
X19617Y10918D01*
X19679Y11010D01*
X19700Y11118D01*
Y11352D01*
X20018D01*
Y12954D01*
D02*
G37*
G36*
X56941Y12675D02*
X56391D01*
Y11925D01*
X56941D01*
Y12675D01*
D02*
G37*
G36*
X56191D02*
X55641D01*
Y11925D01*
X56191D01*
Y12675D01*
D02*
G37*
G36*
X35709Y11645D02*
X35159D01*
Y10895D01*
X35709D01*
Y11645D01*
D02*
G37*
G36*
X28216D02*
X27666D01*
Y10895D01*
X28216D01*
Y11645D01*
D02*
G37*
G36*
X34959D02*
X34409D01*
Y10895D01*
X34959D01*
Y11645D01*
D02*
G37*
G36*
X27466D02*
X26916D01*
Y10895D01*
X27466D01*
Y11645D01*
D02*
G37*
G36*
X16913Y10740D02*
X16363D01*
Y9990D01*
X16913D01*
Y10740D01*
D02*
G37*
G36*
X16163D02*
X15613D01*
Y9990D01*
X16163D01*
Y10740D01*
D02*
G37*
G36*
X35709Y10695D02*
X35159D01*
Y9945D01*
X35709D01*
Y10695D01*
D02*
G37*
G36*
X34959D02*
X34409D01*
Y9945D01*
X34959D01*
Y10695D01*
D02*
G37*
G36*
X28216D02*
X27666D01*
Y9945D01*
X28216D01*
Y10695D01*
D02*
G37*
G36*
X27466D02*
X26916D01*
Y9945D01*
X27466D01*
Y10695D01*
D02*
G37*
G36*
X46984Y10178D02*
Y9628D01*
X47734D01*
Y10178D01*
X46984D01*
D02*
G37*
G36*
X44971Y10175D02*
X44221D01*
Y9625D01*
X44971D01*
Y10175D01*
D02*
G37*
G36*
X16913Y9790D02*
X16363D01*
Y9040D01*
X16913D01*
Y9790D01*
D02*
G37*
G36*
X16163D02*
X15613D01*
Y9040D01*
X16163D01*
Y9790D01*
D02*
G37*
G36*
X47734Y9428D02*
X46984D01*
Y8878D01*
X47734D01*
Y9428D01*
D02*
G37*
G36*
X44971Y9425D02*
X44221D01*
Y8875D01*
X44971D01*
Y9425D01*
D02*
G37*
G36*
X46034Y10178D02*
X45908Y10175D01*
X45171D01*
Y9525D01*
Y8875D01*
X45908D01*
X45921Y8875D01*
X46047Y8878D01*
X46784D01*
Y9528D01*
Y10178D01*
X46047D01*
X46034Y10178D01*
D02*
G37*
G36*
X19479Y7910D02*
X18769D01*
Y7355D01*
X19479D01*
Y7910D01*
D02*
G37*
G36*
X18569D02*
X17859D01*
Y7355D01*
X18569D01*
Y7910D01*
D02*
G37*
G36*
X19479Y7155D02*
X18769D01*
Y6600D01*
X19479D01*
Y7155D01*
D02*
G37*
G36*
X18569D02*
X17859D01*
Y6600D01*
X18569D01*
Y7155D01*
D02*
G37*
G36*
X46356Y6284D02*
X45106D01*
Y5434D01*
X46356D01*
Y6284D01*
D02*
G37*
G36*
X44906D02*
X43656D01*
Y5434D01*
X44906D01*
Y6284D01*
D02*
G37*
G36*
X15375Y5875D02*
X13275D01*
Y4725D01*
X15375D01*
Y5875D01*
D02*
G37*
G36*
X13075D02*
X10975D01*
Y4725D01*
X13075D01*
Y5875D01*
D02*
G37*
G36*
X57005Y5725D02*
X56950D01*
Y4650D01*
X58025D01*
Y4705D01*
X57945Y5004D01*
X57790Y5271D01*
X57571Y5490D01*
X57304Y5645D01*
X57005Y5725D01*
D02*
G37*
G36*
X56750D02*
X56695D01*
X56396Y5645D01*
X56129Y5490D01*
X55910Y5271D01*
X55755Y5004D01*
X55675Y4705D01*
Y4650D01*
X56750D01*
Y5725D01*
D02*
G37*
G36*
X25361Y12629D02*
X25171D01*
X24996Y12557D01*
X24862Y12423D01*
X24790Y12248D01*
Y12058D01*
X24862Y11883D01*
X24983Y11763D01*
Y11596D01*
X24665D01*
Y9994D01*
X24983D01*
Y9500D01*
X23240Y7757D01*
X23178Y7665D01*
X23157Y7556D01*
Y7043D01*
X20489D01*
Y4641D01*
X26391D01*
Y7043D01*
X23723D01*
Y7439D01*
X25466Y9182D01*
X25528Y9274D01*
X25549Y9382D01*
Y9994D01*
X25867D01*
Y11596D01*
X25549D01*
Y11763D01*
X25670Y11883D01*
X25742Y12058D01*
Y12248D01*
X25670Y12423D01*
X25536Y12557D01*
X25361Y12629D01*
D02*
G37*
G36*
X56850Y4550D02*
D01*
D01*
D01*
D02*
G37*
G36*
X46356Y5234D02*
X45106D01*
Y4384D01*
X46356D01*
Y5234D01*
D02*
G37*
G36*
X44906D02*
X43656D01*
Y4384D01*
X44906D01*
Y5234D01*
D02*
G37*
G36*
X58025Y4450D02*
X56950D01*
Y3375D01*
X57005D01*
X57304Y3455D01*
X57571Y3610D01*
X57790Y3829D01*
X57945Y4096D01*
X58025Y4395D01*
Y4450D01*
D02*
G37*
G36*
X56750D02*
X55675D01*
Y4395D01*
X55755Y4096D01*
X55910Y3829D01*
X56129Y3610D01*
X56396Y3455D01*
X56695Y3375D01*
X56750D01*
Y4450D01*
D02*
G37*
G36*
X15375Y4525D02*
X13275D01*
Y3375D01*
X15375D01*
Y4525D01*
D02*
G37*
G36*
X13075D02*
X10975D01*
Y3375D01*
X13075D01*
Y4525D01*
D02*
G37*
%LPD*%
G36*
X14697Y35796D02*
X15331D01*
X15379Y35678D01*
X12447Y32746D01*
X12330Y32795D01*
Y33519D01*
X12701D01*
Y34780D01*
X13908Y35987D01*
X14697D01*
Y35796D01*
D02*
G37*
%LPC*%
G36*
X31031Y14250D02*
X30481D01*
Y13500D01*
X31031D01*
Y14250D01*
D02*
G37*
G36*
X31990Y11645D02*
X31440D01*
Y10895D01*
X31990D01*
Y11645D01*
D02*
G37*
G36*
X31240D02*
X30690D01*
Y10895D01*
X31240D01*
Y11645D01*
D02*
G37*
G36*
X31990Y10695D02*
X31440D01*
Y9945D01*
X31990D01*
Y10695D01*
D02*
G37*
G36*
X31240D02*
X30690D01*
Y9945D01*
X31240D01*
Y10695D01*
D02*
G37*
%LPD*%
D10*
X13500Y39243D02*
D03*
X29250Y39102D02*
D03*
X13500Y41656D02*
D03*
X13175Y4625D02*
D03*
X31378Y41656D02*
D03*
D11*
X1600Y9700D02*
D03*
X6800D02*
D03*
X4200D02*
D03*
X9500Y9739D02*
D03*
D13*
X50600Y24450D02*
Y24750D01*
X50300Y25050D02*
X50600Y24750D01*
X50227Y25050D02*
X50300D01*
X45816Y25501D02*
X49776D01*
X50227Y25050D01*
X32279Y29010D02*
X33457D01*
X22850D02*
X32279D01*
X32258Y27933D02*
X32279Y27954D01*
Y29010D01*
X45069Y11833D02*
X45074Y11828D01*
X26692Y14369D02*
X28081D01*
X33457Y29010D02*
X34019Y28448D01*
X45099D01*
X11700Y25422D02*
X13990Y27712D01*
X11700Y22101D02*
Y25422D01*
X55522Y16923D02*
X57027D01*
X58414Y15986D02*
X58591Y15809D01*
X57027Y16923D02*
X57964Y15986D01*
X58414D01*
X55455Y16990D02*
X55522Y16923D01*
X8982Y23378D02*
X9110Y23250D01*
X8874Y23378D02*
X8982D01*
X9610Y21975D02*
X9884Y22250D01*
X10560D01*
X9142Y21975D02*
X9610D01*
X9128Y21961D02*
X9142Y21975D01*
X9110Y23250D02*
X10560D01*
X8874Y23217D02*
Y23378D01*
X13990Y27712D02*
Y27912D01*
X14028Y27950D01*
X15000D01*
X24750Y19750D02*
X27400D01*
X29578Y21928D01*
X23104Y19750D02*
X24750D01*
X46889Y11833D02*
X50600D01*
Y10119D02*
Y11833D01*
X46884Y11828D02*
X46889Y11833D01*
X30317Y27933D02*
X32258D01*
X30317D02*
X30467Y27783D01*
Y27209D02*
Y27783D01*
X31748Y25252D02*
X31750Y25250D01*
X30467Y27209D02*
X31748Y25928D01*
Y25252D02*
Y25928D01*
X26675Y13201D02*
Y14350D01*
X59271Y22309D02*
X60017D01*
X61100Y23392D02*
Y24450D01*
X60017Y22309D02*
X61100Y23392D01*
X59271Y20421D02*
Y22309D01*
X45074Y11828D02*
X46884D01*
X44150Y13700D02*
X45069Y12781D01*
Y11833D02*
Y12781D01*
X41975Y17209D02*
X42811D01*
X44150Y15870D01*
Y13700D02*
Y15870D01*
X26150Y34950D02*
Y36518D01*
Y33408D02*
Y34950D01*
X23440Y23301D02*
X23886Y23748D01*
X22850Y23301D02*
X23440D01*
X23886Y23748D02*
X24748D01*
X24750Y23750D01*
X22850Y29010D02*
Y30108D01*
Y27912D02*
Y29010D01*
Y30108D02*
X26150Y33408D01*
X21844Y37468D02*
X25200D01*
X26150Y36518D01*
X43785Y38498D02*
X44931Y37352D01*
X22850Y25154D02*
Y27912D01*
Y25154D02*
X22867Y25137D01*
X59271Y20421D02*
X60721D01*
X45125Y27275D02*
Y28422D01*
X10560Y21750D02*
X11349D01*
X11700Y22101D01*
X10560Y21250D02*
Y21750D01*
X22850Y25120D02*
X22867Y25137D01*
X40629Y17209D02*
X41975D01*
X42964Y21590D02*
X43014Y21540D01*
Y21091D02*
Y21540D01*
Y21091D02*
X43055Y21050D01*
Y20750D02*
Y21050D01*
X41975Y17209D02*
Y19670D01*
X43055Y20750D01*
X46581Y33260D02*
Y37352D01*
X44931D02*
X46581D01*
X43785Y38498D02*
Y39625D01*
X45074Y28473D02*
X45099Y28448D01*
X45074Y28473D02*
Y30233D01*
X45099Y28448D02*
X45125Y28422D01*
X42964Y25114D02*
X45125Y27275D01*
X42964Y21590D02*
Y25114D01*
X23100Y19754D02*
X23104Y19750D01*
X22422Y19754D02*
X23100D01*
X22357Y19819D02*
X22422Y19754D01*
X21336Y19819D02*
X22357D01*
X24750Y19250D02*
X26100D01*
X26875Y18475D01*
X32054Y18250D02*
X33250D01*
X31750Y16750D02*
Y17946D01*
X32054Y18250D01*
X40629Y14269D02*
Y17209D01*
X40629Y17209D02*
X40629Y17209D01*
X35048Y17209D02*
X40629D01*
X40513Y13843D02*
X40609Y13939D01*
Y14248D01*
X40629Y14269D01*
X27750Y15809D02*
Y16750D01*
X28081Y14369D02*
Y15478D01*
X27750Y15809D02*
X28081Y15478D01*
X22850Y23301D02*
Y25120D01*
X34798Y16959D02*
X35048Y17209D01*
X33250Y18250D02*
X34290D01*
X34798Y16959D02*
Y17742D01*
X34290Y18250D02*
X34798Y17742D01*
X45768Y25453D02*
X45816Y25501D01*
X46341Y19667D02*
X47844D01*
X46341Y18959D02*
Y19667D01*
X45720Y17519D02*
Y18338D01*
X46341Y18959D01*
X59612Y15583D02*
X60833D01*
D14*
X46849Y28448D02*
X48369D01*
X52100Y24450D02*
Y24750D01*
X51777Y25073D02*
X52100Y24750D01*
X51744Y25073D02*
X51777D01*
X48369Y28448D02*
X51744Y25073D01*
X52937Y18238D02*
Y18536D01*
X53249Y18848D01*
X55496D01*
X52578Y17879D02*
X52937Y18238D01*
X52578Y15226D02*
Y17879D01*
X13591Y16522D02*
X13667D01*
X10560Y18250D02*
X11863D01*
X13990Y15999D02*
Y16199D01*
X13667Y16522D02*
X13990Y16199D01*
X11863Y18250D02*
X13591Y16522D01*
X12533Y20729D02*
Y22455D01*
X13990Y23912D01*
X6475Y13642D02*
X8505Y11612D01*
X6475Y20414D02*
X8022Y21961D01*
X6475Y13642D02*
Y20414D01*
X49594Y19667D02*
X55960D01*
X56906Y18721D02*
X58591D01*
X55960Y19667D02*
X56906Y18721D01*
X55496Y18848D02*
X56425Y17919D01*
X58468D01*
X58918Y17469D01*
Y17344D02*
Y17469D01*
Y17344D02*
X58991Y17271D01*
X17268Y16801D02*
Y18122D01*
Y16801D02*
X21717Y12353D01*
Y12153D02*
Y12353D01*
X17268Y18122D02*
Y32457D01*
X10560Y12690D02*
Y17250D01*
X13281Y9970D02*
X13883D01*
X13963Y9890D01*
X10560Y12690D02*
X13281Y9970D01*
X8577Y10662D02*
Y11612D01*
X8505D02*
X8577D01*
Y10662D02*
X9500Y9739D01*
X4000Y12363D02*
X5289Y13653D01*
Y21320D02*
X7187Y23217D01*
X5289Y13653D02*
Y21320D01*
X4000Y9675D02*
Y12363D01*
X13112Y26012D02*
X13990D01*
X12128Y21003D02*
Y25028D01*
X13112Y26012D01*
X13790Y36271D02*
X15127D01*
X12047Y34527D02*
Y34527D01*
X12423Y34903D01*
X12423D01*
X13790Y36271D01*
X12451Y32349D02*
X16176Y36074D01*
X12451Y28573D02*
Y32349D01*
X16176Y36074D02*
X16220D01*
X16372Y36226D02*
Y36271D01*
X16220Y36074D02*
X16372Y36226D01*
X35774Y21765D02*
X35850D01*
X35259Y21250D02*
X35774Y21765D01*
X35777Y22580D02*
X36671D01*
X33250Y21750D02*
X34947D01*
X35777Y22580D01*
X36671D02*
X36703Y22612D01*
X52573Y22009D02*
X53734D01*
X52554Y22028D02*
X52573Y22009D01*
X53734D02*
X55100Y23375D01*
Y24450D01*
X53594Y22860D02*
Y24444D01*
X53600Y24450D01*
X35096Y22750D02*
X35596Y23250D01*
X37395D01*
X15802Y33923D02*
Y34428D01*
X15750Y34479D02*
X15802Y34428D01*
Y33923D02*
X17268Y32457D01*
X12047Y28948D02*
Y34527D01*
X18096Y36271D02*
X18150Y36325D01*
X16372Y36271D02*
X18096D01*
X15750Y34479D02*
X15840D01*
X21656D01*
X21844Y34668D01*
X38306Y5334D02*
Y6892D01*
X37338Y7860D02*
X38306Y6892D01*
X37338Y7860D02*
Y9025D01*
X1625Y9700D02*
Y13375D01*
X4177Y15927D01*
X8713Y23217D02*
X8874Y23378D01*
X8022Y21961D02*
X9128D01*
X6050Y21048D02*
X7072Y22071D01*
X6050Y10280D02*
Y21048D01*
Y10280D02*
X6625Y9705D01*
X7673Y22750D02*
X7834Y22589D01*
X7535Y22678D02*
X7608Y22750D01*
X22564Y20250D02*
X24750D01*
X21336Y21478D02*
X22564Y20250D01*
X7187Y23217D02*
X8713D01*
X4177Y15927D02*
Y21202D01*
X6766Y23791D01*
X7150D01*
X7203Y23845D01*
X9229D01*
X25658Y16750D02*
X26250D01*
X25316Y17091D02*
X25658Y16750D01*
X23495Y17091D02*
X25316D01*
X9324Y23750D02*
X10560D01*
X9229Y23845D02*
X9324Y23750D01*
X24750Y18750D02*
X24750Y18750D01*
X22564Y19080D02*
Y19103D01*
Y19080D02*
X22894Y18750D01*
X24750D01*
X32027Y41656D02*
X32950Y40733D01*
X31378Y41656D02*
X32027D01*
X32950Y39750D02*
Y40733D01*
X33250Y21250D02*
X35259D01*
X29800Y39300D02*
X30200Y38900D01*
X32175D01*
X35911Y21095D02*
X36957D01*
X35565Y20750D02*
X35911Y21095D01*
X33250Y20750D02*
X35565D01*
X13443Y39300D02*
X13500Y39243D01*
X9595Y39300D02*
X13443D01*
X13500Y39243D02*
X16732D01*
X9411Y41656D02*
X13500D01*
X7055Y39300D02*
X9411Y41656D01*
X13500D02*
X15994D01*
X16600Y41050D01*
X27421Y30975D02*
Y31082D01*
X27256Y30810D02*
X27421Y30975D01*
X27256Y29829D02*
Y30810D01*
X27250Y29823D02*
X27256Y29829D01*
X13262Y28836D02*
X13976Y29550D01*
X10560Y28250D02*
X11348D01*
X12047Y28948D01*
X12856Y30330D02*
X13953Y31427D01*
X13262Y27992D02*
Y28836D01*
X12856Y28405D02*
Y30330D01*
X12020Y26750D02*
X13262Y27992D01*
X10560Y26750D02*
X12020D01*
X30206Y22651D02*
X30750Y23195D01*
X30206Y21175D02*
Y22651D01*
X30750Y23195D02*
Y25250D01*
X30121Y21090D02*
X30206Y21175D01*
X30749Y22621D02*
X31878Y23750D01*
X30749Y18650D02*
Y22621D01*
X13990Y23912D02*
Y24112D01*
X54900Y34160D02*
X56000D01*
X54900D02*
Y35260D01*
X53800Y34160D02*
X54900D01*
Y33060D02*
Y34160D01*
X7072Y22071D02*
X7072D01*
X7607Y22606D01*
X7055Y24750D02*
X8094D01*
X7834Y22589D02*
X9134D01*
X8594Y24250D02*
X10560D01*
X9134Y22589D02*
X9295Y22750D01*
X8094Y24750D02*
X8594Y24250D01*
X7608Y22750D02*
X7673D01*
X9295D02*
X10560D01*
X6625Y25600D02*
X8346D01*
X9196Y24750D02*
X10560D01*
X8346Y25600D02*
X9196Y24750D01*
X12726Y15562D02*
Y16425D01*
Y15562D02*
X13990Y14299D01*
X11401Y17750D02*
X12726Y16425D01*
X13990Y14099D02*
Y14299D01*
X10560Y17750D02*
X11401D01*
X25266Y9382D02*
Y12153D01*
X30597Y9025D02*
X32852D01*
X29040Y10795D02*
X29363Y10472D01*
Y10259D02*
Y10472D01*
Y10259D02*
X30597Y9025D01*
X29040Y10795D02*
Y15333D01*
X29653Y12145D02*
Y15292D01*
Y12145D02*
X29668Y12130D01*
X36203Y19750D02*
X36703Y19250D01*
X33250Y19750D02*
X36203D01*
X37395Y20250D02*
X38712Y21567D01*
X33250Y20250D02*
X37395D01*
X32759Y10795D02*
X32940Y10976D01*
Y13669D01*
X31289Y15320D02*
X32940Y13669D01*
X32852Y9025D02*
X32872Y9004D01*
X32852Y9913D02*
Y10702D01*
X33600Y6502D02*
Y9165D01*
X32759Y10795D02*
X32852Y10702D01*
Y9913D02*
X33600Y9165D01*
X53051Y5609D02*
X54591Y7149D01*
Y13357D01*
X50840Y5609D02*
X53051D01*
X54300Y21784D02*
X55753Y23237D01*
X54300Y21784D02*
Y21784D01*
X55753Y23237D02*
X58687D01*
X52937Y20421D02*
X54300Y21784D01*
X13960Y22183D02*
X13990Y22212D01*
X13320Y22183D02*
X13960D01*
X12987Y21850D02*
X13320Y22183D01*
X13876Y20384D02*
X14016Y20525D01*
X13334Y20384D02*
X13876D01*
X11700Y18750D02*
X13334Y20384D01*
X36068Y13589D02*
X36747D01*
X36874Y13462D02*
X38354D01*
X36016Y13641D02*
X36068Y13589D01*
X36747D02*
X36874Y13462D01*
X27250Y25250D02*
Y28073D01*
X37338Y9025D02*
X42380D01*
X43883Y10528D01*
X42943Y13648D02*
X43883Y12707D01*
X41588Y13648D02*
X42943D01*
X43883Y10528D02*
Y12707D01*
X40513Y12573D02*
X41588Y13648D01*
X22357Y16389D02*
Y17795D01*
X58083Y24467D02*
Y26526D01*
X53987Y31510D02*
X59600Y25897D01*
X46581Y31510D02*
X53987D01*
X59600Y24450D02*
Y25897D01*
X58083Y24467D02*
X58100Y24450D01*
X59600Y24150D02*
Y24450D01*
X25070Y16153D02*
X25534D01*
X25030Y16194D02*
X25070Y16153D01*
X25534D02*
X25931Y15757D01*
X26487D01*
X26748Y16017D01*
Y16748D02*
X26750Y16750D01*
X26748Y16017D02*
Y16748D01*
X11375Y20250D02*
X12128Y21003D01*
X11554Y19750D02*
X12533Y20729D01*
X12987Y20610D02*
Y21850D01*
X11627Y19250D02*
X12987Y20610D01*
X22812Y18250D02*
X24750D01*
X22357Y17795D02*
X22812Y18250D01*
X11628Y27750D02*
X12451Y28573D01*
X10560Y27750D02*
X11628D01*
X10560Y27250D02*
X11701D01*
X12856Y28405D01*
X13976Y29550D02*
Y29750D01*
X13953Y31427D02*
Y31627D01*
X46581Y39102D02*
X55477D01*
X58100Y41650D02*
Y41950D01*
X57777Y41327D02*
X58100Y41650D01*
X57702Y41327D02*
X57777D01*
X55477Y39102D02*
X57702Y41327D01*
X46341Y40825D02*
X49775D01*
X39849Y41108D02*
X46058D01*
X46341Y40825D01*
X42323Y40703D02*
X45720D01*
X46003Y40420D02*
X50920D01*
X45720Y40703D02*
X46003Y40420D01*
X41245Y39625D02*
X42323Y40703D01*
X38705Y39625D02*
Y39964D01*
X39849Y41108D01*
X50920Y40420D02*
X51777Y41277D01*
X49775Y40825D02*
X50600Y41650D01*
Y41950D01*
X51777Y41627D02*
X52100Y41950D01*
X51777Y41277D02*
Y41627D01*
X58687Y23237D02*
X59600Y24150D01*
X38742Y31517D02*
Y32270D01*
X36852Y34160D02*
Y35182D01*
Y34160D02*
X38742Y32270D01*
X36774Y35260D02*
X36852Y35182D01*
X38742Y31510D02*
X46581D01*
X17129Y12153D02*
X19417D01*
Y11118D02*
Y12153D01*
X18669Y10525D02*
X18824D01*
X19417Y11118D01*
X13859Y12153D02*
Y13968D01*
X13990Y14099D01*
X10560Y18750D02*
X11700D01*
X13990Y18131D02*
X13998Y18122D01*
X13990Y18131D02*
Y20312D01*
X10560Y19250D02*
X11627D01*
X10560Y19750D02*
X11554D01*
X10560Y20250D02*
X11375D01*
X36215Y16579D02*
X37945D01*
X36195Y16558D02*
X36215Y16579D01*
X31878Y23750D02*
X33250D01*
X32940Y5842D02*
X33600Y6502D01*
X23440Y7556D02*
X25266Y9382D01*
X23440Y5842D02*
Y7556D01*
X29250Y15695D02*
Y16750D01*
Y15695D02*
X29653Y15292D01*
X28750Y15623D02*
X29040Y15333D01*
X28750Y15623D02*
Y16750D01*
X30429Y15320D02*
X31289D01*
X29750Y15999D02*
X30429Y15320D01*
X29750Y15999D02*
Y16750D01*
X36703Y31517D02*
X36710Y31510D01*
X38735D01*
X24750Y22750D02*
X26002D01*
X26353Y23101D02*
X27256D01*
X24750Y22250D02*
X26550D01*
X26002Y22750D02*
X26353Y23101D01*
X38354Y13462D02*
X39243Y12573D01*
X29230Y25433D02*
X29250Y25453D01*
X29230Y23642D02*
Y25433D01*
X29210Y23622D02*
X29230Y23642D01*
X39150Y13936D02*
Y15374D01*
X37945Y16579D02*
X39150Y15374D01*
Y13936D02*
X39243Y13843D01*
X56065Y10835D02*
X58591D01*
X55264Y10033D02*
X56065Y10835D01*
X58591D02*
Y11825D01*
Y9959D02*
Y10835D01*
Y9959D02*
X58682Y9868D01*
X33250Y22750D02*
X35096D01*
X56515Y24535D02*
X56600Y24450D01*
X56515Y24535D02*
Y25908D01*
X39566Y21567D02*
X39624Y21625D01*
X38712Y21567D02*
X39566D01*
X39624Y21625D02*
X41464D01*
X46609Y15881D02*
Y18288D01*
Y15881D02*
X46681Y15809D01*
X58627Y18685D02*
X60139D01*
X60833Y17991D01*
X58591Y18721D02*
X58627Y18685D01*
X60833Y17083D02*
Y17991D01*
X46681Y15809D02*
X47371D01*
X47665Y15515D02*
X48453D01*
X47371Y15809D02*
X47665Y15515D01*
X49553Y13476D02*
X52578D01*
X49403Y13626D02*
X49553Y13476D01*
X49403Y13626D02*
Y13695D01*
X54591Y13357D02*
Y14000D01*
X54743Y15809D02*
X56392D01*
X54591Y15657D02*
X54743Y15809D01*
X54591Y14000D02*
X55450Y14859D01*
X56392D01*
X58591Y11825D02*
Y13909D01*
Y14859D01*
D15*
X56850Y7090D02*
D03*
D16*
Y4550D02*
D03*
X9595Y39300D02*
D03*
X4515D02*
D03*
X7055D02*
D03*
D17*
X40894Y10033D02*
D03*
X38862D02*
D03*
X39878Y15113D02*
D03*
D18*
X37338D02*
D03*
Y11938D02*
D03*
X42418D02*
D03*
Y15113D02*
D03*
D19*
X1975Y39300D02*
D03*
D20*
X41245Y39625D02*
D03*
X38705D02*
D03*
X36165D02*
D03*
D21*
X43785D02*
D03*
D22*
X55455Y16990D02*
D03*
X35850Y21765D02*
D03*
X36703Y22612D02*
D03*
X52554Y22028D02*
D03*
X53594Y22860D02*
D03*
X37395Y23250D02*
D03*
X37338Y9025D02*
D03*
X7203Y23845D02*
D03*
X23495Y17091D02*
D03*
X8874Y23217D02*
D03*
X22564Y19103D02*
D03*
X36957Y21095D02*
D03*
X27421Y31082D02*
D03*
X15000Y27950D02*
D03*
X29578Y21928D02*
D03*
X30749Y18650D02*
D03*
X30121Y21090D02*
D03*
X7607Y22606D02*
D03*
X7055Y24750D02*
D03*
X9128Y21961D02*
D03*
X50600Y11833D02*
D03*
X25266Y12153D02*
D03*
X29668Y12130D02*
D03*
X26675Y13201D02*
D03*
X32872Y9004D02*
D03*
X36016Y13641D02*
D03*
X44150Y13700D02*
D03*
X22850Y27912D02*
D03*
X6625Y25600D02*
D03*
X60721Y20421D02*
D03*
X52937D02*
D03*
X22357Y16389D02*
D03*
X58083Y26526D02*
D03*
X25030Y16194D02*
D03*
X45074Y30233D02*
D03*
X36703Y19250D02*
D03*
X26875Y18475D02*
D03*
X21336Y21478D02*
D03*
X36195Y16558D02*
D03*
X26550Y22250D02*
D03*
X27256Y23101D02*
D03*
X29210Y23622D02*
D03*
X55264Y10033D02*
D03*
X56515Y25908D02*
D03*
X45720Y17519D02*
D03*
X46609Y18288D02*
D03*
D23*
X13574Y34813D02*
D03*
X31917Y34596D02*
D03*
X28727Y26944D02*
D03*
X18452Y19144D02*
D03*
X49603Y18257D02*
D03*
X22554Y14319D02*
D03*
X20402Y32394D02*
D03*
X28402Y32919D02*
D03*
X41172Y32713D02*
D03*
X34627Y32744D02*
D03*
X8614Y34254D02*
D03*
X4104Y24164D02*
D03*
X4177Y32494D02*
D03*
X22253Y9127D02*
D03*
X35377Y24119D02*
D03*
X35741Y27394D02*
D03*
X23360Y31627D02*
D03*
X21403Y28573D02*
D03*
X23305Y11825D02*
D03*
X28243Y9158D02*
D03*
X31743Y12130D02*
D03*
X19111Y25088D02*
D03*
X35234Y12087D02*
D03*
X57487Y13134D02*
D03*
X8687Y27134D02*
D03*
X24662Y24962D02*
D03*
X32950Y39750D02*
D03*
X32175Y38900D02*
D03*
X16732Y39243D02*
D03*
X16600Y41050D02*
D03*
D24*
X49403Y13695D02*
D03*
X50353Y15515D02*
D03*
D25*
X48453D02*
D03*
D26*
X45006Y5334D02*
D03*
X38306D02*
D03*
X36774Y35260D02*
D03*
X43474D02*
D03*
X39068Y25453D02*
D03*
X45768D02*
D03*
D27*
X8700Y15320D02*
D03*
Y30680D02*
D03*
D28*
X10560Y18750D02*
D03*
Y19250D02*
D03*
Y20750D02*
D03*
Y21250D02*
D03*
Y22750D02*
D03*
Y23250D02*
D03*
Y24750D02*
D03*
Y25250D02*
D03*
Y25750D02*
D03*
Y26250D02*
D03*
Y28750D02*
D03*
Y28250D02*
D03*
Y27750D02*
D03*
Y27250D02*
D03*
Y26750D02*
D03*
Y24250D02*
D03*
Y23750D02*
D03*
Y22250D02*
D03*
Y21750D02*
D03*
Y20250D02*
D03*
Y19750D02*
D03*
Y18250D02*
D03*
Y17750D02*
D03*
Y17250D02*
D03*
D29*
X26250Y16750D02*
D03*
X31750D02*
D03*
X31250D02*
D03*
X30750D02*
D03*
X30250D02*
D03*
X29750D02*
D03*
X29250D02*
D03*
X28750D02*
D03*
X28250D02*
D03*
X27750D02*
D03*
X27250D02*
D03*
X26750D02*
D03*
X26250Y25250D02*
D03*
X26750D02*
D03*
X27250D02*
D03*
X27750D02*
D03*
X28250D02*
D03*
X28750D02*
D03*
X29250D02*
D03*
X29750D02*
D03*
X30250D02*
D03*
X30750D02*
D03*
X31250D02*
D03*
X31750D02*
D03*
D30*
X24750Y18750D02*
D03*
X33250Y21250D02*
D03*
Y20750D02*
D03*
X24750Y18250D02*
D03*
Y19250D02*
D03*
Y19750D02*
D03*
Y20250D02*
D03*
Y20750D02*
D03*
Y21250D02*
D03*
Y21750D02*
D03*
Y22250D02*
D03*
Y22750D02*
D03*
Y23250D02*
D03*
Y23750D02*
D03*
X33250D02*
D03*
Y23250D02*
D03*
Y22750D02*
D03*
Y22250D02*
D03*
Y21750D02*
D03*
Y20250D02*
D03*
Y19750D02*
D03*
Y19250D02*
D03*
Y18750D02*
D03*
Y18250D02*
D03*
D31*
X55100Y24450D02*
D03*
X53600D02*
D03*
X61100D02*
D03*
X59600D02*
D03*
X58100D02*
D03*
X56600D02*
D03*
X52100D02*
D03*
X50600D02*
D03*
X49100D02*
D03*
Y41950D02*
D03*
X50600D02*
D03*
X52100D02*
D03*
X53600D02*
D03*
X55100D02*
D03*
X56600D02*
D03*
X58100D02*
D03*
X59600D02*
D03*
X61100D02*
D03*
D32*
X54900Y34160D02*
D03*
Y35260D02*
D03*
Y33060D02*
D03*
X56000D02*
D03*
Y34160D02*
D03*
Y35260D02*
D03*
X53800D02*
D03*
Y34160D02*
D03*
Y33060D02*
D03*
D33*
X14002Y22284D02*
D03*
X16302D02*
D03*
X20550Y23301D02*
D03*
X22850D02*
D03*
X13990Y24112D02*
D03*
X16289D02*
D03*
X20567Y25137D02*
D03*
X22867D02*
D03*
X58591Y11825D02*
D03*
X56291D02*
D03*
X31340Y10795D02*
D03*
X29040D02*
D03*
X16289Y26012D02*
D03*
X13990D02*
D03*
X56971Y22309D02*
D03*
X59271D02*
D03*
X56971Y20421D02*
D03*
X59271D02*
D03*
X13990Y15999D02*
D03*
X16289D02*
D03*
X13990Y14099D02*
D03*
X16289D02*
D03*
X28450Y34950D02*
D03*
X26150D02*
D03*
X13963Y9890D02*
D03*
X16263D02*
D03*
X24375Y14350D02*
D03*
X26675D02*
D03*
X30381D02*
D03*
X28081D02*
D03*
X25266Y10795D02*
D03*
X27566D02*
D03*
X16316Y20525D02*
D03*
X14016D02*
D03*
X13990Y27912D02*
D03*
X16289D02*
D03*
X21717Y12153D02*
D03*
X19417D02*
D03*
X32759Y10795D02*
D03*
X35059D02*
D03*
X13976Y29750D02*
D03*
X16275D02*
D03*
X13953Y31627D02*
D03*
X16253D02*
D03*
D34*
X58591Y18721D02*
D03*
X58191Y17271D02*
D03*
X58991D02*
D03*
D35*
X39243Y11303D02*
D03*
X40513Y13843D02*
D03*
X39243D02*
D03*
X40513Y12573D02*
D03*
Y11303D02*
D03*
X39243Y12573D02*
D03*
D36*
X52578Y15226D02*
D03*
Y13476D02*
D03*
X18150Y36325D02*
D03*
Y38075D02*
D03*
X46581Y33260D02*
D03*
Y31510D02*
D03*
Y37352D02*
D03*
Y39102D02*
D03*
X27250Y28073D02*
D03*
Y29823D02*
D03*
X39624Y21625D02*
D03*
Y19875D02*
D03*
D37*
X23440Y5842D02*
D03*
X32940D02*
D03*
D38*
X46849Y28448D02*
D03*
X45099D02*
D03*
X12075Y34350D02*
D03*
X10325D02*
D03*
X46341Y19667D02*
D03*
X44591D02*
D03*
X46681Y15809D02*
D03*
X44931D02*
D03*
X54339Y17890D02*
D03*
X52589D02*
D03*
X49594Y19667D02*
D03*
X47844D02*
D03*
D39*
X21844Y37468D02*
D03*
Y34668D02*
D03*
D40*
X56392Y15809D02*
D03*
Y14859D02*
D03*
Y13909D02*
D03*
X58591D02*
D03*
Y14859D02*
D03*
Y15809D02*
D03*
D41*
X58685Y9868D02*
D03*
D42*
X56885D02*
D03*
D43*
X54591Y15657D02*
D03*
Y13357D02*
D03*
X38742Y29217D02*
D03*
Y31517D02*
D03*
X36703Y29217D02*
D03*
Y31517D02*
D03*
X32258Y30233D02*
D03*
Y27933D02*
D03*
X30317Y30233D02*
D03*
Y27933D02*
D03*
X34798Y14659D02*
D03*
Y16959D02*
D03*
X21336Y17519D02*
D03*
Y19819D02*
D03*
X45071Y9525D02*
D03*
Y11825D02*
D03*
X46884Y9528D02*
D03*
Y11828D02*
D03*
D44*
X13998Y18122D02*
D03*
X17268D02*
D03*
X13859Y12153D02*
D03*
X17129D02*
D03*
D45*
X16372Y36271D02*
D03*
X15127D02*
D03*
X15750Y34479D02*
D03*
D46*
X41464Y21590D02*
D03*
X42964D02*
D03*
D47*
X60833Y17083D02*
D03*
Y15583D02*
D03*
D48*
X18669Y10525D02*
D03*
Y7255D02*
D03*
D49*
X50600Y5510D02*
D03*
Y10006D02*
D03*
D50*
X59612Y15583D02*
Y16326D01*
Y10223D02*
Y15583D01*
X58191Y17271D02*
Y17374D01*
Y16736D02*
Y17271D01*
X58396Y16531D02*
X59407D01*
X59612Y16326D01*
X58906Y8509D02*
X59612Y9215D01*
Y9513D01*
X59614Y9515D02*
Y10221D01*
X59612Y9513D02*
X59614Y9515D01*
X59612Y10223D02*
X59614Y10221D01*
X56261Y17399D02*
X58166D01*
X58191Y17374D01*
X55820Y17840D02*
X56261Y17399D01*
X54500Y17840D02*
X55820D01*
X58191Y16736D02*
X58396Y16531D01*
X56885Y8509D02*
X58906D01*
X56885Y7112D02*
Y8509D01*
Y9868D01*
X54475Y17815D02*
X54500Y17840D01*
%TF.MD5,b0d1e9beb37dac3a23d8203a687abfac*%
M02*
